<?xml version="1.0" encoding="utf-8"?>
<!-- Generator: Adobe Illustrator 18.1.1, SVG Export Plug-In . SVG Version: 6.00 Build 0)  -->
<svg version="1.1" id="Layer_1" xmlns="http://www.w3.org/2000/svg" xmlns:xlink="http://www.w3.org/1999/xlink" x="0px" y="0px"
	 viewBox="0 0 693.4 215.1" enable-background="new 0 0 693.4 215.1" xml:space="preserve">
<polygon fill="#141215" points="105,1.7 92,82.4 58.2,61.8 80.3,95 0,107.8 79.8,120.5 58.5,154.1 92.4,133.1 105,213.5 
	117.9,132.2 151.8,153.8 130.5,120.1 693.4,107.8 130.5,95.4 151.5,61.5 117.9,83.7 "/>
<g>
	<path fill="#074495" d="M160.2,203.4c-2.6,0-4.8,2.2-4.8,4.9c0,2.7,2.3,4.8,4.8,4.8c1.3,0,2.5-0.5,3.3-1.3l1.3,1.3
		c-1.2,1.2-2.8,1.9-4.6,1.9c-3.7,0-6.7-3-6.7-6.7c0-3.7,3-6.7,6.7-6.7c1.8,0,3.4,0.7,4.5,1.9l-1.3,1.3
		C162.6,203.9,161.5,203.4,160.2,203.4z"/>
	<path fill="#074495" d="M187.1,214.8l-2.9-5.6h-2.8v5.6h-1.9v-5.6h-1.4v-1.9h1.4v-5.6h7c2,0,3.7,1.7,3.7,3.7c0,2-1.6,3.7-3.7,3.7
		l2.8,5.6H187.1z M188.4,205.5c0-1.1-0.9-1.9-1.9-1.9h-5.1v3.7h5.1C187.6,207.3,188.4,206.5,188.4,205.5z"/>
	<path fill="#074495" d="M215.8,201.7v3.3H214v-1.4h-7v3.7h3.7v1.9H207v3.7h7v-1.4h1.9v3.3h-10.7v-5.6h-1.4v-1.9h1.4v-5.6H215.8z"/>
	<path fill="#074495" d="M242.5,214.8h-2l-1.9-3.7h-5.2l-1.9,3.7h-2.1l1.9-3.7h-0.9v-1.9h1.9l3.7-7.5L242.5,214.8z M236,205.6
		l-1.7,3.5h3.5L236,205.6z"/>
	<path fill="#074495" d="M260.7,214.8v-11.2h-2.8v1.4h-1.9v-3.3h11.2v3.3h-1.9v-1.4h-2.8v11.2H260.7z"/>
	<path fill="#074495" d="M283.2,201.7v13h-1.9v-13H283.2z"/>
	<path fill="#074495" d="M297.6,201.7l9.3,8.4v-8.4h1.9v13l-9.3-8.4v8.4h-1.9V201.7z"/>
	<path fill="#074495" d="M322.9,208.3c0-3.7,3-6.7,6.7-6.7c1.9,0,3.4,0.7,4.6,1.9l-1.3,1.3c-0.8-0.8-1.9-1.3-3.3-1.3
		c-2.6,0-4.8,2.2-4.8,4.9c0,2.7,2.2,4.8,4.8,4.8c2.6,0,4.5-2,4.8-3.9h-5.9v-1.9h7.8c0,0,0.1,0.5,0.1,0.9c0,3.9-3.2,6.7-6.7,6.7
		C326,215,322.9,212,322.9,208.3z"/>
	<path fill="#074495" d="M367.8,201.7h4.7c3.6,0,6.5,2.9,6.5,6.5c0,3.6-2.8,6.5-6.5,6.5h-4.7V201.7z M369.7,212.9h2.8
		c2.6,0,4.7-2.1,4.7-4.7c0-2.6-2.1-4.7-4.7-4.7h-2.8V212.9z"/>
	<path fill="#074495" d="M397.8,214.8v-3.5l-5.6-9.5h2.1l4.5,7.5l4.5-7.5h2l-5.6,9.5v3.5H397.8z"/>
	<path fill="#074495" d="M419,201.7l9.3,8.4v-8.4h1.9v13l-9.3-8.4v8.4H419V201.7z"/>
	<path fill="#074495" d="M457.1,214.8h-2l-1.9-3.7H448l-1.9,3.7h-2.1l1.9-3.7H445v-1.9h1.9l3.7-7.5L457.1,214.8z M450.6,205.6
		l-1.7,3.5h3.5L450.6,205.6z"/>
	<path fill="#074495" d="M470.9,201.7l6.5,6.5l6.5-6.5v13h-1.9v-8.4l-4.7,4.7l-4.7-4.7v8.4h-1.9V201.7z"/>
	<path fill="#074495" d="M500.3,201.7v13h-1.9v-13H500.3z"/>
	<path fill="#074495" d="M521,203.4c-2.6,0-4.8,2.2-4.8,4.9c0,2.7,2.3,4.8,4.8,4.8c1.3,0,2.5-0.5,3.3-1.3l1.3,1.3
		c-1.2,1.2-2.8,1.9-4.6,1.9c-3.7,0-6.7-3-6.7-6.7c0-3.7,3-6.7,6.7-6.7c1.8,0,3.4,0.7,4.5,1.9l-1.3,1.3
		C523.4,203.9,522.3,203.4,521,203.4z"/>
	<path fill="#074495" d="M561.5,214.8v-11.2h-2.8v1.4h-1.9v-3.3H568v3.3h-1.9v-1.4h-2.8v11.2H561.5z"/>
	<path fill="#074495" d="M593.7,201.7v3.3h-1.9v-1.4h-7v3.7h3.7v1.9h-3.7v3.7h7v-1.4h1.9v3.3H583v-5.6h-1.4v-1.9h1.4v-5.6H593.7z"/>
	<path fill="#074495" d="M620.4,214.8h-2l-1.9-3.7h-5.2l-1.9,3.7h-2.1l1.9-3.7h-0.9v-1.9h1.9l3.7-7.5L620.4,214.8z M613.9,205.6
		l-1.7,3.5h3.5L613.9,205.6z"/>
	<path fill="#074495" d="M634.2,201.7l6.5,6.5l6.5-6.5v13h-1.9v-8.4l-4.7,4.7l-4.7-4.7v8.4h-1.9V201.7z"/>
	<path fill="#074495" d="M666.1,213.2c1.7,0,2.9-0.7,3.8-1.8l-8.6-5.4c1-2.5,3.4-4.4,6.3-4.4c1.9,0,3.7,0.8,4.9,2.2
		c0,0-1.4,1.2-1.4,1.2c-0.8-0.9-2.3-1.5-3.5-1.5c-1.6,0-2.8,0.8-3.8,1.8l8.6,5.4c-1,2.6-3.4,4.3-6.3,4.3c-2.1,0-3.8-0.9-4.9-2.2
		l1.4-1.2C663.4,212.6,664.8,213.2,666.1,213.2z"/>
</g>
<g>
	<path fill="#141215" d="M96.2,0 M101.7,0.1 M108.5,0.1"/>
</g>
<g>
	<path fill="#074495" d="M208.2,94h-8.7l-7.9-15.9h-22.1l-8,15.9h-8.8l7.9-15.9h-3.9v-7.9h8l15.8-31.7L208.2,94z M180.5,55.2
		l-7.3,15h14.7L180.5,55.2z"/>
	<path fill="#074495" d="M213.8,38.6h19.8c15.3,0,27.7,12.5,27.7,27.7c-0.1,15.2-12,27.7-27.7,27.7h-19.8V38.6z M221.7,86.1h12
		c10.9,0,19.8-8.9,19.8-19.8c0-10.9-8.8-19.9-19.8-19.9h-12V86.1z"/>
	<path fill="#074495" d="M319.7,38.6L292.1,94l-27.7-55.4h8.7l19,38.8l19-38.8H319.7z"/>
	<path fill="#074495" d="M374.5,38.6v13.8h-8v-5.9h-29.6v15.9h15.8v7.9h-15.8v15.9h29.6v-5.9h8V94H329V70.2H323v-7.9h5.9V38.6H374.5
		z"/>
	<path fill="#074495" d="M381.9,38.6l39.5,35.6V38.6h8V94l-39.6-35.6V94h-7.9V38.6z"/>
	<path fill="#074495" d="M456.8,94V46.5h-11.9v5.9h-8V38.6h47.5v13.8h-7.9v-5.9h-11.9V94H456.8z"/>
	<path fill="#074495" d="M514.9,94.8c-13.1,0-23.8-11.3-23.8-24.5V38.6h7.9v31.7c0,9,7.1,16.6,15.9,16.6c8.8,0,15.8-7.7,15.8-16.6
		V38.6h8v31.7C538.7,83.5,528.1,94.8,514.9,94.8z"/>
	<path fill="#074495" d="M582.6,94l-12.2-23.8h-11.9V94h-8V70.2h-5.9v-7.9h5.9V38.6h29.7c8.7,0,15.9,7.2,15.9,15.9
		c0,8.4-7,15.8-15.9,15.8L592.2,94H582.6z M588.2,54.4c0-4.7-3.9-8-7.9-8h-21.7v15.9h21.7C584.7,62.3,588.2,58.7,588.2,54.4z"/>
	<path fill="#074495" d="M651.7,38.6v13.8h-8v-5.9h-29.6v15.9h15.8v7.9h-15.8v15.9h29.6v-5.9h8V94h-45.6V70.2h-5.9v-7.9h5.9V38.6
		H651.7z"/>
	<path fill="#074495" d="M174.4,179.1v-47.5h-11.9v5.9h-8v-13.8H202v13.8h-7.9v-5.9h-11.9v47.5H174.4z"/>
	<path fill="#074495" d="M258.3,123.7v13.8h-8v-5.9h-29.6v15.9h15.8v7.9h-15.8v15.9h29.6v-5.9h8v13.8h-45.6v-23.8h-5.9v-7.9h5.9
		v-23.8H258.3z"/>
	<path fill="#074495" d="M318.3,179.1h-8.7l-7.9-15.9h-22.1l-8,15.9h-8.8l7.9-15.9h-3.9v-7.9h8l15.8-31.7L318.3,179.1z M290.7,140.3
		l-7.3,15H298L290.7,140.3z"/>
	<path fill="#074495" d="M323.9,123.7l27.7,27.7l27.7-27.7v55.4h-7.9v-35.6l-19.8,19.8l-19.8-19.8v35.6h-7.9V123.7z"/>
	<path fill="#074495" d="M432.4,179.1l-15.9-31.7l-15.8,31.7l-15.9-55.4h9.1l8.7,31.7l13.8-26.3l13.8,26.3l8.8-31.7h9.1L432.4,179.1
		z"/>
	<path fill="#074495" d="M451.9,151.4c0-15.7,12.8-28.5,28.5-28.5c15.7,0,28.4,12.8,28.4,28.5c0,15.7-12.7,28.4-28.4,28.4
		C464.7,179.9,451.9,167.1,451.9,151.4z M480.4,130.8c-11.3,0-20.5,9.3-20.5,20.6c0,11.3,9.1,20.5,20.5,20.6
		c11.3,0,20.6-9.2,20.6-20.6C501,140,491.7,130.8,480.4,130.8z"/>
	<path fill="#074495" d="M550.8,179.1l-12.2-23.8h-11.9v23.8h-8v-23.8h-5.9v-7.9h5.9v-23.8h29.7c8.7,0,15.9,7.2,15.9,15.9
		c0,8.4-7,15.8-15.9,15.8l11.9,23.8H550.8z M556.4,139.5c0-4.7-3.9-8-7.9-8h-21.7v15.9h21.7C552.9,147.4,556.4,143.8,556.4,139.5z"
		/>
	<path fill="#074495" d="M582.3,123.7v23.8h5.9l20.6-23.8H619l-23.7,27.7l23.7,27.7h-10.2l-20.6-23.8h-5.9v23.8h-8v-23.8h-5.9v-7.9
		h5.9v-23.8H582.3z"/>
	<path fill="#074495" d="M643.3,172.4c7.1,0,12.1-3.1,15.9-7.5L622.7,142c4.2-10.7,14.5-18.6,26.9-18.6c8,0,15.9,3.6,20.9,9.1
		c-0.1,0-5.9,5.1-5.9,5.1c-3.4-3.8-9.8-6.3-15-6.3c-6.8,0-12.1,3.2-16,7.7l36.4,22.9c-4.4,11-14.5,18.4-26.6,18.4
		c-8.8,0-16.3-3.9-20.9-9.1l6-5.2C631.8,169.8,637.7,172.4,643.3,172.4z"/>
</g>
</svg>
