<?xml version="1.0" encoding="utf-8"?>
<!-- Generator: Adobe Illustrator 18.1.1, SVG Export Plug-In . SVG Version: 6.00 Build 0)  -->
<svg version="1.1" id="Layer_1" xmlns="http://www.w3.org/2000/svg" xmlns:xlink="http://www.w3.org/1999/xlink" x="0px" y="0px"
	 viewBox="0 0 368.2 177.6" enable-background="new 0 0 368.2 177.6" xml:space="preserve">
<g>
	<path d="M61.8,146.9c-2.7,5.9-4.2,6.1-10.8,6.1h-8.1c-2.3,0-2.9-0.6-2.9-2.7v-16.1h11c4.6,0,5.1,0.3,6,4.1l0.1,0.4h2.2v-12.2h-2.3
		l-0.1,0.4c-0.6,3.8-1.7,4.1-4.5,4.1H39.9v-18.9h12.9c5.1,0,6.3,0.4,7.3,5.1l0.1,0.4H62v-8.8H27.5v2.3H28c3.4,0,4.8,1,4.8,6.9v29
		c0,5.9-1.4,6.8-4.8,6.8h-0.5v2.3h34.4l2.3-9.6h-2.3L61.8,146.9z"/>
	<path d="M96.5,150.7l-8.4-11l4.5-5.4c3.4-4,4.7-4.9,8.1-5.3l0.4,0v-2.3H88.8v2.4h0.5c0.6,0,1.4,0.1,1.6,0.7
		c0.3,0.7-0.2,2.1-1.3,3.4l-3.5,4.3l-3.4-4.8c-1.1-1.6-1.2-2.3-1-2.7c0.3-0.6,1.2-0.8,2-0.8l0.4,0v-2.3H67.4v2.3l0.5,0
		c3.5,0.2,4.8,1,7.6,4.7l6.6,8.6l-6,7.1c-3.6,4.3-4.7,4.5-8.1,4.5h-0.5v2.3H80V154l-0.5,0c-0.6,0-1.3-0.2-1.5-0.7
		c-0.3-0.6,0.1-1.5,0.9-2.5l4.7-5.9l4.6,6.4c0.6,0.9,0.9,1.6,0.7,2c-0.2,0.5-1,0.7-1.7,0.8l-0.4,0.1v2.3H103v-2.3h-0.5
		C100,153.9,98.2,153,96.5,150.7z"/>
</g>
<g>
	<path fill="#FCB316" d="M60.6,145.7c-2.7,5.9-4.2,6.1-10.8,6.1h-8.1c-2.3,0-2.9-0.6-2.9-2.7v-16.1h11c4.6,0,5.1,0.3,6,4.1l0.1,0.4
		h2.2v-12.2h-2.3l-0.1,0.4c-0.6,3.8-1.7,4.1-4.5,4.1H38.8v-18.9h12.9c5.1,0,6.3,0.4,7.3,5.1l0.1,0.4h1.8v-8.8H26.4v2.4h0.5
		c3.4,0,4.8,1,4.8,6.9v29c0,5.9-1.4,6.8-4.8,6.8h-0.5v2.3h34.4l2.3-9.6h-2.3L60.6,145.7z"/>
	<path fill="#FCB316" d="M95.3,149.5l-8.4-11l4.5-5.4c3.4-4,4.7-4.9,8.1-5.3l0.4,0v-2.3H87.6v2.4h0.5c0.6,0,1.4,0.1,1.6,0.7
		c0.3,0.7-0.2,2.1-1.3,3.4l-3.5,4.3l-3.4-4.8c-1.1-1.6-1.2-2.3-1-2.7c0.3-0.6,1.2-0.8,2-0.8l0.4,0v-2.3H66.2v2.3l0.5,0
		c3.5,0.2,4.8,1,7.6,4.7l6.6,8.6l-6,7.1c-3.6,4.3-4.7,4.5-8.1,4.5h-0.5v2.3h12.6v-2.3l-0.5,0c-0.6,0-1.3-0.2-1.5-0.7
		c-0.3-0.6,0.1-1.5,0.9-2.5l4.7-5.9l4.6,6.4c0.6,0.9,0.9,1.6,0.7,2c-0.2,0.5-1,0.7-1.7,0.8l-0.4,0.1v2.3h16.1v-2.3h-0.5
		C98.8,152.8,97,151.8,95.3,149.5z"/>
</g>
<g>
	<path d="M68,85.9l-1.8-1.7l-0.3,0.6c-3.1,6-8,9.1-14.4,9.1c-9.4,0-15.7-8.3-15.7-20.7c0-11.5,5.9-18.7,15.3-18.7
		c7.2,0,11.4,3.4,13.4,11.2l0.1,0.4h2.1V52.3h-2l-0.1,0.3c-0.4,0.7-0.9,1.1-1.9,1.1c-1,0-2.2-0.3-3.7-0.6c-2.2-0.5-5-1.2-8.2-1.2
		c-13,0-22.5,10.1-22.5,24c0,14.2,10.8,21.7,21.5,21.7c8.3,0,15.3-4.3,18.2-11.3L68,85.9z"/>
	<path d="M92,97.5c13,0,23.2-10.1,23.2-23c0-12.7-10.1-22.6-23.1-22.6c-13.3,0-23.3,9.7-23.3,22.6C68.8,87.4,79,97.5,92,97.5z
		 M76.3,74.5c0-12.2,6.3-20.1,15.9-20.1c9.2,0,15.4,8.2,15.4,20.4c0,10-5.4,20-15.8,20C82.6,94.9,76.3,86.7,76.3,74.5z"/>
	<path d="M138,94.2h-0.5v2.2h16v-2.2H153c-3.6,0-4.4-1.1-5.6-4.8l-12.5-37h-5.1L118,87.8c-1.3,3.8-2.1,5.8-5.9,6.4l-0.4,0.1v2.2h12
		v-2.2l-0.5,0c-1.3,0-2.1-0.3-2.6-0.9c-0.8-1.1-0.1-3.5,0.7-5.9l2.8-8.2h13.1l3.8,11.5c0.4,1.1,0.4,2,0,2.6
		C140.3,94,139,94.2,138,94.2z M125.2,75.6l5.3-16.2l5.3,16.2H125.2z"/>
	<path d="M157.3,96.6c0.4-1.2,0.8-1.3,1.2-1.3c0.4,0,1.2,0.3,2.2,0.6c1.9,0.7,4.6,1.6,7.5,1.6c6.9,0,12.6-5.7,12.6-12.6
		c0-3.5-1.2-6.1-3.9-8.8c-2.2-2.2-5-3.9-7.8-5.5c-4.9-2.9-9-5.4-9-10.2c0-3.5,2.9-5.9,7.2-5.9c3.9,0,8.3,2.2,9,8.3l0,0.4h2.2V52.3
		h-2l-0.1,0.4c-0.2,0.8-0.2,0.8-0.6,0.8c-0.5,0-1.2-0.2-2-0.5c-1.4-0.5-3.4-1.1-6.3-1.1c-7.2,0-12.1,4.6-12.1,11.5
		c0,3.7,1.2,6.7,3.8,9.3c1.6,1.6,3.9,3,6.4,4.6c4.8,2.9,9.7,6,9.7,10.6c0,4.3-3.2,7.1-8.1,7.1c-2.7,0-9.7-1.8-9.8-10l0-0.5h-2.2
		v12.5h2.1L157.3,96.6z"/>
	<path d="M205.5,88.1V55.9h6c6.7,0,7.8,2.5,8.5,5.7l0.1,0.4h1.7V51.3h-2l-0.1,0.1c-1.3,1.1-3,1.5-6.5,1.5h-22.3
		c-1.6,0-2.9-0.1-4-0.4c-0.9-0.3-1.5-0.6-2.1-1.1l-0.1-0.1h-1.9V62h2.2l0-0.4c0.3-4.1,2.6-5.7,8.2-5.7h5.7v32c0,5.8-1.8,6.3-4.3,6.3
		h-0.5v2.2h16.1v-2.2h-0.5C206.6,94.2,205.5,93.3,205.5,88.1z"/>
	<path d="M218.1,94.2l-0.4,0.1v2.2h12v-2.2l-0.5,0c-1.3,0-2.1-0.3-2.6-0.9c-0.8-1.1-0.1-3.5,0.7-5.9l2.8-8.2h13.1l3.8,11.5
		c0.4,1.1,0.4,2,0,2.6c-0.6,0.8-1.9,0.9-2.8,0.9h-0.5v2.2h16v-2.2H259c-3.6,0-4.4-1-5.6-4.8l-12.5-37h-5.1L224,87.8
		C222.7,91.6,221.8,93.6,218.1,94.2z M231.2,75.6l5.4-16.2l5.3,16.2H231.2z"/>
	<path d="M296.8,86.2h-2.3l-0.1,0.3c-1.8,5.8-3,6.9-7.9,6.9H278c-3.5,0-4.4-0.7-4.4-3.6V61.3c0-4.5,1.2-6.2,4.3-6.2h0.5v-2.2h-16.2
		v2.2h0.5c2.9,0,4.3,0.9,4.3,5.7v26.8c0,5.6-1.6,6.6-4.3,6.6h-0.5v2.2h31.7L296.8,86.2z"/>
	<path d="M123.9,124.5c-3.5,0-6.2,1.2-9.5,4.2v-4.2l-1.9,0l-9.6,0.9v2.3h0.5c4.1,0,4.5,0.4,4.5,4v40c0,2.7-0.6,3.5-4.5,3.5h-0.5v2.4
		h16.3v-2.4h-0.5c-3.7,0-4.3-1-4.3-4.3V153c2.9,2.1,5.2,2.9,8.2,2.9c8.4,0,14.8-6.8,14.8-15.9C137.3,131.2,131.5,124.5,123.9,124.5z
		 M114.4,132.2c2.5-2.9,4.6-4,7.3-4c5,0,8.7,5.4,8.7,12.8c0,6.9-3.7,12.1-8.5,12.1c-2.6,0-5.5-1.3-7.5-3.3V132.2z"/>
	<path d="M159.9,152.7c-1.9,0-4.6-0.8-6.9-3.1c-2.6-2.7-4-6.8-4.1-12.1H170l0-0.5c0.2-3-0.9-6-3.1-8.3c-2.5-2.6-6.1-4.2-9.8-4.2
		c-8.4,0-14.9,7-14.9,16c0,8.9,6.7,15.4,16,15.4c5.2,0,8.7-1.8,12.2-6.3l0.1-0.1v-3.5l-0.8,0.9C165.4,151.5,163.5,152.7,159.9,152.7
		z M149,135.1c0.5-5,3.2-8,7.4-8c2,0,3.9,0.8,5.2,2.1c1.4,1.4,2.1,3.4,2.1,5.8H149z"/>
	<path d="M204.2,148.9v-45.8h-1.9l-10,1v2.3h2.1c2.4,0,3.3,0.4,3.3,4.5v16.7c-3.4-2.2-6.2-3.1-9.2-3.1c-7.7,0-13.9,6.8-13.9,15.1
		c0,7.7,5.3,15.4,17.2,15.4H209v-2.4h-0.5C205.1,152.7,204.2,151.9,204.2,148.9z M197.7,131.7v17.1c0,2.8-1.1,3.9-4.1,3.9
		c-8.9,0-12.1-7.4-12.1-14.4c0-6.7,3.3-11.2,8.3-11.2C192.7,127.2,195.6,128.9,197.7,131.7z"/>
	<path d="M215.2,113.7c0,2.2,1.9,4.1,4.1,4.1c2.2,0,4-1.8,4-4.1c0-2.2-1.7-4-4-4C217,109.7,215.2,111.5,215.2,113.7z"/>
	<path d="M222.4,149.2v-24.7l-1.9,0l-10,0.9v2.3h0.5c4.2,0,4.9,0.3,4.9,3.8v17.6c0,3-0.7,3.5-4.9,3.5h-0.5v2.4h16.7v-2.4h-0.5
		C222.8,152.7,222.4,151.6,222.4,149.2z"/>
	<path d="M250.8,149.3c-1.6,1.9-3,2.6-5,2.6c-3,0-4.7-2-4.7-5.5v-18h10v-3.1h-10v-9.7H239l-0.1,0.3c-2.4,4.8-5.5,8.2-9.4,10.2
		l-0.3,0.1v2.2h5.4v18.7c0,5.2,3.6,8.8,8.8,8.8c3.4,0,6.4-1.7,9.1-5l0.3-0.3l-1.5-1.8L250.8,149.3z"/>
	<path d="M264.6,149.2v-24.7l-1.9,0l-10,0.9v2.3h0.5c4.2,0,4.9,0.3,4.9,3.8v17.6c0,3-0.7,3.5-4.9,3.5h-0.5v2.4h16.7v-2.4h-0.5
		C265,152.7,264.6,151.6,264.6,149.2z"/>
	<path d="M257.4,113.7c0,2.2,1.9,4.1,4.1,4.1c2.2,0,4-1.8,4-4.1c0-2.2-1.7-4-4-4C259.2,109.7,257.4,111.5,257.4,113.7z"/>
	<path d="M289.2,124.5c-9.2,0-16.2,6.8-16.2,15.7c0,8.9,7,15.6,16.2,15.6c9.2,0,16.2-6.7,16.2-15.6
		C305.4,131.3,298.5,124.5,289.2,124.5z M289.2,153.3c-6.8,0-9.2-6.7-9.2-13.1c0-8.1,3.5-13.1,9.2-13.1c6.8,0,9.2,7.1,9.2,13.1
		C298.5,146.6,296,153.3,289.2,153.3z"/>
	<path d="M339.5,148.3v-13c0-7.1-5.1-10.8-10.2-10.8c-3.5,0-6.7,1.6-9.9,5v-5l-1.9,0l-9.4,0.9v2.3h0.5c3.7,0,4.3,0.6,4.3,3.7v16.1
		c0,5-0.8,5-4.3,5h-0.5v2.4h16.1v-2.4h-0.5c-4,0-4.4-0.9-4.4-5v-13.9c2.7-3.6,5.1-5.3,7.7-5.3c2.9,0,5.9,1.9,5.9,6.1v15
		c0,2.3-0.7,3.1-4.5,3.1h-0.5v2.4h16.3v-2.4h-0.5C340,152.7,339.5,151.7,339.5,148.3z"/>
	<path d="M359.3,136.3c-3.3-1.5-6.2-2.8-6.2-5.8c0-2.1,1.7-3.4,4.3-3.4c3.6,0,6.2,2.7,6.7,6.8l0.1,0.4h2.5v-9.8h-2.2l-0.1,0.3
		c-0.4,1-0.9,1.1-1.3,1.1c-0.8,0-1.4-0.2-2.1-0.5c-0.9-0.4-2-0.8-3.8-0.8c-5,0-9.2,4-9.2,8.8c0,5.4,4.5,7.4,8.5,9.1
		c3.6,1.6,6.8,3,6.8,6.5c0,2.5-2,4.5-4.5,4.5c-3.6,0-7.7-2.5-8.8-8l-0.1-0.4h-2.3v10.8h2.3l0-0.5c0.1-0.7,0.5-1.5,1.4-1.5
		c0.4,0,1.2,0.3,2,0.7c1.4,0.6,3.2,1.4,5.3,1.4c5.2,0,9.6-4.3,9.6-9.3C368.2,140.4,363.5,138.2,359.3,136.3z"/>
</g>
<g>
	<path fill-rule="evenodd" clip-rule="evenodd" fill="#ED1C24" d="M56.4,15.5c-0.1-0.4-0.3-0.8-0.3-1.2c-0.1-0.6,0-1.1-0.1-1.6
		c-0.3-3.6-1.7-6.3-3.7-8.3c-2.2-2.3-5.1-3.9-9.1-4.4c0,0,0,0,0,0c-0.4,0-0.9,0-1.3,0c-2.4,0.3-4.3,1.2-5.9,2.3
		c-0.2,0.2-0.5,0.5-0.7,0.5c-0.2,0-0.5-0.1-0.8-0.1c-0.5,0-1,0-1.4,0c0.1,0.2,0.2,0.5,0.2,0.8c0,0.5-0.3,1-0.8,1.3
		C32.8,5,32.9,5,33.1,5.1c0.4,0.2,1.1,0.4,1.4,0.7c0.2,0.2,0.4,0.5,0.6,0.7c1,1.2,2.1,2.2,3.3,3.3c0.4,0.4,1.1,0.8,1.4,1.2
		c0.6,0.9,0.4,2.2-0.2,3.1c-0.5,0.7-1.4,1.2-1.9,1.7c-1.3,1.1-2.5,2.4-3.7,3.6c-2.5,2.3-4.8,4.9-7.4,7.1c-1.4,1.2-2.8,2-4,3.2
		c-2.8,3.1-5,7.1-9.6,8.4c-0.4,0.1-1,0.3-1.4,0.4c-0.4,0.1-1.1,0.4-1.1,0.7c0,0.3,0.6,0.4,0.8,0.5c0.4,0.1,0.8,0.2,1,0.4
		c-0.2,0.3-0.5,0.4-0.8,0.6c-0.9,0.5-1.9,0.9-2.5,1.7c1.1,0.4,2.5,0.5,3.8,0.6c0,0.2-0.2,0.3-0.3,0.4c-0.9,1-2,1.9-2.9,2.8
		c-3.2,3.3-6.7,6.4-9.7,9.9c0,0,0,0,0,0c1.2,0.1,2.7,0.3,3.8-0.2c0.6-0.2,1.1-0.7,1.7-1.2c3.3-2.6,6.2-5.4,9.2-8.1
		c0.5-0.5,1-1,1.5-1.4c0.9-0.6,2.2-1.2,3.6-1.3c0.8-0.1,1.5,0,2.3,0c2.1-0.2,4.1-0.7,5.9-1.1c0.8,1.2-0.4,2.4-0.7,3.4
		c-0.4,1.2,0.4,2,1,2.5c0.4,0.4,0.9,0.5,1.4,0.8c0.2,0.2,0.5,0.4,0.7,0.6c0.7,0.6,1.5,1.4,2.3,1.8c0.5,0.3,1.1,0.5,1.7,0.8
		c1.4,0.7,2,1,3,1.5c0.1,0.2,0,0.6-1,1c-1.4,0.6-3.3,2.4-3.8,3.6c-0.5,1.1,0,1.8,0,1.8s6-2,6.5-2.5c0.1-0.1,0.3-0.4,0.6-0.7
		c0.3-0.1,0.5-0.1,0.8-0.2c0,0,0.1,0,0.1,0v-1c0.8-0.9,1.8-1.7,2.9-1.8c2.2-0.3,4.5-1.3,4.5-1.3s0.2-0.5-0.2-0.9
		c0.7-0.1,1.1-0.1,1.1-0.1l-0.4-0.5c0,0-1.4-0.5-2.9-0.5c-1.5,0-3.9,0.3-3.9,0.3s-1-0.3-1.5-0.5c-0.5-0.3-1.1-0.9-1.4-1.9
		c-0.3-1-0.7-0.8-0.7-1.9c0-1.1,1.3-2.5,2.1-3.9c0.4-0.7,1.6-1.5,2.7-2.2c1.7-0.5,3.2-1.4,4.5-2.4c1.6-1.3,3.1-2.8,4.5-4.3
		c2.7-3.1,4.9-6.9,5.2-12.4c0,0,0-0.1,0-0.1c0-0.8,0-1.6,0-2.3C56.9,18.1,56.7,16.7,56.4,15.5z M38.4,52.4c-0.7-0.4-1.3-0.7-1.9-1.1
		c-0.5-0.3-0.8-0.4-1.1-0.9c-0.3-0.4-0.7-0.9-1.1-1.2c-0.5-0.4-1.3-0.8-1.6-1.4c-0.4-0.9,0.4-1.5,0.8-2.2c0.1-0.2,0.2-0.3,0.3-0.5
		c0-0.3,0.2-0.5,0.5-0.8c0.1-0.1,0.2-0.3,0.3-0.4c0.2-0.2,0.5-0.4,0.7-0.6c0.1-0.1,0.3-0.3,0.4-0.4c0,0,0,0,0,0
		c-0.2,0.8-0.6,2-0.9,3.1c-0.5,1.8,0.1,1.2,0.6,2.1c0.5,0.9,1.6,1.4,1.9,2.1C37.4,51,38.1,51.7,38.4,52.4z"/>
	<path fill-rule="evenodd" clip-rule="evenodd" fill="#00A651" d="M50.3,18.5c-0.4-2-2.2-2.9-3.1-3.4c-0.7-0.4-5.3-1.1-7.4-1.4
		c-0.1,0.2-0.2,0.3-0.2,0.5c-0.5,0.7-1.4,1.2-1.9,1.7c-1.3,1.1-2.5,2.4-3.7,3.6c-2.5,2.3-4.8,4.9-7.4,7.1c-1.4,1.2-2.8,2-4,3.2
		c-2.8,3.1-5,7.1-9.6,8.4c-0.4,0.1-1,0.3-1.4,0.4c-0.4,0.1-1.1,0.4-1.1,0.7c0,0.3,0.6,0.4,0.8,0.5c0.4,0.1,0.8,0.2,1,0.4
		c-0.2,0.3-0.5,0.4-0.8,0.6c-0.9,0.5-1.9,0.9-2.5,1.7c1.1,0.4,2.5,0.5,3.8,0.6c0,0,0,0,0,0c0.5-0.1,1.2-0.2,2.1-0.3
		c3-0.4,1.4,0.7,3.1,0.7c1.7,0,2,0.3,5.3-0.8c3.4-1,6.2-2.1,11.2-4.7c4.9-2.6,12.7-7.8,14.2-11.2C50.3,23.3,50.7,20.4,50.3,18.5z"/>
	<path fill-rule="evenodd" clip-rule="evenodd" d="M53.4,13.1c1.8-0.2,2,0.3,2.6,0.5c0-0.3,0-0.6,0-0.9c-0.3-3.6-1.7-6.3-3.7-8.3
		c-2.2-2.3-5.1-3.9-9.1-4.4c0,0,0,0,0,0c-0.4,0-0.9,0-1.3,0c-2.4,0.3-4.3,1.2-5.9,2.3c-0.2,0.2-0.5,0.5-0.7,0.5
		c-0.2,0-0.5-0.1-0.8-0.1c-1.9-0.1-3.2,0.1-5,0.3c-0.3,0.1-0.4,0.2,0.3,0.5c1.2,0.6,2.1,1,3.3,1.5c0.4,0.2,1.1,0.4,1.4,0.7
		c0.2,0.2,0.4,0.5,0.6,0.7c0,0,0.1,0.1,0.1,0.1l2.4-0.3C40.2,7,43,7.5,43.8,9.6c0.8,2.1,1.2,2.5,3.6,3.1
		C49.9,13.4,51.2,13.4,53.4,13.1z"/>
	<path fill-rule="evenodd" clip-rule="evenodd" fill="#2B6DB6" d="M56,12.7c-0.3-3.6-1.7-6.3-3.7-8.3c-2.2-2.3-5.1-3.9-9.1-4.4
		c0,0,0,0,0,0c-0.4,0-0.9,0-1.3,0c-2.4,0.3-4.3,1.2-5.9,2.3c-0.2,0.2-0.5,0.5-0.7,0.5c0,0,0,0,0,0c0.1,0.2,0.3,0.4,0.5,0.6
		c0.5,0.3,0.4,1.1,0.4,1.6c0,0.5-0.2,1.1-0.5,1.4c-0.1,0.1-0.1,0.1-0.2,0.1l1.9-0.3C40.2,7,43,7.5,43.8,9.6c0.8,2.1,1.2,2.5,3.6,3.1
		c2.5,0.7,3.8,0.7,6,0.4c1.8-0.2,2,0.3,2.6,0.5C56.1,13.3,56.1,13,56,12.7z"/>
	<path fill-rule="evenodd" clip-rule="evenodd" d="M48,53.1c0,0,0.2-0.5-0.2-0.9c0.7-0.1,1.1-0.1,1.1-0.1l-0.4-0.5
		c0,0-1.4-0.5-2.9-0.5c-1.5,0-3.9,0.3-3.9,0.3s-1-0.3-1.5-0.5c-0.5-0.3-1.1-0.9-1.4-1.9c-0.3-1-0.7-0.8-0.7-1.9
		c0-1.1,1.3-2.5,2.1-3.9c0.4-0.7,1.6-1.5,2.7-2.2c-1.9,0.5-9.7,1.4-11.9,1.4c-0.9,0-2.1,0.2-3.1,0.5c0.1,0,0.1,0,0.2,0
		c0.8,1.2-0.4,2.4-0.7,3.4c-0.4,1.2,0.4,2,1,2.5c0.4,0.4,0.9,0.5,1.4,0.8c0.2,0.2,0.5,0.4,0.7,0.6c0.7,0.6,1.5,1.4,2.3,1.8
		c0.5,0.3,1.1,0.5,1.7,0.8c1.4,0.7,2,1,3,1.5c0.1,0.2,0,0.6-1,1c-1.4,0.6-3.3,2.4-3.8,3.6c-0.5,1.1,0,1.8,0,1.8s6-2,6.5-2.5
		c0.1-0.1,0.3-0.4,0.6-0.7c0.3-0.1,0.5-0.1,0.8-0.2c0,0,0.1,0,0.1,0v-1c0.8-0.9,1.8-1.7,2.9-1.8C45.7,54.2,48,53.1,48,53.1z
		 M36.5,51.3c-0.5-0.3-0.8-0.4-1.1-0.9c-0.3-0.4-0.7-0.9-1.1-1.2c-0.5-0.4-1.3-0.8-1.6-1.4c-0.4-0.9,0.4-1.5,0.8-2.2
		c0.1-0.2,0.2-0.3,0.3-0.5c0-0.3,0.2-0.5,0.5-0.8c0.1-0.1,0.2-0.3,0.3-0.4c0.2-0.2,0.5-0.4,0.7-0.6c0.1-0.1,0.3-0.3,0.4-0.4
		c0,0,0,0,0,0c-0.2,0.8-0.6,2-0.9,3.1c-0.5,1.8,0.1,1.2,0.6,2.1c0.5,0.9,1.6,1.4,1.9,2.1c0.2,0.6,0.9,1.4,1.2,2
		C37.8,52,37.1,51.7,36.5,51.3z"/>
	<path fill="#ED1C24" d="M37.9,1.9c0,0,0.4,0,0.6-0.1c0.3-0.1,0.5-0.4,1.4-0.4c0.9,0.1,1.2,0,1.6,0.3C41.9,2.1,42,2.3,42,2.6
		s0,0.5-0.1,0.9c-0.2,0.4-0.4,0.9-1.4,1.2c-1,0.3-2.2,0.1-2.4-0.5c-0.3-0.6-0.1-1.2-0.3-1.4C37.6,2.5,37.7,2,37.9,1.9z"/>
	<ellipse fill-rule="evenodd" clip-rule="evenodd" cx="39.9" cy="3.1" rx="1.4" ry="1"/>
</g>
</svg>
