<?xml version="1.0" encoding="utf-8"?>
<!-- Generator: Adobe Illustrator 18.1.1, SVG Export Plug-In . SVG Version: 6.00 Build 0)  -->
<svg version="1.1" id="Layer_1" xmlns="http://www.w3.org/2000/svg" xmlns:xlink="http://www.w3.org/1999/xlink" x="0px" y="0px"
	 viewBox="0 0 289.6 126.3" enable-background="new 0 0 289.6 126.3" xml:space="preserve">
<g>
	<path fill="#968F76" d="M59.5,47.7c0,0-7.2,17-9.3,23.3c-2.2,6.3-2.8,8.3-2.8,8.3s-2.7,2.8-3-0.8s0-4.8,0-4.8s2-4.7,2-6.5
		c0-1.8,0.7-4.7,0.8-5.3c0.2-0.7,3.5-4.3,3.7-5.7c0.2-1.3,1-3.7,1-3.7l1-2.8l1.8-2C54.7,47.7,61.5,42.9,59.5,47.7z"/>
	<path fill="#968F76" d="M49.3,49.3c0,0-6.8,14.3-8.9,19.6c-2.1,5.3-2.8,7-2.8,7s-2.4,2.3-2.5-0.8C34.9,72,35.2,71,35.2,71
		s1.9-3.9,2-5.5c0.1-1.6,0.8-4,0.9-4.5c0.2-0.6,3.2-3.6,3.4-4.7c0.2-1.1,1-3.1,1-3.1l1-2.4l1.6-1.6C45.1,49.1,51.1,45.4,49.3,49.3z"
		/>
	<path fill="#968F76" d="M38.7,50.9c0,0-7.3,11.2-9.6,15.5C26.7,70.6,26,72,26,72s-2.3,1.7-2-1c0.2-2.7,0.6-3.5,0.6-3.5
		s2-3.1,2.3-4.4c0.2-1.3,1.1-3.2,1.3-3.7c0.2-0.5,3-2.6,3.3-3.6c0.3-0.9,1.2-2.5,1.2-2.5l1.1-1.9l1.6-1.2
		C35.3,50.3,40.7,47.7,38.7,50.9z"/>
	<path fill="#968F76" d="M29.1,51.9c0,0-7.3,8.6-9.6,11.9c-2.4,3.3-3.1,4.3-3.1,4.3s-2.3,1.3-2-0.8c0.2-2,0.6-2.6,0.6-2.6
		s2-2.4,2.3-3.4c0.2-1,1.1-2.5,1.3-2.8c0.2-0.3,3-2,3.3-2.7c0.3-0.7,1.2-1.9,1.2-1.9l1.1-1.5l1.6-0.9C25.7,51.5,31.1,49.5,29.1,51.9
		z"/>
	<path fill="#968F76" d="M71.7,44c0,0-2.7,3.3-2.7,6.5s-1,5.7-1,6.7s-0.5,1.4-1.5,5.8c-1,4.4-1.5,6.5-1.5,8s-2.3,7-2.3,7.7
		c0,0.7-0.7,1.7-0.7,1.7s-2.1-0.7-2.1-1.7c0-1,0.8-11,2-17.3c1.2-6.3,1.8-5.5,1.8-7.7s2.1-5.7,2.1-5.7v-2.4
		C65.8,45.6,74.2,38.9,71.7,44z"/>
	<path fill="#968F76" d="M82.2,43.2c0,0-1.3,4.3-1.3,7.8s-1,9.4-1,12c0,2.5-2.2,5.5-2.2,7.9s0,9.5,0,9.5s-2.8-0.3-2.8-1.5
		s-1.8-7-1.8-8.5s0.8-9.7,0.8-10.8s1-3.8,1.2-9c0.2-5.2,2.6-6.7,2.6-6.7S81.5,38.5,82.2,43.2z"/>
	<path fill="#968F76" d="M92.4,39.2c0,0,0,8.8,0,11.5c0,2.7,1.3,6.4,1.3,12.3c0,5.9-0.2,7.9,0,10c0.2,2.2,0,7.4,0,7.4l-2.1,1.5
		c0,0-2.7-4.5-3.4-12.8c-0.6-8.3-0.4-3.8,0-13.8c0.4-10-1.2-10-0.4-10.7c0.8-0.7,0.8-3.2,0.8-3.2S90.1,35,92.4,39.2z"/>
	<path fill="#968F76" d="M102.5,37.7c0,0,3.2,10.1,3.2,11.8s1.5,9.1,1.7,10.3c0.2,1.2,0,7.7,1.2,11c1.2,3.3,1.5,5.1,1.5,6
		c0,0.8-0.3,2.9-0.3,2.9s-4.3-1.3-5-2.9c-0.7-1.7-2.5-5-2.2-7.3c0.3-2.3-1.3-10.2-1.3-11.3s-1-8.5-1-10s-1.3-6.9-1.3-6.9
		S98.9,33.8,102.5,37.7z"/>
	<path fill="#968F76" d="M112.5,34.8c0,0,4,11.7,4.3,13.2c0.3,1.5,4.5,11.4,4.5,11.7c0,0.3,1.7,4.5,2,5.8c0.3,1.3,1.8,3.6,2,4.4
		c0.2,0.8,0,5.4-0.1,5.4c-0.2,0-0.9,2.5-4.3-4.3c-4.2-8.2-6.1-12.2-6.6-16.7s-1.5-7.2-2.7-10c-1.2-2.8-2-6.7-2-7.7
		C109.7,35.5,110,31.7,112.5,34.8z"/>
	<path fill="#968F76" d="M122.2,32.2c0,0,6.4,12.8,6.7,15.8c0.3,3,5.6,10.9,5.8,12.8c0.2,1.9,3.8,5.5,3.8,6.9s4.8,7.8,5,9.5
		c0.2,1.7,2.5,4.7,2.5,4.7s1.7,6.2-5-2.7c-6.7-8.8-10-14-10-15.5s-1.7-6-3.5-9.5c-1.8-3.5-3.3-8.2-3.8-9.7s-3.3-7.3-3.5-7.9
		C120,36,116.9,26.8,122.2,32.2z"/>
	<path fill="#968F76" d="M131.9,30.5c0,0,5.2,9.5,5.2,10.7c0,1.2,7.7,10.6,7.8,11.4c0.2,0.8,5.3,8.8,7.5,12.2c2.2,3.3,4.8,9,5,9.7
		c0.2,0.7,5.5,14-3.7,1.2c-9.2-12.8-11-18.4-12.3-19.8c-1.3-1.4-6-10.9-6.7-11.9s-4-9.3-4.7-11.2C129.4,31,129.2,28.2,131.9,30.5z"
		/>
	<path fill="#968F76" d="M140.7,27.3c0,0,0.1,0.2,0.3,0.5c2,3.1,12.4,19.1,15.8,24.5c3.8,6,3,7.2,9.6,12.2c6.6,5,7.3,6.8,9.6,10.5
		c2.3,3.7,3,8.7-3.5,2.2S158,61.8,157,60.8c-1-1-6.7-10.6-9.2-14.1s-6.7-7.7-7.2-10.1c-0.5-2.4-3.2-4.9-3.2-6.1
		S135.2,26.5,140.7,27.3z"/>
	<path fill="#968F76" d="M149.9,26.5c0,0,15.3,18.3,16.6,21.2c1.3,2.8,8.6,10.3,10.4,13.3c1.8,3,5.8,7.2,9.2,10.3
		c3.3,3.2,7.3,5.3,7.8,6s4,8.2,0,4.5s-19.4-17.3-21.1-19.2c-1.6-1.8-11.2-13.3-13.8-16.5c-2.5-3.2-7-10-8-11.5
		S143.5,23.3,149.9,26.5z"/>
	<path fill="#968F76" d="M157.4,25.9"/>
	<path fill="#968F76" d="M158.4,25.9c0,0,3.8,5.4,10.4,12.3c6.7,6.9,15,17,15.8,17.2c0.8,0.2,9.3,9,12.4,11.2
		c3.1,2.2,7.6,5.5,11,8.1c3.4,2.6,8.6,8.6,0.8,4.6c-7.8-4-20.4-15.1-23.1-18c-2.7-2.9-12.9-13.3-16.4-17.1
		c-3.5-3.8-10.9-11.9-11.8-13.7C156.4,28.8,154.2,23.4,158.4,25.9z"/>
	<path fill="#968F76" d="M167.8,24.4c0,0,15.3,16.6,17.2,19.4c2,2.9,12.8,11.1,15.3,13.4c2.5,2.4,9.8,8.1,14.5,11.1
		c4.7,3,14.2,9,15.3,9.8c1,0.8,5.3,6.5-5.5,0.8c-10.8-5.7-24.5-17.6-29.6-21.7c-5.1-4-13.4-11.9-18.1-16.2
		c-4.7-4.3-10-11.9-11.1-12.9C164.6,27.1,162.8,21.5,167.8,24.4z"/>
	<path fill="#968F76" d="M177.2,25.2c0,0,24.8,22.1,26.7,23.9c2,1.8,8.2,5.3,10.7,7.6c2.5,2.2,10.8,8.9,10.8,8.9s17.2,9.5,21.5,11.6
		c4.3,2.1,5.6,4-4.6,0.9c-10.2-3.1-17.2-9-21-11.2c-3.8-2.2-7.8-4.3-10.7-5.9c-2.9-1.6-5.9-5.1-9.8-8.5c-3.9-3.5-8.2-9.7-12.5-12.6
		c-4.3-3-10.6-8.7-12.1-10.2C174.7,28.1,170.9,21.9,177.2,25.2z"/>
	<path fill="#968F76" d="M185.3,24.3c0,0,19.4,16.3,21.4,17.6c2,1.3,12.9,9.8,13.7,10.2c0.8,0.4,12.9,8.9,15,11.2
		c2.1,2.3,15,9.1,16.4,9.4c1.4,0.3,9.9,7.3,0.8,3.7c-9.1-3.7-20.6-11.3-23.5-13c-2.9-1.7-14.4-8.4-17.2-11.2
		c-2.8-2.9-9.1-5.9-12.5-9.3c-3.4-3.4-12.5-11.2-13.6-12.4C184.9,29.2,180.2,22.4,185.3,24.3z"/>
	<path fill="#968F76" d="M193.5,24.3c0,0,13.2,10.4,18.5,13.9c5.3,3.5,14.7,8.9,17.9,11.9c3.3,3,10.7,8.3,16.8,11.3
		c6.1,3,8.2,5.5,14.7,8.1c6.5,2.6,10.8,6.8-1.6,2.1c-12.4-4.7-22.7-11.7-25.4-13.6c-2.7-1.8-13-10.8-16.2-11.9c-3.1-1-10.6-6-12.5-8
		c-2-2-8.4-5.7-10-7.4C194.3,29.1,186.4,19.9,193.5,24.3z"/>
	<path fill="#968F76" d="M201.7,23.9c0,0,15,11.4,22.2,15.9c7.2,4.5,21.7,14.4,30,18.7c8.3,4.3,10.8,6.8,18.1,9.3
		c7.3,2.5,8.3,2.5,10.8,3.7c2.5,1.2,6.1,6.9-11.5-1.3c-17.6-8.2-28.8-13.7-32-15.8c-3.1-2.1-14.2-10-15.8-10.8
		c-1.6-0.8-11.6-8.1-15.1-10.7c-3.5-2.6-6.9-4.6-8.1-5.7C199.2,26.2,197.7,20.9,201.7,23.9z"/>
	<path fill="#968F76" d="M209.8,23.1c0,0,11.2,10.7,18,13.4c6.8,2.7,13.8,9,20.9,12.3c7,3.3,8.1,5.2,14.6,8
		c6.5,2.7,11.2,4.8,16.2,6.8c5,2,7.8,3,9.1,3.4c1.3,0.4,3,2.6-6.7,0c-9.7-2.6-22-9.1-26.6-11.3c-4.6-2.2-14.7-7-18-9
		c-3.3-2-8.9-4.8-11.1-6.7c-2.2-1.9-8-5.7-9.7-7c-1.7-1.3-5.1-3.1-6.8-4.6C208.1,26.8,204.2,21.6,209.8,23.1z"/>
	<path fill="#968F76" d="M217.6,23.5c0,0,11.6,7.9,17,11c5.3,3.1,18.3,10.6,20.5,11.7c2.2,1.2,11,5.6,17.2,8.1c6.3,2.5,9,4.6,10.6,5
		c1.6,0.4,8.6,5.5,1,3.1c-7.6-2.3-14-4.8-16.7-6.3c-2.7-1.4-13.3-6.8-17-9c-3.7-2.2-8.4-6.9-11.7-7.3c-3.3-0.5-8.9-6.4-10.4-6.9
		c-1.6-0.5-7-3.3-8.9-4.7C217.3,26.8,212.9,21.7,217.6,23.5z"/>
	<path fill="#968F76" d="M226.2,23.1c0,0,13,10.1,17.9,12c4.8,2,10.4,6.1,16.2,8.6c5.7,2.5,10.4,4.2,14.6,5.7s5.3,3.5,8.7,4.8
		c3.4,1.3,8,5.2,0,1.8c-8-3.4-17.6-6.5-20.6-8.5c-3-2-16.7-7.4-19-9.4c-2.3-2-11.6-7.3-13.6-8.5C228.4,28.7,220.9,21,226.2,23.1z"/>
	<path fill="#968F76" d="M234.2,23.1c0,0,7.4,5,10.6,7.1c3.1,2.1,12.8,7.2,17.7,8.9c5,1.7,7.3,4.5,12.7,6.4
		c5.3,1.8,10.6,6.9,4.2,3.9s-16.2-7-18.1-7.8c-2-0.8-7.5-5-11-5.9c-3.5-0.9-10.5-5.9-12-7C236.8,27.5,227.9,21.4,234.2,23.1z"/>
	<path fill="#968F76" d="M241,23.1c0,0,10,5.4,12.8,7.3c2.7,2,6.7,2.6,10,4.4c3.4,1.8,8.2,3.7,9,3.9c0.8,0.3,11.9,7.8,3.4,4.3
		c-8.5-3.5-14.7-5.6-17-6.5c-2.2-0.9-10-6.2-11-6.6c-1-0.4-6.5-4.1-7.3-4.7S238.1,22.7,241,23.1z"/>
	<path fill="#968F76" d="M272.5,36.6c2.5,1.7,11,1.5,1.7-1.9c-9.3-3.4-14.4-5.9-16.3-6.3s-7.3-3.2-7.7-3.2c-0.5,0-7-3.9-2.8,0
		c4.2,3.9,10.7,5.2,13.2,7.2C263,34.5,272.5,36.6,272.5,36.6z"/>
	<path fill="#968F76" d="M256.2,23.5c0,0,7.6,4.1,11.6,5.1s9.3,3.5,9.7,3.5s-0.5,1-5.7-0.8c-5.2-1.8-12.8-5.6-14.1-5.5
		C256.4,25.9,254.1,22.4,256.2,23.5z"/>
	<path fill="#968F76" d="M170.2,4.9c0,0-1.3-1-3.8,0c-2.4,1-1.8,1.3-2.4,1.8c-0.6,0.5-1.8,2.8-1.8,3.6s1.6,1,1.6,1l-1.6,1.1
		c0,0-1,1.7,0,2c1,0.4,1.1,0.5,1.1,1.3c0,0.8-0.5,2.3,0,2.4c0.5,0.1,1.3-0.1,1.7,0c0.4,0.1,1.5,0,1.5,0l1,0h1.3h2l0.6,0.9h1.3v2.4
		c0,0,1.8,1.2,1.8,0c0-1.2,0.8-1.3,0.8-1.3s0.5-0.2,1.7,0.4c1.2,0.6,1.4,1.9,1.2,3.7c-0.2,1.8-0.6,2.4-0.6,2.4l2,2
		c0,0,0.8-1.8,0.6-3.5c-0.2-1.7,0.2-1,0-2.4c-0.2-1.5,0-2.1,0-2.1l1.4-0.6l2.6,0.2c0,0,1.2,1.1,1.8,0.2c0.6-0.8,0.8-1,0.8-1.7
		c0-0.7,2.1-1.1,2.5-1.2c0,0,0.1,0,0.1,0s1.6,0.2,2-0.4c0.5-0.6,2-0.7,2-0.7h1.1c0,0,0.4,1.2,1,1.2c0.7,0,2.2,0.8,2.3,0
		c0.1-0.8,0.5-2.2,0.5-2.2h1.3c0,0-0.5-1.3,0.7-2c1.2-0.7,1.6-1.7,1.1-2.3c-0.5-0.6-1.9-3.2-2.6-3.4c-0.7-0.1-1.7-1.2-1.7-1.6
		c0-0.4,0.1-2.2-0.6-1.9c-0.7,0.3-3.5-1.1-3.5-1.1s0-2-1.4-1.6c-1.4,0.5-2.3,0.3-2.3-0.1c0-0.4-1.6-2.4-3.1-1.5
		c-1.6,1-2,0.4-3.5,0.4c-1.5,0-4.6-1.3-6,0c-1.3,1.3-2.7,2-3.3,2.2c-0.6,0.1-1.2-0.1-1.2,0.7C172.5,4.3,170.2,4.9,170.2,4.9z"/>
</g>
<g>
	<path fill="#FFFFFF" d="M1.9,80.7c0,0,32-10.9,37-15.1c5-4.2,23.9-4.3,31,0.2s17.3-0.3,22.1,1.8c4.8,2.1,10.4,9.5,10.4,9.5
		S-16.3,114.4,1.9,80.7z"/>
	<path d="M57,106.8c-0.2,0-0.3,0-0.5,0.1c-0.1,0.1-0.2,0.2-0.2,0.3c0,0.1,0.1,0.2,0.2,0.3c0.1,0.1,0.3,0.1,0.5,0.1h45.4h45.4
		c0.2,0,0.3,0,0.5-0.1c0.1-0.1,0.2-0.2,0.2-0.3c0-0.1-0.1-0.2-0.2-0.3c-0.1-0.1-0.3-0.1-0.5-0.1h-45.4H57L57,106.8z"/>
	<g>
		<g>
			<path d="M16.2,80c-0.3,0-0.6,0-0.9,0L15,80l-0.2,0c-0.2,0-0.5,0-0.7,0C12.4,80,11,78.7,11,77c0-0.6,0.2-1.2,0.5-1.6
				c-1.1-0.5-1.9-1.6-1.9-2.9c0-0.6,0.3-1.6,0.3-1.6c0.4-1.6,1.8-2.4,3-2.4h0.6l0.3,0.1c0,0,3,0,3,0c0.1,0,0.4-0.1,0.7-0.1
				c1.5,0,3.1,1.2,3.1,3.2c0,0.1,0,1,0,1l0,0.1c-0.1,1.1-0.7,2-1.6,2.5c0.3,0.5,0.5,1.1,0.5,1.7C19.3,78.7,17.9,80,16.2,80z"/>
			<path fill="#FFFFFF" d="M12.8,71.5c0.1,0,0.1,0.1,0.3,0.1c0.2,0,0.5,0,0.7,0h2.9c0.5,0,0.6-0.1,0.7-0.1c0.1,0,0.1,0,0.1,0.2
				c0,0.2,0,0.6,0,0.8c0,0.1,0,0.1-0.1,0.1c-0.1,0-0.1,0-0.1-0.1l0-0.1c0-0.2-0.2-0.4-0.9-0.4l-0.9,0v3c0,0.7,0,1.2,0,1.5
				c0,0.2,0.1,0.4,0.3,0.4c0.1,0,0.3,0,0.4,0c0.1,0,0.1,0,0.1,0.1c0,0.1-0.1,0.1-0.1,0.1c-0.5,0-0.9,0-1.1,0c-0.2,0-0.6,0-0.9,0
				C14,77,14,77,14,77c0,0,0-0.1,0.1-0.1c0.1,0,0.2,0,0.3,0c0.1,0,0.2-0.2,0.2-0.4c0-0.3,0-0.9,0-1.5v-3l-1.1,0
				c-0.4,0-0.6,0.1-0.7,0.2c-0.1,0.1-0.1,0.2-0.1,0.3c0,0.1,0,0.1-0.1,0.1c-0.1,0-0.1,0-0.1-0.1c0-0.1,0.1-0.8,0.2-0.8
				C12.7,71.5,12.7,71.5,12.8,71.5 M12.8,65.5c-2.8,0-5.2,1.9-5.9,4.7c-0.1,0.3-0.3,1.4-0.3,2.3c0,1.5,0.5,2.9,1.5,4
				c0,0.2,0,0.4,0,0.5c0,3.3,2.8,6.1,6.1,6.1c0.2,0,0.5,0,0.8,0l0.2,0l0.1,0c0.3,0,0.6,0,1,0c3.4,0,6.1-2.7,6.1-6.1
				c0-0.3,0-0.6-0.1-0.8c0.6-0.9,1-1.9,1.2-3.1l0-0.3v-0.3c0,0,0-0.2,0-0.3c0-0.2,0-0.5,0-0.6c0-3.4-2.7-6.2-6.1-6.2
				c-0.4,0-0.7,0-0.9,0.1H14C13.6,65.5,13.2,65.5,12.8,65.5L12.8,65.5z"/>
		</g>
		<g>
			<path d="M24.1,80c-0.3,0-0.6,0-0.9,0L23,80l-0.2,0c-0.2,0-0.5,0-0.7,0c-0.3,0-0.5,0-0.8-0.1C21.1,80,20.9,80,20.6,80
				c-0.3,0-0.6,0-0.9,0l-0.3,0l-0.2,0c-0.2,0-0.5,0-0.7,0c-1.8,0-3.1-1.3-3.1-3.1c0-0.7,0.2-1.3,0.6-1.9c0-0.1,0-1.5,0-1.5
				c-0.5-0.5-0.7-1.2-0.7-2c0-1.5,1.2-3.1,3.2-3.1c0.3,0,0.5,0,0.8,0l0.3,0l0.3,0c0.2,0,0.5,0,0.6,0c0.3,0,0.5,0,0.8,0.1
				c0.2-0.1,0.5-0.1,0.8-0.1c0.3,0,0.5,0,0.8,0l0.3,0l0.3,0c0.2,0,0.5,0,0.6,0c2,0,3.2,1.6,3.2,3.1c0,0.7-0.2,1.3-0.6,1.9
				c0,0.1,0,1.4,0,1.4c0.5,0.5,0.8,1.3,0.8,2.1C27.3,78.7,25.9,80,24.1,80z"/>
			<path fill="#FFFFFF" d="M24,71.6c0.1,0,0.2,0,0.2,0.1s0,0.1-0.1,0.1c-0.1,0-0.1,0-0.2,0c-0.2,0-0.3,0.2-0.3,0.4
				c0,0.2,0,0.4,0,1.5v1.3c0,0.7,0,1.2,0,1.5c0,0.2,0.1,0.4,0.3,0.4c0.1,0,0.3,0,0.4,0c0.1,0,0.1,0,0.1,0.1c0,0.1-0.1,0.1-0.1,0.1
				c-0.5,0-0.9,0-1.1,0c-0.2,0-0.6,0-0.9,0C22,77,22,77,22,77c0,0,0-0.1,0.1-0.1c0.1,0,0.2,0,0.3,0c0.1,0,0.2-0.2,0.2-0.4
				c0-0.3,0-0.9,0-1.5v-0.6c0,0,0,0,0,0H20c0,0,0,0,0,0v0.6c0,0.7,0,1.2,0,1.5c0,0.2,0.1,0.4,0.3,0.4c0.1,0,0.3,0,0.4,0
				c0.1,0,0.1,0,0.1,0.1c0,0.1-0.1,0.1-0.1,0.1c-0.5,0-0.9,0-1.1,0c-0.2,0-0.6,0-0.9,0c-0.1,0-0.1,0-0.1-0.1c0,0,0-0.1,0.1-0.1
				c0.1,0,0.2,0,0.3,0c0.1,0,0.2-0.2,0.2-0.4c0-0.3,0-0.9,0-1.5v-1.3c0-1.1,0-1.3,0-1.5c0-0.2-0.1-0.4-0.3-0.4c-0.1,0-0.2,0-0.3,0
				c-0.1,0-0.1,0-0.1-0.1s0.1-0.1,0.2-0.1c0.4,0,0.8,0,1,0c0.2,0,0.6,0,0.9,0c0.1,0,0.2,0,0.2,0.1s0,0.1-0.1,0.1c-0.1,0-0.1,0-0.2,0
				c-0.2,0-0.3,0.2-0.3,0.4c0,0.2,0,0.4,0,1.5v0.2c0,0,0,0.1,0,0.1h2.6c0,0,0,0,0-0.1v-0.2c0-1.1,0-1.3,0-1.5c0-0.2-0.1-0.4-0.3-0.4
				c-0.1,0-0.2,0-0.3,0c-0.1,0-0.1,0-0.1-0.1s0.1-0.1,0.2-0.1c0.4,0,0.8,0,1,0C23.2,71.6,23.7,71.6,24,71.6 M24,65.6
				c-0.2,0-0.5,0-0.7,0l-0.2,0l-0.2,0c-0.3,0-0.6,0-0.9,0c-0.3,0-0.5,0-0.8,0c-0.3,0-0.5,0-0.8,0c-0.2,0-0.5,0-0.7,0l-0.2,0l-0.2,0
				c-0.3,0-0.6,0-0.9,0c-3.4,0-6.2,2.7-6.2,6.1c0,1,0.2,1.9,0.7,2.8c-0.4,0.8-0.6,1.6-0.6,2.6c0,3.3,2.8,6.1,6.1,6.1
				c0.2,0,0.5,0,0.8,0l0.2,0l0.1,0c0.3,0,0.6,0,1,0c0.3,0,0.5,0,0.8,0c0.2,0,0.5,0,0.8,0c0.2,0,0.5,0,0.8,0l0.2,0l0.1,0
				c0.3,0,0.6,0,1,0c3.4,0,6.1-2.7,6.1-6.1c0-1-0.3-2-0.7-2.8c0.3-0.8,0.5-1.6,0.5-2.5C30.1,68.2,27.4,65.6,24,65.6L24,65.6z"/>
		</g>
		<g>
			<path d="M28.6,80.1c-0.7,0-1.3,0-1.7,0c-0.2,0-0.4,0-0.5,0l-0.2,0c-0.2,0-0.5,0-0.7,0c-1.8,0-3.1-1.3-3.1-3.1
				c0-0.7,0.2-1.3,0.6-1.9c0-0.1,0-1.5,0-1.5c-0.5-0.5-0.7-1.2-0.7-2c0-1.5,1.2-3.1,3.2-3.1c0.2,0,0.5,0,0.8,0c0,0,0.4,0,0.5,0
				c0.4,0,1.2,0,1.6,0c0.2,0,0.4-0.1,0.7-0.1h3l0,3.1c0,0.2,0,0.3-0.1,0.6l0,0.2c0,0.2,0,0.5-0.1,0.6c0,0.1-0.1,0.3-0.1,0.4l0,0.4
				c0,0.1,0,0.3,0,0.6c0,0,0,0,0,0c0.3,0.5,0.5,1,0.5,1.7c0,0.4-0.1,1.1-0.2,1.5C31.8,78.2,31.1,80.1,28.6,80.1z"/>
			<path fill="#FFFFFF" d="M28.9,71.5C28.9,71.5,28.9,71.5,28.9,71.5c0,0.1,0,0.2,0,0.5c0,0.1,0,0.4,0,0.5c0,0,0,0.1-0.1,0.1
				c-0.1,0-0.1,0-0.1-0.1c0-0.1,0-0.2,0-0.3c-0.1-0.1-0.1-0.2-0.5-0.3c-0.1,0-0.6,0-0.9,0c-0.1,0-0.4,0-0.4,0c0,0-0.1,0-0.1,0.1v1.8
				c0,0.1,0,0.1,0.1,0.1c0,0,0.2,0,0.2,0c0.3,0,0.9,0,1.1,0c0.2,0,0.3,0,0.3-0.1c0-0.1,0.1-0.1,0.1-0.1c0,0,0.1,0,0.1,0.1
				c0,0,0,0.2-0.1,0.5c0,0.1,0,0.4,0,0.5c0,0.1,0,0.1-0.1,0.1c-0.1,0-0.1,0-0.1-0.1c0-0.1,0-0.2,0-0.3c0-0.1-0.1-0.3-0.4-0.3
				c-0.1,0-0.7,0-0.9,0c0,0-0.2,0-0.2,0c0,0,0,0,0,0.1v0.6c0,0.2,0,0.9,0,1.1c0,0.5,0.1,0.6,0.9,0.6c0,0,0.3,0,0.3,0
				c0.2,0,0.4,0,0.6-0.1c0.2-0.1,0.3-0.2,0.3-0.5c0-0.1,0-0.1,0.1-0.1c0.1,0,0.1,0.1,0.1,0.1c0,0.2-0.1,0.7-0.1,0.8
				c-0.1,0.2-0.1,0.2-0.4,0.2c-1.1,0-1.8,0-2.3,0c-0.2,0-0.6,0-0.9,0c-0.1,0-0.1,0-0.1-0.1c0,0,0-0.1,0.1-0.1c0.1,0,0.2,0,0.3,0
				c0.1,0,0.2-0.2,0.2-0.4c0-0.3,0-0.9,0-1.5v-1.3c0-1.1,0-1.3,0-1.5c0-0.2-0.1-0.4-0.3-0.4c-0.1,0-0.2,0-0.3,0
				c-0.1,0-0.1,0-0.1-0.1s0.1-0.1,0.2-0.1c0.4,0,0.8,0,1,0c0.2,0,1.9,0,2.1,0c0.1,0,0.3,0,0.3,0C28.8,71.5,28.9,71.5,28.9,71.5
				 M28.9,65.5c-0.3,0-0.6,0-1,0.1c-0.4,0-1,0-1.3,0c-0.1,0-0.2,0-0.2,0l-0.2,0c-0.3,0-0.6,0-0.8,0c-3.5,0-6.2,2.7-6.2,6.1
				c0,1,0.2,1.9,0.7,2.8c-0.4,0.8-0.6,1.6-0.6,2.6c0,3.3,2.8,6.1,6.1,6.1c0.2,0,0.5,0,0.8,0l0.2,0c0.1,0,0.3,0,0.4,0
				c0.5,0,1.1,0,1.8,0c3.6,0,5.6-2.5,6.2-4.6l0-0.1l0-0.1c0.2-0.7,0.3-1.7,0.3-2.2c0-0.8-0.1-1.6-0.4-2.2c0,0,0-0.1,0-0.1l0-0.1
				l0-0.1c0.1-0.3,0.1-0.6,0.1-0.9l0,0l0,0c0-0.3,0.1-0.6,0.1-1C34.9,68.2,32.2,65.5,28.9,65.5L28.9,65.5z"/>
		</g>
		<g>
			<path d="M29.8,113.3c-12.7,0-18.5-8.8-18.6-16.9c0-4.6,1.8-9.1,5-12.3c3.3-3.3,7.9-5.1,13.1-5.1c1.3,0,2.5,0.1,3.5,0.3
				c-1.4-1.9-2.1-4.3-2.1-6.8c0-10.1,9.8-16.1,19.3-16.1c7.4,0,14.1,3.3,18.5,5.5c0.4,0.2,0.7,0.3,1,0.5c3.3-2.3,7.1-3.5,10.9-3.5
				c3.1,0,5.6,0.6,7.5,1.9c2,1.4,3.1,3.4,3.1,5.6c0,3.9-3.7,8-10.5,8c-3.6,0-7.7-1.6-10.4-2.8c-1.4,1.7-2.9,4-4.2,6.4
				c0.5-0.2,1.1-0.3,1.7-0.3c1.8,0,3.4,1.1,3.9,2.8c0.4,1.2,0.1,2.5-0.6,3.5c0,0,0,0,0,0c1.2,0,2.2,0.2,3,0.5l0.3-0.4h8.9l0,0h1.2
				c-0.1-0.4-0.2-0.8-0.2-1.2c0-2.7,2.2-4.8,4.8-4.8s4.8,2.2,4.8,4.8c0,0.4-0.1,0.8-0.2,1.2H94l6.8,0c0.6-0.2,1.2-0.3,1.8-0.3
				c1.5,0,2.7,0.5,3.7,1.3l0.6-1l8.1,0c0.4-0.1,0.7-0.1,1-0.1c0.4,0,0.7,0,1,0.1l0.7,0l-0.1,0.1c0.8,0.2,1.5,0.6,1.9,1
				c1.2-0.7,2.6-1.1,4.2-1.1c3,0,5.1,1.7,5.5,4.4c2.2-2.6,4.7-4.1,7.4-4.6l-4.8-4.7l38.6-0.1c1.5-2.2,4.1-5,7.1-5c0,0,0.2,0,0.2,0
				c1.2,0,2.3,0.6,2.8,1.7c0.3,0.6,0.7,1.8-0.3,3.3l5.7,0v6.6l-10.3,0.3c-1.1,1.6-3.1,4.4-4.8,7.2c-1.4,2.1-2.5,3.8-3,4.9l-0.3,0.6
				c-1.7,3-2.6,5-2.6,6l0.2,0.1c0.8,0.4,2.3,1.1,2.7,2.9c0.2,1-0.1,2-0.8,2.8l-0.1,0.1l-0.1,0.1c-1,1-2.5,1.6-4.1,1.6
				c-4,0-5.6-2.1-6.3-3.4c-0.7-1.5-0.8-3.2-0.5-5c-0.1,0-0.3,0-0.5,0c-3,0-5.3-1.9-5.7-4.6c-1.2,1.8-2.1,3.1-2.1,3.1l-0.9,1.3
				l-10.6,0l0.5-0.7c-1.4,0.7-2.8,1.2-4.1,1.2c-2.2,0-4.1-0.9-5.4-2.6c0,0,0,0,0,0c-1.7,1.3-3.6,2.3-5.7,2.3c-2.6,0-4.8-1.7-5.4-4.1
				c-0.3,0.5-0.8,1.2-1.8,2.8l-0.9,1.3l-19.4,0l6.2-9.3c-0.5-0.3-0.9-0.6-1.3-1c-1.4,1.4-3.2,3.5-5.1,6.3c-1.1,1.6-1.8,2.7-1.8,2.7
				l-0.9,1.3l-7.9,0c-0.3,0.1-0.6,0.1-0.9,0.1c-0.3,0-0.6,0-1-0.1h-0.9l0.1-0.2c-0.8-0.3-1.6-0.8-2.2-1.4c-1.3,0.9-2.9,1.7-4.6,1.7
				c-1.6,0-3-0.6-4.1-1.7c-1.4,1-3,1.7-4.9,1.7c-2.5,0-4-1.1-4.8-2c-1-1.1-1.5-2.7-1.5-4.4c0-2.1,0.8-4.6,2.3-6.9
				c-0.1-0.1-0.2-0.3-0.3-0.4C58,95,55,100.2,50.4,104.5C45.7,108.8,39.6,113.3,29.8,113.3z M23.4,104.5c1.5,1.3,3.3,1.7,4.5,1.9
				C26,106,24.5,105.3,23.4,104.5z M25.8,88.4c1.8,0,2.7,1.1,2.9,1.6c0.9,1.6,0.1,3-0.2,3.6c-0.4,0.6-1,1.7-1,4
				c0,0.8,0.1,1.4,0.4,1.7c0.3,0.3,0.9,0.4,1.7,0.4c2.1,0,5.2-2.2,5.2-6.9c0-4.4-1.9-7-5.3-7c-2.1,0-4.8,1.1-6.7,3.5
				C23.7,88.7,24.7,88.4,25.8,88.4z M43.6,91.6c0,0.2,0,0.5,0,0.7c0,0.3,0,0.5,0,0.8c0.3-0.4,0.5-0.7,0.8-1.1
				C44.1,92,43.8,91.8,43.6,91.6z M162.6,86.1c0.6,0.8,0.9,1.9,0.9,3.1c0.6-0.8,1.2-1.7,1.9-2.6c0.1-0.2,0.2-0.3,0.3-0.5
				C164.8,86,163.7,86.1,162.6,86.1z M144.8,88.6c0.7-0.2,2-1.2,2.7-2.2c-1.4,0-2.7,0.1-3.7,0.1c0.4,0.6,0.7,1.3,0.9,2
				C144.8,88.5,144.8,88.6,144.8,88.6z M41.3,84.5c0.2,0.3,0.4,0.6,0.6,0.9c0.1-0.3,0.2-0.5,0.3-0.8C41.9,84.6,41.6,84.6,41.3,84.5z
				 M48.6,63.3c-4.6,0-7.1,3.5-8,5c-1.6,2.8-2,6.1-1,7.9c0.3,0.6,1,1.4,2.9,1.4c0,0,0,0,0,0c3.3,0,5.8-2.7,6.1-3.6
				c0-0.8,0.3-1.5,0.9-2.1c0.6-0.6,1.4-1,2.3-1c0.7,0,1.4,0.2,2,0.6l0.1,0.1l0.1,0.1c1,0.8,1.4,1.9,1.5,2.8c2-2.6,4-4.8,5.8-6
				c0.3-0.2,0.7-0.5,1-0.6C58,65.6,53.1,63.3,48.6,63.3z M77.9,66.1c1.1,0.3,2.2,0.6,3.2,0.6c1.1,0,1.8-0.2,2.2-0.4
				c-0.4-0.3-1.3-0.6-2.9-0.6C79.6,65.7,78.7,65.8,77.9,66.1z"/>
			<path fill="#FFFFFF" d="M50,59.3c8.3,0,16.1,4.8,19.9,6.4c3.1-2.5,6.7-3.9,10.6-3.9c0,0,0,0,0.1,0c10.7,0,9.4,9.5,0,9.5
				c-4,0-9.4-2.7-11.1-3.4c-3.8,3.4-7.9,11.8-9.6,15.9c0.5,0.1,1.4,0.3,2.1,0.3c2.5,0,3.5-3.5,5.8-3.5c1.1,0,1.6,1.2,0.5,1.9
				c-2.5,1.7-3.7,2.4-4.5,3.8c-0.5,1.1-0.3,1.7-0.6,1.7c-0.7,0-0.5-2.1-0.3-2.9c-0.2,0-0.4,0.1-0.7,0.1c-0.9,0-2.1-0.2-2.8-0.3
				c-2.7,6.2-5.9,12.5-11.1,17.3c-4.7,4.4-10.1,8-18.6,8c-10.5,0-15.5-6.9-15.6-14c0-7.1,5.2-14.3,15.1-14.3
				c7.9,0,11.3,5.1,11.3,10.4c-0.1,5.5-4,11.2-10.4,11.2c-10,0-9-12.1-4.4-12.1c1.3,0-1.3,1-1.3,6.2c0,2.5,0.9,5.1,5.1,5.1
				c3.7,0,8.2-3.4,8.2-9.9c0-6.9-3.9-10-8.3-10c-5.7,0-12.1,5.1-12.1,13.8c0,9.1,5.9,12.8,11.6,12.8c10.4,0,19.9-8.8,27-23
				c5.2-10.4,8.9-15.4,12.2-19c-5.3-2.4-12.7-7-19.7-7c-12.7,0-17.5,20.3-6,20.3c0,0,0,0,0,0c5,0,9.1-4.4,9.1-6.5
				c0-0.1,0.1-0.2,0.2-0.2c0.1,0,0.2,0,0.2,0.1c0.3,0.3,0.5,1,0.5,1.4c0,0.7-1.1,6.3-9,6.3c-5.3,0-10-3.7-10-9.3
				C33.7,65.7,40,59.3,50,59.3 M81.1,69.6c7.5,0,7.2-7-0.7-7c-3.3,0-6.7,1.6-9.2,3.8C73.5,67.4,77.3,69.6,81.1,69.6 M64.1,70.3
				c0.1,0,0,0.3-0.4,0.8c-0.9,1.3-2.3,3.3-3.8,5.7c-2.4,3.9-4.9,9.1-7.9,14.4c-3,4.8-6.3,8.7-9.7,11.6c-3.1,2.6-6.3,4.2-8.2,4.6
				c-0.1,0-0.2,0-0.3,0c-0.5,0-0.3-0.5,0.9-0.9c6.3-2.8,15.9-17.8,17.8-22c-1.1,0-6.3,0.2-6.3,5c-0.8,0-1.7-1-1.6-2.2
				c0-1.9,2-3.9,8.6-3.9c2.8-4.5,7.1-10.6,10-12.6C63.7,70.5,64,70.3,64.1,70.3 M177.8,76.9C177.8,76.9,177.8,76.9,177.8,76.9
				c0.5,0,0.3,0.2,0.1,0.5c-1.1,1.7-3,4.5-3,4.5l8.3,0v0.6l-8.9,0.3c0,0-3,4.3-5.7,8.5c-0.4,0.5-2.2,3.3-3.2,5.1
				c-1.6,2.8-5.6,9.3-1.6,10.8c0.5,0.2,1.5,0.7,1.1,1c-0.5,0.5-1.3,0.7-2.1,0.7c-7.6,0-2.3-9.9,0.6-13.7c0,0,0,0,0,0c0,0,0,0,0,0
				c-0.9,1-4.3,5.4-7.7,5.4c-1.8,0-2.8-1.1-2.8-2.5c0-4,7.7-10.3,4.6-10.3c-0.5,0-1.3,0.4-2.2,1c-2.8,1.7-4.3,3.7-5.5,5.3
				c-2.3,3.1-4.5,6.4-4.5,6.4l-3.4,0c0,0,6.1-9.3,6.2-9.4c-0.9,0.8-2.4,1.5-3.8,1.5c-0.9,0-1.8-0.3-2.4-1c-0.3,3.6-5.3,9.4-9.3,9.4
				c-3.4,0-4.3-3.4-3.4-6.1c-2.6,3.3-5.2,5.7-7.7,5.7c-1.4,0-2.6-1-2.6-2.8c0-2.9,5.1-7.3,5.1-9.2c0-0.3-0.1-0.7-0.6-0.7
				c-1,0-2.1,0.6-3.3,1.6c-2.6,2.2-3.6,3.9-5.6,7c-0.9,1.3-0.8,1.3-2.7,4l-3.4,0c0,0,6.2-9.4,6.8-10.2c0.5-0.7,1.7-2.5,0.3-2.5
				c-2.1,0-5.8,3.3-8.9,7.4c-1.2,1.7-3.5,5.3-3.5,5.3h-3.4l6.3-9.4c-0.4,0.1-1.8,0.8-3.1,0.8c0,0,0,0,0,0c-1,0-1.9-0.5-1.9-1.9
				c0-1.4,1.3-2.2,1.8-2.4c0,0,0,0,0,0c-3,0.1-7.2,4.1-11.3,10.2c-1.1,1.6-1.8,2.7-1.8,2.7l-3.4,0c0,0,1.5-2.2,3.3-4.9c0,0,0,0,0,0
				c0,0,0,0,0,0c-0.2,0.2-4.5,5-7.1,5c-2.2,0-2.9-2.4-2.5-4.5c0,0-3.1,4.4-6,4.4c-2.2,0-3.1-2.2-2.9-4c0,0,0,0,0,0c0,0,0,0-0.1,0
				c-0.4,0.7-2.9,4.1-5.9,4.1c0,0,0,0,0,0c-7,0-1.8-13.5,6.2-13.5c2.1,0,3.2,0.8,3.2,2.6C74.9,88.7,76,87,76,87h3.4
				c0,0-3.5,5.2-5.2,7.9c-1.2,1.9-2.1,4.6-0.3,4.6c2.9,0,5.7-4.4,7.9-7.8c1.7-2.6,3.1-4.7,3.1-4.7h3.4c0,0-3.2,4.9-5.5,8.3
				c-1.8,2.5-1.6,4.2-0.4,4.2c2.4,0,7.9-5.5,10.7-9.8c1.1-1.6,1.8-2.7,1.8-2.7l3.4,0l-2.4,3.6l0,0c2.5-2.5,5.2-3.9,6.6-3.9
				c3,0,2.7,3.2,1.2,4.2c0.8-0.2,2.4-0.5,3.3-1.8l1.4-2.1l3.5,0l-2.3,3.3l0,0c2.7-2.7,4.9-3.4,6.3-3.4c3.5,0,1.9,3.4,1.9,3.4
				c0,0,0,0,0,0c0,0,0,0,0,0c0.5-0.6,2.9-3.4,5.9-3.4c1.8,0,2.5,0.8,2.5,2.2c0,1.9-1.6,4-3.8,7.6c-0.6,1-1.7,2.6-0.4,2.6
				c3.1,0,8.8-8.3,9-8.5c2-2.6,4.5-4.4,7.6-4.4c1.8,0,2.8,1.4,3.2,2.9c0.6,1.6,1.5,2.3,2.6,2.3c2,0,4.5-2.1,5.5-3.6
				c0.3-0.4,0.5-0.7,0.7-1.1l3.4,0l-2.3,3.5c0.4-0.4,3.4-3.6,6.4-3.6c1.9,0,2.2,1.4,2.2,2.5c0,2.5-2.9,5.6-4,7.9
				c-0.7,1.4-0.6,2.1,0.2,2.1c0.5,0,1.2-0.3,2.1-0.9c3-2,5.8-5.6,9.1-10.3c1.2-1.7,2.6-3.7,3.7-5.3c-3.3,0-30.7,0.6-30.7,0.6
				l-1.5-1.5l32.9-0.1c0,0,3-5,5.5-5C177.7,76.9,177.7,76.9,177.8,76.9 M132.1,99.7c1.3,0,3.6-1.9,5.4-4.6c2.1-3.2,3-6.5,1.9-7.3
				c-0.2-0.1-0.3-0.2-0.5-0.2c-1.3,0-3.6,2-5.4,4.7c-2.1,3.2-3.1,6.5-2,7.2C131.7,99.6,131.8,99.7,132.1,99.7 M65.1,99.4
				c3.8,0,11.1-11.5,6.8-11.5C68.5,88,61,99.4,65.1,99.4 M89.2,81c1,0,1.8,0.8,1.8,1.8c0,1-0.8,1.8-1.8,1.8c-1,0-1.8-0.8-1.8-1.8
				C87.4,81.8,88.2,81,89.2,81 M50,53.3c-6.1,0-11.7,1.9-15.8,5.5c-4.1,3.5-6.5,8.5-6.5,13.6c0,1.2,0.1,2.4,0.4,3.5
				c-5.6,0.3-10.4,2.3-14,5.9c-3.7,3.7-5.9,9-5.8,14.4c0,5.3,2,10.2,5.6,13.8c2.8,2.8,7.8,6.1,16,6.1c11,0,17.9-5.1,22.6-9.6
				c1.6-1.5,3.1-3.1,4.4-4.8c0.3,0.6,0.7,1.1,1.1,1.5c1.7,1.9,4.2,3,7,3l0,0l0.1,0c1.8,0,3.3-0.4,4.7-1.1c1.3,0.7,2.7,1.1,4.2,1.1
				c0.4,0,0.7,0,1.1-0.1l6.3,0c0.4,0.1,0.8,0.1,1.2,0.1c0.4,0,0.8,0,1.1-0.1l2.6,0l2.2,0l0,0h1.2l3.2,0l0,0h6.8h3.4h3.2l0,0l2.1,0
				l3.4,0l3.2,0l1.2-1.8c1.5,1.2,3.3,1.8,5.3,1.8c2,0,3.7-0.5,5.3-1.4c1.6,1.2,3.6,1.8,5.8,1.8c1.1,0,2.1-0.2,3.1-0.4l6.2,0l3.4,0
				l3.2,0l1.3-1.9c0.9,0.8,2,1.3,3.2,1.7c0.1,1.3,0.4,2.5,1,3.7c0.7,1.5,3.1,5,8.9,5c2.4,0,4.6-0.9,6.2-2.4l0.2-0.2l0.2-0.2
				c1.3-1.5,1.9-3.5,1.5-5.4c-0.4-1.8-1.3-2.9-2.3-3.7c0.5-1.2,1.3-2.6,1.7-3.2l0.3-0.6c0.3-0.6,1.1-2,2.9-4.7
				c1.4-2.1,2.9-4.3,4-5.9l5.9-0.2l5.8-0.2v-5.8v-0.6v-6l-5.2,0c-0.1-0.8-0.4-1.4-0.6-1.7c-1.1-2-3.1-3.3-5.5-3.3c0,0-0.1,0-0.2,0
				l-0.1,0c-3.6,0-6.6,2.5-8.6,5L139.3,76l-14.7,0l6.7,6.6c-0.4,0.2-0.8,0.5-1.2,0.8c-1.5-1.6-3.7-2.5-6.3-2.5c-0.4,0-0.8,0-1.2,0.1
				l-5.4,0c-0.4,0-0.8-0.1-1.2-0.1c-0.4,0-0.8,0-1.2,0.1l-2.8,0l-2.4,0l0,0l-4.8,0c-0.7-0.2-1.5-0.3-2.3-0.3c-0.7,0-1.5,0.1-2.2,0.3
				l-2.1,0l-1.5,0c-0.8-3.4-3.9-6-7.6-6c3.2-2.1,4.9-5.4,4.9-8.6c0-3.2-1.6-6.2-4.5-8.1c-2.4-1.6-5.4-2.4-9.1-2.4l-0.1,0
				c-3.9,0-7.7,1-11.1,3C64.7,56.6,57.8,53.3,50,53.3L50,53.3z M42.2,74.6c-0.2-0.6-0.2-2.6,1-4.7c0.6-1.1,2.4-3.6,5.4-3.6
				c2.5,0,5.3,0.9,8.2,2.2c-0.3,0.3-0.5,0.6-0.8,0.9l-0.1-0.1l-0.2-0.1C54.6,68.4,53.3,68,52,68c-1.7,0-3.3,0.7-4.5,1.9
				c-0.8,0.9-1.4,2-1.6,3.1c-0.5,0.6-1.8,1.6-3.2,1.7c0,0,0,0,0,0C42.5,74.6,42.3,74.6,42.2,74.6L42.2,74.6z M71.1,75.4
				c0-0.1,0.1-0.1,0.1-0.2c2.7,1.1,6.2,2.1,9.3,2.1c1.2,0,2.3-0.1,3.3-0.3c-1.1,1-1.9,2.4-2.3,4h-2.1H76h-1.1c0-0.5-0.1-1-0.3-1.5
				C74,77.7,72.7,76.2,71.1,75.4L71.1,75.4z M30.7,96c0.1-0.4,0.3-0.7,0.4-1c0.3-0.4,0.5-0.9,0.6-1.3C31.5,94.9,31.1,95.6,30.7,96
				L30.7,96z"/>
		</g>
	</g>
	<g>
		<g>
			<path d="M14.6,72l-1.1,0c-0.4,0-0.6,0.1-0.7,0.2c-0.1,0.1-0.1,0.2-0.1,0.3c0,0.1,0,0.1-0.1,0.1c-0.1,0-0.1,0-0.1-0.1
				c0-0.1,0.1-0.8,0.2-0.8c0-0.1,0-0.1,0.1-0.1c0.1,0,0.1,0.1,0.3,0.1c0.2,0,0.5,0,0.7,0h2.9c0.5,0,0.6-0.1,0.7-0.1
				c0.1,0,0.1,0,0.1,0.2c0,0.2,0,0.6,0,0.8c0,0.1,0,0.1-0.1,0.1c-0.1,0-0.1,0-0.1-0.1l0-0.1c0-0.2-0.2-0.4-0.9-0.4l-0.9,0v3
				c0,0.7,0,1.2,0,1.5c0,0.2,0.1,0.4,0.3,0.4c0.1,0,0.3,0,0.4,0c0.1,0,0.1,0,0.1,0.1c0,0.1-0.1,0.1-0.1,0.1c-0.5,0-0.9,0-1.1,0
				c-0.2,0-0.6,0-0.9,0C14,77,14,77,14,77c0,0,0-0.1,0.1-0.1c0.1,0,0.2,0,0.3,0c0.1,0,0.2-0.2,0.2-0.4c0-0.3,0-0.9,0-1.5V72L14.6,72
				z"/>
		</g>
		<g>
			<path d="M22.5,73.9C22.6,73.9,22.6,73.9,22.5,73.9l0-0.2c0-1.1,0-1.3,0-1.5c0-0.2-0.1-0.4-0.3-0.4c-0.1,0-0.2,0-0.3,0
				c-0.1,0-0.1,0-0.1-0.1c0-0.1,0.1-0.1,0.2-0.1c0.4,0,0.8,0,1,0c0.2,0,0.6,0,0.9,0c0.1,0,0.2,0,0.2,0.1c0,0.1,0,0.1-0.1,0.1
				c-0.1,0-0.1,0-0.2,0c-0.2,0-0.3,0.2-0.3,0.4c0,0.2,0,0.4,0,1.5v1.3c0,0.7,0,1.2,0,1.5c0,0.2,0.1,0.4,0.3,0.4c0.1,0,0.3,0,0.4,0
				c0.1,0,0.1,0,0.1,0.1c0,0.1-0.1,0.1-0.1,0.1c-0.5,0-0.9,0-1.1,0c-0.2,0-0.6,0-0.9,0C22,77,22,77,22,77c0,0,0-0.1,0.1-0.1
				c0.1,0,0.2,0,0.3,0c0.1,0,0.2-0.2,0.2-0.4c0-0.3,0-0.9,0-1.5v-0.6c0,0,0,0,0,0H20c0,0,0,0,0,0v0.6c0,0.7,0,1.2,0,1.5
				c0,0.2,0.1,0.4,0.3,0.4c0.1,0,0.3,0,0.4,0c0.1,0,0.1,0,0.1,0.1c0,0.1-0.1,0.1-0.1,0.1c-0.5,0-0.9,0-1.1,0c-0.2,0-0.6,0-0.9,0
				c-0.1,0-0.1,0-0.1-0.1c0,0,0-0.1,0.1-0.1c0.1,0,0.2,0,0.3,0c0.1,0,0.2-0.2,0.2-0.4c0-0.3,0-0.9,0-1.5v-1.3c0-1.1,0-1.3,0-1.5
				c0-0.2-0.1-0.4-0.3-0.4c-0.1,0-0.2,0-0.3,0c-0.1,0-0.1,0-0.1-0.1c0-0.1,0.1-0.1,0.2-0.1c0.4,0,0.8,0,1,0c0.2,0,0.6,0,0.9,0
				c0.1,0,0.2,0,0.2,0.1c0,0.1,0,0.1-0.1,0.1c-0.1,0-0.1,0-0.2,0c-0.2,0-0.3,0.2-0.3,0.4c0,0.2,0,0.4,0,1.5v0.2c0,0,0,0.1,0,0.1
				H22.5L22.5,73.9z"/>
		</g>
		<g>
			<path d="M25.9,73.7c0-1.1,0-1.3,0-1.5c0-0.2-0.1-0.4-0.3-0.4c-0.1,0-0.2,0-0.3,0c-0.1,0-0.1,0-0.1-0.1c0-0.1,0.1-0.1,0.2-0.1
				c0.4,0,0.8,0,1,0c0.2,0,1.9,0,2.1,0c0.1,0,0.3,0,0.3,0c0,0,0.1,0,0.1,0c0,0,0,0,0,0.1c0,0.1,0,0.1-0.1,0.5c0,0.1,0,0.4,0,0.5
				c0,0,0,0.1-0.1,0.1c-0.1,0-0.1,0-0.1-0.1c0-0.1,0-0.2,0-0.3c-0.1-0.1-0.1-0.2-0.5-0.3c-0.1,0-0.6,0-0.9,0c-0.1,0-0.4,0-0.4,0
				c0,0-0.1,0-0.1,0.1v1.8c0,0.1,0,0.1,0.1,0.1c0,0,0.2,0,0.2,0c0.3,0,0.9,0,1.1,0c0.2,0,0.3,0,0.3-0.1c0-0.1,0.1-0.1,0.1-0.1
				c0,0,0.1,0,0.1,0.1c0,0,0,0.2-0.1,0.5c0,0.1,0,0.4,0,0.5c0,0.1,0,0.1-0.1,0.1c-0.1,0-0.1,0-0.1-0.1c0-0.1,0-0.2,0-0.3
				c0-0.1-0.1-0.3-0.4-0.3c-0.1,0-0.7,0-0.9,0c0,0-0.2,0-0.2,0c0,0,0,0,0,0.1v0.6c0,0.2,0,0.9,0,1.1c0,0.5,0.1,0.6,0.9,0.6
				c0,0,0.3,0,0.3,0c0.2,0,0.4,0,0.6-0.1c0.2-0.1,0.3-0.2,0.3-0.5c0-0.1,0-0.1,0.1-0.1c0.1,0,0.1,0.1,0.1,0.1c0,0.2-0.1,0.7-0.1,0.8
				c-0.1,0.2-0.1,0.2-0.4,0.2c-1.1,0-1.8,0-2.3,0c-0.2,0-0.6,0-0.9,0c-0.1,0-0.1,0-0.1-0.1c0,0,0-0.1,0.1-0.1c0.1,0,0.2,0,0.3,0
				c0.1,0,0.2-0.2,0.2-0.4c0-0.3,0-0.9,0-1.5V73.7L25.9,73.7z"/>
		</g>
		<g>
			<path d="M80.4,62.7c7.9,0,8.2,7,0.7,7c-3.8,0-7.6-2.2-9.9-3.2C73.7,64.3,77.1,62.7,80.4,62.7L80.4,62.7z M80.5,61.8
				c-3.9,0-7.6,1.4-10.6,3.9C66,64.1,58.3,59.3,50,59.3c-10,0-16.3,6.3-16.3,13.1c0,5.6,4.8,9.3,10,9.3c7.8,0,9-5.6,9-6.3
				c0-0.4-0.1-1.1-0.5-1.4c-0.2-0.1-0.5-0.1-0.4,0.1c0,2.1-4.1,6.5-9.1,6.5c-11.5,0.1-6.8-20.3,5.9-20.3c7,0,14.3,4.6,19.7,7
				c-3.4,3.7-7,8.6-12.2,19c-7.2,14.3-16.6,23-27,23c-5.8,0-11.6-3.7-11.6-12.8c0-15.4,20.4-19.6,20.4-3.8c0,6.5-4.5,9.8-8.2,9.9
				c-4.2,0-5.1-2.6-5.1-5.1c0-5.1,2.5-6.2,1.3-6.2c-4.6,0-5.7,12.1,4.4,12.1c6.4,0,10.3-5.7,10.4-11.2C40.6,87.1,37.3,82,29.3,82
				c-9.9,0-15.1,7.2-15.1,14.3c0,7,5.1,14,15.6,14c8.4,0,13.9-3.6,18.6-8c5.2-4.8,8.4-11.2,11.1-17.3c1,0.2,2.9,0.4,3.6,0.2
				c-0.3,0.7-0.4,2.9,0.3,2.9c0.3,0,0.1-0.5,0.6-1.7c0.7-1.5,2-2.1,4.5-3.8c1.1-0.8,0.6-1.9-0.5-1.9c-2.2,0-3.2,3.5-5.8,3.5
				c-0.7,0-1.7-0.2-2.1-0.3c1.7-4.1,5.8-12.5,9.6-15.9c1.7,0.7,7.1,3.4,11.1,3.4C90,71.3,91.2,61.8,80.5,61.8L80.5,61.8z
				 M34.6,106.5c6.3-2.8,15.9-17.8,17.8-22c-1.1,0-6.3,0.2-6.3,5c-0.8,0-1.7-1-1.6-2.2c0-1.9,2-3.9,8.6-3.9
				c2.8-4.5,7.1-10.6,10-12.6c1.2-0.8,1.3-0.7,0.5,0.2c-0.9,1.3-2.3,3.3-3.8,5.7c-2.4,3.9-4.9,9.1-7.9,14.4c-3,4.8-6.3,8.7-9.7,11.6
				c-3.1,2.6-6.3,4.2-8.2,4.6C33.2,107.5,33.3,107,34.6,106.5L34.6,106.5z M133.5,92.3c-2.1,3.2-3.1,6.5-2,7.2
				c1.1,0.8,3.9-1.3,6-4.5c2.1-3.2,3-6.5,1.9-7.3C138.3,87,135.6,89.1,133.5,92.3L133.5,92.3z M89.2,81c-1,0-1.8,0.8-1.8,1.8
				c0,1,0.8,1.8,1.8,1.8c1,0,1.8-0.8,1.8-1.8C91,81.8,90.2,81,89.2,81L89.2,81z M65.1,99.4c3.8,0,11.1-11.5,6.8-11.5
				C68.5,88,61,99.4,65.1,99.4L65.1,99.4z M183.2,81.9v0.6l-8.9,0.3c0,0-3,4.3-5.7,8.5c-0.4,0.5-2.2,3.3-3.2,5.1
				c-1.6,2.8-5.6,9.3-1.6,10.8c0.5,0.2,1.5,0.7,1.1,1c-0.5,0.5-1.3,0.7-2.1,0.7c-7.6,0-2.3-9.9,0.6-13.7c0,0,0,0,0,0
				c-0.9,1-4.3,5.4-7.7,5.4c-1.8,0-2.8-1.1-2.8-2.5c0-4,7.7-10.3,4.6-10.3c-0.5,0-1.3,0.4-2.2,1c-2.8,1.7-4.3,3.7-5.5,5.3
				c-2.3,3.1-4.5,6.4-4.5,6.4l-3.4,0c0,0,6.1-9.3,6.2-9.4c-1.5,1.3-4.7,2.3-6.2,0.4c-0.3,3.6-5.3,9.4-9.3,9.4
				c-3.4,0-4.3-3.4-3.4-6.1c-2.6,3.3-5.2,5.7-7.7,5.7c-1.4,0-2.6-1-2.6-2.8c0-2.9,5.1-7.3,5.1-9.2c0-0.3-0.1-0.7-0.6-0.7
				c-1,0-2.1,0.6-3.3,1.6c-2.6,2.2-3.6,3.9-5.6,7c-0.9,1.3-0.8,1.3-2.7,4l-3.4,0c0,0,6.2-9.4,6.8-10.2c0.5-0.7,1.7-2.5,0.3-2.5
				c-2.1,0-5.8,3.3-8.9,7.4c-1.2,1.7-3.5,5.3-3.5,5.3h-3.4l6.3-9.4c-0.4,0.1-1.9,0.8-3.1,0.8c-1,0-1.9-0.5-1.9-1.9
				c0-1.4,1.3-2.2,1.8-2.4c0,0,0,0,0,0c-3,0.1-7.2,4.1-11.3,10.2c-1.1,1.6-1.8,2.7-1.8,2.7l-3.4,0c0,0,1.5-2.2,3.3-4.9c0,0,0,0,0,0
				c-0.2,0.2-4.5,5-7.1,5c-2.2,0-2.9-2.4-2.5-4.5c0,0-3.1,4.4-6,4.4c-2.2,0-3.1-2.2-2.9-4c0,0,0,0-0.1,0c-0.4,0.7-2.9,4.1-6,4.1
				c-7,0-1.8-13.5,6.2-13.5c2.1,0,3.2,0.8,3.2,2.6C74.9,88.7,76,87,76,87h3.4c0,0-3.5,5.2-5.2,7.9c-1.2,1.9-2.1,4.6-0.3,4.6
				c2.9,0,5.7-4.4,7.9-7.8c1.7-2.6,3.1-4.7,3.1-4.7h3.4c0,0-3.2,4.9-5.5,8.3c-1.8,2.5-1.6,4.2-0.4,4.2c2.4,0,7.9-5.5,10.7-9.8
				c1.1-1.6,1.8-2.7,1.8-2.7l3.4,0l-2.4,3.6l0,0c2.5-2.5,5.2-3.9,6.6-3.9c3,0,2.7,3.2,1.2,4.2c0.8-0.2,2.4-0.5,3.3-1.8l1.4-2.1
				l3.5,0l-2.3,3.3l0,0c2.7-2.7,4.9-3.4,6.3-3.4c3.5,0,1.9,3.4,1.9,3.4c0,0,0,0,0,0c0.5-0.6,2.9-3.4,5.9-3.4c1.8,0,2.5,0.8,2.5,2.2
				c0,1.9-1.6,4-3.8,7.6c-0.6,1-1.7,2.6-0.4,2.6c3.1,0,8.8-8.3,9-8.5c2-2.6,4.5-4.4,7.6-4.4c1.8,0,2.8,1.4,3.2,2.9
				c1.6,4.7,6.6,0.9,8.2-1.4c0.3-0.4,0.5-0.7,0.7-1.1l3.4,0l-2.3,3.5c0.4-0.4,3.4-3.6,6.4-3.6c1.9,0,2.2,1.4,2.2,2.5
				c0,2.5-2.9,5.6-4,7.9c-1.1,2.2-0.2,2.8,2.2,1.2c3-2,5.8-5.6,9.1-10.3c1.2-1.7,2.6-3.7,3.7-5.3c-3.3,0-30.7,0.6-30.7,0.6l-1.5-1.5
				l32.9-0.1c0,0,3-5,5.5-5c0.1,0,0.2,0,0.2,0c0.5,0,0.2,0.2,0,0.5c-1.1,1.7-3,4.5-3,4.5L183.2,81.9L183.2,81.9z"/>
		</g>
	</g>
</g>
<g>
	<path d="M219.2,91.7c-4.4,0-7.9,3.5-7.9,7.9c0,4.3,3.5,7.9,7.9,7.9c4.3,0,7.9-3.5,7.9-7.9C227.1,95.3,223.6,91.7,219.2,91.7z
		 M219.2,104.4c-2.7,0-4.8-2.1-4.8-4.8c0-2.7,2.2-4.8,4.8-4.8c2.7,0,4.8,2.1,4.8,4.8C224,102.3,221.9,104.4,219.2,104.4z"/>
	<path d="M256.5,91.7c-4.3,0-7.9,3.5-7.9,7.9c0,4.3,3.5,7.9,7.9,7.9c4.3,0,7.9-3.5,7.9-7.9C264.4,95.3,260.8,91.7,256.5,91.7z
		 M256.5,104.4c-2.7,0-4.8-2.1-4.8-4.8c0-2.7,2.1-4.8,4.8-4.8c2.7,0,4.8,2.1,4.8,4.8C261.3,102.3,259.1,104.4,256.5,104.4z"/>
	<polygon points="267.7,104 267.7,101 273.1,101 272.3,97.9 267.7,97.9 267.7,94.8 271.4,94.8 270.5,91.9 264.7,91.9 264.7,107 
		274.8,107 274,104 	"/>
	<polygon points="237.1,102.6 237.1,91.8 234,91.8 234,99.2 227.5,91.9 227.5,96.5 227.5,96.5 227.5,107.2 230.6,107.2 230.6,99.9 
		237.1,107.2 237.1,102.6 	"/>
	<path d="M194.7,93.4"/>
	<polygon points="197.1,107.2 201.8,91.7 205,99.2 208.2,91.7 212.8,107 209.4,107 207.6,100.9 205,107.3 202.4,101.1 200.5,107.1 	
		"/>
	<polygon points="199.5,96.1 186.2,96.1 187.9,99.1 198.6,99.1 	"/>
	<g>
		<polygon points="197.1,104 190.6,104 192.3,107.1 196.2,107.1 		"/>
	</g>
	<g>
		<polygon points="198.3,100 188.4,100 190.1,103.1 197.4,103.1 		"/>
	</g>
	<g>
		<polygon points="200.7,91.9 183.9,91.9 185.6,95 199.8,95 		"/>
	</g>
	<polygon points="272.7,96.1 286,96.1 284.3,99.1 273.6,99.1 	"/>
	<g>
		<polygon points="275.1,104 281.6,104 279.9,107.1 276,107.1 		"/>
	</g>
	<g>
		<polygon points="273.9,100 283.8,100 282.1,103.1 274.8,103.1 		"/>
	</g>
	<g>
		<polygon points="271.5,91.9 288.3,91.9 286.6,95 272.4,95 		"/>
	</g>
	<path d="M245.3,101.3c1.9-0.7,3.2-2.5,3.2-4.6c0-2.4-1.8-4.6-4.5-4.8l0-0.1h-5.8V107l3,0V101l4.3,6.2h3.9L245.3,101.3z M241.2,99
		v-4.2h1.7l0,0c1.3,0,2.6,0.5,2.6,1.9c0,1.4-0.4,2-1.7,2.3L241.2,99z"/>
	<g>
		<path d="M283.3,104.6c0.2,0,0.5,0.1,0.7,0.2c0.2,0.1,0.4,0.3,0.5,0.5c0.1,0.2,0.2,0.5,0.2,0.7c0,0.2-0.1,0.5-0.2,0.7
			c-0.1,0.2-0.3,0.4-0.5,0.5c-0.2,0.1-0.5,0.2-0.7,0.2c-0.2,0-0.5-0.1-0.7-0.2c-0.2-0.1-0.4-0.3-0.5-0.5c-0.1-0.2-0.2-0.5-0.2-0.7
			c0-0.3,0.1-0.5,0.2-0.7c0.1-0.2,0.3-0.4,0.5-0.5C282.8,104.6,283,104.6,283.3,104.6z M283.3,104.8c-0.2,0-0.4,0-0.6,0.2
			c-0.2,0.1-0.3,0.2-0.4,0.4c-0.1,0.2-0.2,0.4-0.2,0.6c0,0.2,0,0.4,0.2,0.6c0.1,0.2,0.3,0.3,0.4,0.4c0.2,0.1,0.4,0.2,0.6,0.2
			c0.2,0,0.4-0.1,0.6-0.2c0.2-0.1,0.3-0.3,0.4-0.4c0.1-0.2,0.2-0.4,0.2-0.6c0-0.2-0.1-0.4-0.2-0.6c-0.1-0.2-0.3-0.3-0.4-0.4
			C283.7,104.9,283.5,104.8,283.3,104.8z M282.7,106.8v-1.5h0.5c0.2,0,0.3,0,0.4,0c0.1,0,0.1,0.1,0.2,0.1c0,0.1,0.1,0.1,0.1,0.2
			c0,0.1,0,0.2-0.1,0.3c-0.1,0.1-0.2,0.1-0.3,0.1c0.1,0,0.1,0,0.1,0.1c0.1,0.1,0.1,0.2,0.2,0.3l0.2,0.3h-0.3l-0.1-0.2
			c-0.1-0.2-0.2-0.3-0.3-0.4c0,0-0.1-0.1-0.2-0.1h-0.1v0.7H282.7z M282.9,105.9h0.3c0.1,0,0.2,0,0.3-0.1c0.1,0,0.1-0.1,0.1-0.2
			c0,0,0-0.1,0-0.1c0,0-0.1-0.1-0.1-0.1c0,0-0.1,0-0.3,0h-0.3V105.9z"/>
	</g>
</g>
<g>
	<path fill="#968F76" d="M15.3,126c-0.3-0.1-0.3-0.2-0.3-0.5c0-0.8,0.1-1.7,0.1-2c0-0.2,0.1-0.4,0.2-0.4c0.1,0,0.2,0.1,0.2,0.3
		c0,0.2,0.1,0.5,0.1,0.8c0.4,1.1,1.3,1.5,2.3,1.5c1.5,0,2.2-0.9,2.2-1.7c0-0.7-0.2-1.4-1.6-2.4l-0.7-0.5c-1.8-1.3-2.4-2.3-2.4-3.5
		c0-1.6,1.5-2.8,3.7-2.8c1,0,1.7,0.2,2.1,0.3c0.1,0,0.2,0.1,0.2,0.2c0,0.2-0.1,0.6-0.1,1.8c0,0.3,0,0.4-0.2,0.4
		c-0.1,0-0.2-0.1-0.2-0.3c0-0.1-0.1-0.6-0.4-1c-0.2-0.3-0.7-0.7-1.8-0.7c-1.2,0-1.9,0.6-1.9,1.5c0,0.7,0.4,1.2,1.7,2.2l0.5,0.3
		c1.9,1.4,2.6,2.4,2.6,3.8c0,0.9-0.4,1.9-1.5,2.6c-0.8,0.5-1.7,0.6-2.6,0.6C16.7,126.3,16,126.2,15.3,126L15.3,126z"/>
	<path fill="#968F76" d="M30.9,126.3c4.1,0,6.7-2.7,6.7-6.1c0-3.4-2.5-5.6-6.5-5.6c-4.8,0-6.7,3.3-6.7,5.9
		C24.4,123.1,26.2,126.3,30.9,126.3L30.9,126.3z M31.6,125.6c-3.1,0-5-2.5-5-5.6c0-3.7,2.1-4.7,4-4.7c2.6,0,4.7,2.1,4.7,5.4
		C35.3,125.1,32.7,125.6,31.6,125.6L31.6,125.6z"/>
	<path fill="#968F76" d="M42.3,124.1c0,1.2,0.2,1.6,0.6,1.7c0.3,0.1,0.6,0.1,0.8,0.1c0.2,0,0.3,0,0.3,0.1c0,0.1-0.1,0.2-0.4,0.2
		c-1.1,0-1.7,0-2,0c-0.1,0-0.9,0-1.7,0c-0.2,0-0.4,0-0.4-0.2c0-0.1,0.1-0.1,0.3-0.1c0.2,0,0.5,0,0.7-0.1c0.4-0.1,0.5-0.6,0.5-1.9
		l0.1-8.9c0-0.3,0-0.5,0.2-0.5c0.2,0,0.3,0.2,0.6,0.5c0.2,0.2,2.6,2.6,5,4.8c1.1,1,3.3,3.2,3.6,3.4h0.1l-0.2-6.7
		c0-0.9-0.2-1.2-0.6-1.3c-0.2-0.1-0.6-0.1-0.9-0.1c-0.2,0-0.3,0-0.3-0.1c0-0.1,0.2-0.1,0.4-0.1c0.8,0,1.6,0,2,0c0.2,0,0.8,0,1.6,0
		c0.2,0,0.4,0,0.4,0.1c0,0.1-0.1,0.1-0.3,0.1c-0.2,0-0.3,0-0.5,0c-0.5,0.1-0.6,0.4-0.6,1.3l-0.2,9.4c0,0.3-0.1,0.5-0.2,0.5
		c-0.2,0-0.4-0.2-0.5-0.3c-1-0.9-3.1-2.9-4.8-4.4c-1.8-1.6-3.6-3.5-3.8-3.8h0L42.3,124.1L42.3,124.1z"/>
	<path fill="#968F76" d="M61.3,126.3c4.1,0,6.7-2.7,6.7-6.1c0-3.4-2.5-5.6-6.5-5.6c-4.8,0-6.7,3.3-6.7,5.9
		C54.8,123.1,56.7,126.3,61.3,126.3L61.3,126.3z M62,125.6c-3.1,0-5-2.5-5-5.6c0-3.7,2.1-4.7,4-4.7c2.6,0,4.7,2.1,4.7,5.4
		C65.7,125.1,63.1,125.6,62,125.6L62,125.6z"/>
	<path fill="#968F76" d="M72.5,114.9c0-0.3,0.1-0.4,0.3-0.4c0.1,0,0.2,0.1,0.4,0.5l4.4,8.4l4.4-8.5c0.1-0.2,0.2-0.4,0.4-0.4
		c0.1,0,0.2,0.1,0.3,0.5l1.5,9.2c0.1,0.9,0.3,1.4,0.8,1.5c0.5,0.1,0.8,0.2,1,0.2c0.1,0,0.3,0,0.3,0.1c0,0.1-0.2,0.2-0.4,0.2
		c-0.4,0-2.6,0-3.3-0.1c-0.4,0-0.5-0.1-0.5-0.2c0-0.1,0.1-0.1,0.2-0.2c0.1,0,0.1-0.2,0.1-0.6l-1-6.6h-0.1l-3.5,6.8
		c-0.4,0.7-0.5,0.8-0.6,0.8c-0.1,0-0.3-0.3-0.6-0.7c-0.4-0.7-1.7-3-1.9-3.4c-0.1-0.3-1.1-2.2-1.7-3.3h-0.1l-0.8,6c0,0.3,0,0.5,0,0.7
		c0,0.3,0.2,0.4,0.5,0.5c0.3,0.1,0.5,0.1,0.7,0.1c0.1,0,0.2,0,0.2,0.1c0,0.1-0.1,0.2-0.4,0.2c-0.7,0-1.4,0-1.7,0c-0.3,0-1.1,0-1.6,0
		c-0.2,0-0.3,0-0.3-0.2c0-0.1,0.1-0.1,0.3-0.1c0.1,0,0.2,0,0.5,0c0.5-0.1,0.6-0.7,0.7-1.2L72.5,114.9L72.5,114.9z"/>
	<path fill="#968F76" d="M93.1,122.2c0.1,0,0.1,0,0.2,0.1l1.3,3.2c0.1,0.2,0,0.3-0.1,0.3c-0.2,0-0.2,0-0.2,0.1
		c0,0.1,0.2,0.1,0.5,0.1c1.3,0,2.5,0,3.1,0c0.6,0,0.7,0,0.7-0.2c0-0.1-0.1-0.1-0.2-0.1c-0.2,0-0.4,0-0.7-0.1
		c-0.3-0.1-0.8-0.3-1.4-1.6c-1-2.3-3.6-8.4-4-9.2c-0.2-0.3-0.3-0.5-0.4-0.5c-0.2,0-0.3,0.2-0.5,0.6l-4.1,9.4
		c-0.3,0.7-0.6,1.3-1.4,1.3c-0.1,0-0.4,0-0.5,0c-0.1,0-0.2,0-0.2,0.1c0,0.1,0.1,0.2,0.3,0.2c0.8,0,1.7,0,1.9,0c0.5,0,1.2,0,1.7,0
		c0.2,0,0.3,0,0.3-0.2c0-0.1,0-0.1-0.2-0.1h-0.2c-0.5,0-0.6-0.2-0.6-0.5c0-0.2,0.1-0.5,0.2-0.9l0.9-2.1c0-0.1,0.1-0.1,0.1-0.1H93.1
		L93.1,122.2z M89.8,121.5c-0.1,0-0.1,0-0.1-0.1l1.5-3.7c0-0.1,0-0.1,0.1-0.1c0,0,0.1,0.1,0.1,0.1l1.5,3.7c0,0,0,0.1-0.1,0.1H89.8
		L89.8,121.5z"/>
	<path fill="#968F76" d="M106.5,114.9c0-0.3,0.1-0.4,0.3-0.4c0.1,0,0.2,0.1,0.4,0.5l4.4,8.4l4.4-8.5c0.1-0.2,0.2-0.4,0.4-0.4
		c0.1,0,0.2,0.1,0.3,0.5l1.5,9.2c0.1,0.9,0.3,1.4,0.8,1.5c0.5,0.1,0.8,0.2,1,0.2c0.1,0,0.3,0,0.3,0.1c0,0.1-0.2,0.2-0.4,0.2
		c-0.4,0-2.6,0-3.3-0.1c-0.4,0-0.5-0.1-0.5-0.2c0-0.1,0.1-0.1,0.2-0.2c0.1,0,0.1-0.2,0.1-0.6l-1-6.6h-0.1l-3.5,6.8
		c-0.4,0.7-0.5,0.8-0.6,0.8c-0.1,0-0.3-0.3-0.6-0.7c-0.4-0.7-1.7-3-1.9-3.4c-0.1-0.3-1.1-2.2-1.7-3.3H107l-0.8,6c0,0.3,0,0.5,0,0.7
		c0,0.3,0.2,0.4,0.5,0.5c0.3,0.1,0.5,0.1,0.7,0.1c0.1,0,0.2,0,0.2,0.1c0,0.1-0.1,0.2-0.4,0.2c-0.7,0-1.4,0-1.7,0c-0.3,0-1.1,0-1.6,0
		c-0.2,0-0.3,0-0.3-0.2c0-0.1,0.1-0.1,0.3-0.1c0.1,0,0.2,0,0.5,0c0.5-0.1,0.6-0.7,0.7-1.2L106.5,114.9L106.5,114.9z"/>
	<path fill="#968F76" d="M123.2,119.2c0-2.3,0-2.7,0-3.2c0-0.5-0.2-0.8-0.5-0.8c-0.2,0-0.4-0.1-0.6-0.1c-0.2,0-0.3,0-0.3-0.2
		c0-0.1,0.1-0.1,0.4-0.1c0.6,0,1.6,0,2.1,0c0.4,0,1.4,0,2,0c0.2,0,0.3,0,0.3,0.1c0,0.1-0.1,0.2-0.3,0.2c-0.2,0-0.3,0-0.5,0
		c-0.4,0.1-0.6,0.3-0.6,0.9c0,0.5,0,0.9,0,3.2v2.6c0,1.5,0,2.6,0.1,3.3c0,0.4,0.2,0.7,0.6,0.7c0.2,0,0.6,0.1,0.8,0.1
		c0.2,0,0.3,0,0.3,0.1c0,0.1-0.1,0.2-0.3,0.2c-1.1,0-2.1,0-2.5,0c-0.4,0-1.4,0-2,0c-0.2,0-0.3,0-0.3-0.2c0-0.1,0.1-0.1,0.3-0.1
		c0.2,0,0.4,0,0.6-0.1c0.3-0.1,0.4-0.3,0.5-0.7c0.1-0.6,0.1-1.8,0.1-3.3V119.2L123.2,119.2z"/>
	<path fill="#968F76" d="M129.9,126c-0.3-0.1-0.3-0.2-0.3-0.5c0-0.8,0.1-1.7,0.1-2c0-0.2,0.1-0.4,0.2-0.4c0.1,0,0.2,0.1,0.2,0.3
		c0,0.2,0.1,0.5,0.1,0.8c0.4,1.1,1.3,1.5,2.3,1.5c1.5,0,2.2-0.9,2.2-1.7c0-0.7-0.2-1.4-1.6-2.4l-0.7-0.5c-1.8-1.3-2.4-2.3-2.4-3.5
		c0-1.6,1.5-2.8,3.7-2.8c1.1,0,1.7,0.2,2.1,0.3c0.1,0,0.2,0.1,0.2,0.2c0,0.2-0.1,0.6-0.1,1.8c0,0.3,0,0.4-0.2,0.4
		c-0.1,0-0.2-0.1-0.2-0.3c0-0.1-0.1-0.6-0.4-1c-0.2-0.3-0.7-0.7-1.8-0.7c-1.2,0-1.9,0.6-1.9,1.5c0,0.7,0.4,1.2,1.7,2.2l0.5,0.3
		c1.9,1.4,2.6,2.4,2.6,3.8c0,0.9-0.4,1.9-1.5,2.6c-0.8,0.5-1.7,0.6-2.6,0.6C131.3,126.3,130.5,126.2,129.9,126L129.9,126z"/>
	<path fill="#968F76" d="M140.1,126c-0.3-0.1-0.3-0.2-0.3-0.5c0-0.8,0.1-1.7,0.1-2c0-0.2,0.1-0.4,0.2-0.4c0.1,0,0.2,0.1,0.2,0.3
		c0,0.2,0.1,0.5,0.1,0.8c0.4,1.1,1.3,1.5,2.3,1.5c1.5,0,2.2-0.9,2.2-1.7c0-0.7-0.2-1.4-1.6-2.4l-0.7-0.5c-1.8-1.3-2.4-2.3-2.4-3.5
		c0-1.6,1.5-2.8,3.7-2.8c1,0,1.7,0.2,2.1,0.3c0.1,0,0.2,0.1,0.2,0.2c0,0.2-0.1,0.6-0.1,1.8c0,0.3,0,0.4-0.2,0.4
		c-0.1,0-0.2-0.1-0.2-0.3c0-0.1-0.1-0.6-0.4-1c-0.2-0.3-0.7-0.7-1.8-0.7c-1.2,0-1.9,0.6-1.9,1.5c0,0.7,0.4,1.2,1.7,2.2l0.5,0.3
		c1.9,1.4,2.7,2.4,2.7,3.8c0,0.9-0.4,1.9-1.5,2.6c-0.8,0.5-1.7,0.6-2.6,0.6C141.5,126.3,140.8,126.2,140.1,126L140.1,126z"/>
	<path fill="#968F76" d="M150.8,119.2c0-2.3,0-2.7,0-3.2c0-0.5-0.2-0.8-0.5-0.8c-0.2,0-0.4-0.1-0.6-0.1c-0.2,0-0.3,0-0.3-0.2
		c0-0.1,0.1-0.1,0.4-0.1c0.6,0,1.6,0,2.1,0c0.4,0,1.4,0,2,0c0.2,0,0.3,0,0.3,0.1c0,0.1-0.1,0.2-0.3,0.2c-0.2,0-0.3,0-0.5,0
		c-0.4,0.1-0.6,0.3-0.6,0.9c0,0.5,0,0.9,0,3.2v2.6c0,1.5,0,2.6,0.1,3.3c0,0.4,0.2,0.7,0.6,0.7c0.2,0,0.6,0.1,0.8,0.1
		c0.2,0,0.3,0,0.3,0.1c0,0.1-0.1,0.2-0.3,0.2c-1.1,0-2.1,0-2.5,0c-0.4,0-1.4,0-2,0c-0.2,0-0.3,0-0.3-0.2c0-0.1,0.1-0.1,0.3-0.1
		c0.2,0,0.4,0,0.6-0.1c0.3-0.1,0.4-0.3,0.5-0.7c0.1-0.6,0.1-1.8,0.1-3.3V119.2L150.8,119.2z"/>
	<path fill="#968F76" d="M162.8,126.3c4.1,0,6.7-2.7,6.7-6.1c0-3.4-2.5-5.6-6.5-5.6c-4.8,0-6.7,3.3-6.7,5.9
		C156.3,123.1,158.2,126.3,162.8,126.3L162.8,126.3z M163.5,125.6c-3.1,0-5-2.5-5-5.6c0-3.7,2.1-4.7,4-4.7c2.6,0,4.7,2.1,4.7,5.4
		C167.2,125.1,164.6,125.6,163.5,125.6L163.5,125.6z"/>
	<path fill="#968F76" d="M174.3,124.1c0,1.2,0.2,1.6,0.6,1.7c0.3,0.1,0.6,0.1,0.8,0.1c0.2,0,0.3,0,0.3,0.1c0,0.1-0.1,0.2-0.4,0.2
		c-1,0-1.7,0-2,0c-0.1,0-0.9,0-1.7,0c-0.2,0-0.4,0-0.4-0.2c0-0.1,0.1-0.1,0.3-0.1c0.2,0,0.5,0,0.7-0.1c0.4-0.1,0.5-0.6,0.5-1.9
		l0.1-8.9c0-0.3,0-0.5,0.2-0.5c0.2,0,0.3,0.2,0.6,0.5c0.2,0.2,2.7,2.6,5,4.8c1.1,1,3.3,3.2,3.6,3.4h0.1l-0.2-6.7
		c0-0.9-0.2-1.2-0.5-1.3c-0.2-0.1-0.6-0.1-0.9-0.1c-0.2,0-0.3,0-0.3-0.1c0-0.1,0.2-0.1,0.4-0.1c0.8,0,1.6,0,2,0c0.2,0,0.8,0,1.6,0
		c0.2,0,0.4,0,0.4,0.1c0,0.1-0.1,0.1-0.3,0.1c-0.2,0-0.3,0-0.5,0c-0.5,0.1-0.6,0.4-0.6,1.3l-0.2,9.4c0,0.3-0.1,0.5-0.2,0.5
		c-0.2,0-0.4-0.2-0.5-0.3c-1-0.9-3.1-2.9-4.8-4.4c-1.8-1.6-3.6-3.5-3.8-3.8h0L174.3,124.1L174.3,124.1z"/>
	<path fill="#968F76" d="M194.1,119.2c0-2.3,0-2.7,0-3.2c0-0.5-0.2-0.8-0.5-0.8c-0.2,0-0.4-0.1-0.6-0.1c-0.2,0-0.3,0-0.3-0.2
		c0-0.1,0.1-0.1,0.4-0.1c0.6,0,1.6,0,2.1,0c0.4,0,1.4,0,2,0c0.2,0,0.3,0,0.3,0.1c0,0.1-0.1,0.2-0.3,0.2c-0.2,0-0.3,0-0.5,0
		c-0.4,0.1-0.6,0.3-0.6,0.9c0,0.5,0,0.9,0,3.2v2.6c0,1.5,0,2.6,0.1,3.3c0,0.4,0.2,0.7,0.6,0.7c0.2,0,0.6,0.1,0.8,0.1
		c0.2,0,0.3,0,0.3,0.1c0,0.1-0.1,0.2-0.3,0.2c-1.1,0-2.1,0-2.5,0c-0.4,0-1.4,0-2,0c-0.2,0-0.3,0-0.3-0.2c0-0.1,0.1-0.1,0.3-0.1
		c0.2,0,0.4,0,0.6-0.1c0.3-0.1,0.4-0.3,0.5-0.7c0.1-0.6,0.1-1.8,0.1-3.3V119.2L194.1,119.2z"/>
	<path fill="#968F76" d="M202.6,124.1c0,1.2,0.2,1.6,0.6,1.7c0.3,0.1,0.6,0.1,0.8,0.1c0.2,0,0.3,0,0.3,0.1c0,0.1-0.1,0.2-0.4,0.2
		c-1.1,0-1.7,0-2,0c-0.1,0-0.9,0-1.7,0c-0.2,0-0.4,0-0.4-0.2c0-0.1,0.1-0.1,0.3-0.1c0.2,0,0.5,0,0.7-0.1c0.4-0.1,0.5-0.6,0.5-1.9
		l0.1-8.9c0-0.3,0-0.5,0.2-0.5c0.2,0,0.3,0.2,0.6,0.5c0.2,0.2,2.7,2.6,5,4.8c1.1,1,3.3,3.2,3.6,3.4h0.1l-0.2-6.7
		c0-0.9-0.2-1.2-0.5-1.3c-0.2-0.1-0.6-0.1-0.9-0.1c-0.2,0-0.3,0-0.3-0.1c0-0.1,0.2-0.1,0.4-0.1c0.8,0,1.6,0,2,0c0.2,0,0.8,0,1.6,0
		c0.2,0,0.4,0,0.4,0.1c0,0.1-0.1,0.1-0.3,0.1c-0.2,0-0.3,0-0.5,0c-0.5,0.1-0.6,0.4-0.6,1.3l-0.2,9.4c0,0.3-0.1,0.5-0.2,0.5
		c-0.2,0-0.4-0.2-0.5-0.3c-1-0.9-3.1-2.9-4.8-4.4c-1.8-1.6-3.6-3.5-3.8-3.8h0L202.6,124.1L202.6,124.1z"/>
	<path fill="#968F76" d="M218.2,124.1c0,1.2,0.2,1.6,0.6,1.7c0.3,0.1,0.6,0.1,0.8,0.1c0.2,0,0.3,0,0.3,0.1c0,0.1-0.1,0.2-0.4,0.2
		c-1.1,0-1.7,0-2,0c-0.1,0-0.9,0-1.7,0c-0.2,0-0.4,0-0.4-0.2c0-0.1,0.1-0.1,0.3-0.1c0.2,0,0.5,0,0.7-0.1c0.4-0.1,0.5-0.6,0.5-1.9
		l0.1-8.9c0-0.3,0-0.5,0.2-0.5c0.2,0,0.3,0.2,0.6,0.5c0.2,0.2,2.6,2.6,5,4.8c1.1,1,3.3,3.2,3.6,3.4h0.1l-0.2-6.7
		c0-0.9-0.2-1.2-0.5-1.3c-0.2-0.1-0.6-0.1-0.9-0.1c-0.2,0-0.3,0-0.3-0.1c0-0.1,0.2-0.1,0.4-0.1c0.8,0,1.6,0,2,0c0.2,0,0.8,0,1.6,0
		c0.2,0,0.4,0,0.4,0.1c0,0.1-0.1,0.1-0.3,0.1c-0.2,0-0.3,0-0.5,0c-0.5,0.1-0.6,0.4-0.6,1.3l-0.2,9.4c0,0.3-0.1,0.5-0.2,0.5
		c-0.2,0-0.4-0.2-0.5-0.3c-1-0.9-3.1-2.9-4.8-4.4c-1.8-1.6-3.6-3.5-3.8-3.8h0L218.2,124.1L218.2,124.1z"/>
	<path fill="#968F76" d="M236.1,123c0,1.3,1,3.3,4.5,3.3c2.2,0,3.3-0.9,3.8-1.4c1.4,1,2,1.2,3.8,1.2h1.2c0.4,0,0.5,0,0.5-0.1
		c0-0.1-0.1-0.1-0.2-0.1c-0.3,0-1.2-0.2-1.7-0.5c-0.4-0.2-1.2-0.6-2.2-1.5c0.9-1,1.6-2.4,1.6-3.5c0-0.2-0.2-0.3-0.5-0.3
		c-0.9-0.1-1.6-0.1-1.9-0.1c-0.1,0-0.3,0-0.3,0.1c0,0.1,0.1,0.1,0.2,0.1c0.2,0,0.6,0,0.8,0.2c0.2,0.2,0.3,0.5,0.3,0.7
		c0,0.9-0.5,1.9-0.8,2.3c-0.3-0.3-2.3-1.9-2.8-2.5c-1.3-1.3-2.7-2.5-2.7-3.9c0-1.3,1.1-1.7,1.7-1.7c0.9,0,1.5,0.3,1.8,0.7
		c0.4,0.4,0.5,0.9,0.5,1.3c0,0.2,0,0.3,0.1,0.3c0.1,0,0.2,0,0.2-0.3c0-0.2,0.2-1.4,0.2-1.9c0-0.2,0-0.3-0.3-0.4
		c-0.4-0.2-1.2-0.3-2-0.3c-2.8,0-3.9,1.6-3.9,2.8c0,0.7,0.1,1.3,0.8,2.1C237.8,119.9,236.1,121.3,236.1,123L236.1,123z M241.1,125.4
		c-1.7,0-3.1-1.2-3.1-3.1c0-1.2,0.6-1.9,1.1-2.3c0.3,0.4,1.3,1.5,1.7,1.9c0.4,0.4,2,1.8,2.9,2.6
		C243.5,124.8,242.4,125.4,241.1,125.4L241.1,125.4z"/>
	<path fill="#968F76" d="M255.8,126c-0.3-0.1-0.3-0.2-0.3-0.5c0-0.8,0.1-1.7,0.1-2c0-0.2,0.1-0.4,0.2-0.4c0.1,0,0.2,0.1,0.2,0.3
		c0,0.2,0.1,0.5,0.1,0.8c0.4,1.1,1.3,1.5,2.3,1.5c1.5,0,2.2-0.9,2.2-1.7c0-0.7-0.2-1.4-1.6-2.4l-0.7-0.5c-1.8-1.3-2.4-2.3-2.4-3.5
		c0-1.6,1.5-2.8,3.7-2.8c1.1,0,1.7,0.2,2.2,0.3c0.1,0,0.2,0.1,0.2,0.2c0,0.2-0.1,0.6-0.1,1.8c0,0.3,0,0.4-0.2,0.4
		c-0.1,0-0.2-0.1-0.2-0.3c0-0.1-0.1-0.6-0.4-1c-0.2-0.3-0.7-0.7-1.8-0.7c-1.2,0-1.9,0.6-1.9,1.5c0,0.7,0.4,1.2,1.7,2.2l0.5,0.3
		c1.9,1.4,2.6,2.4,2.6,3.8c0,0.9-0.4,1.9-1.5,2.6c-0.8,0.5-1.7,0.6-2.6,0.6C257.3,126.3,256.5,126.2,255.8,126L255.8,126z"/>
	<path fill="#968F76" d="M266.5,119.2c0-2.3,0-2.7,0-3.2c0-0.5-0.2-0.8-0.7-0.9c-0.1,0-0.4,0-0.6,0c-0.2,0-0.3,0-0.3-0.1
		c0-0.1,0.1-0.1,0.4-0.1c0.9,0,1.9,0,2.3,0c0.7,0,1.6,0,2.3,0c2,0,2.7,0.6,3,0.9c0.4,0.3,0.8,1,0.8,1.8c0,2.1-1.7,3.6-4,3.6
		c-0.1,0-0.3,0-0.3,0c-0.1,0-0.2,0-0.2-0.1c0-0.1,0.1-0.2,0.5-0.2c0.9,0,2.2-0.9,2.2-2.5c0-0.5,0-1.5-1-2.2
		c-0.6-0.5-1.2-0.6-1.6-0.6c-0.2,0-0.5,0-0.6,0.1c-0.1,0-0.1,0.1-0.1,0.3v6c0,1.4,0,2.6,0.1,3.2c0,0.4,0.1,0.7,0.6,0.8
		c0.2,0,0.6,0.1,0.8,0.1c0.2,0,0.3,0,0.3,0.1c0,0.1-0.1,0.2-0.3,0.2c-1.1,0-2.1,0-2.5,0c-0.4,0-1.4,0-2,0c-0.2,0-0.3,0-0.3-0.2
		c0-0.1,0.1-0.1,0.3-0.1c0.2,0,0.4,0,0.6-0.1c0.3-0.1,0.4-0.4,0.5-0.8c0.1-0.6,0.1-1.8,0.1-3.2V119.2L266.5,119.2z"/>
	<path fill="#968F76" d="M281.6,122.2c0.1,0,0.1,0,0.2,0.1l1.3,3.2c0.1,0.2,0,0.3-0.1,0.3c-0.2,0-0.2,0-0.2,0.1
		c0,0.1,0.2,0.1,0.5,0.1c1.3,0,2.5,0,3.1,0c0.6,0,0.7,0,0.7-0.2c0-0.1-0.1-0.1-0.2-0.1c-0.2,0-0.4,0-0.7-0.1
		c-0.3-0.1-0.8-0.3-1.4-1.6c-1-2.3-3.6-8.4-4-9.2c-0.2-0.3-0.3-0.5-0.4-0.5c-0.2,0-0.3,0.2-0.5,0.6l-4.1,9.4
		c-0.3,0.7-0.6,1.3-1.4,1.3c-0.1,0-0.4,0-0.5,0c-0.1,0-0.2,0-0.2,0.1c0,0.1,0.1,0.2,0.3,0.2c0.8,0,1.7,0,1.9,0c0.5,0,1.2,0,1.7,0
		c0.2,0,0.3,0,0.3-0.2c0-0.1,0-0.1-0.2-0.1h-0.2c-0.5,0-0.6-0.2-0.6-0.5c0-0.2,0.1-0.5,0.2-0.9l0.9-2.1c0-0.1,0.1-0.1,0.1-0.1H281.6
		L281.6,122.2z M278.3,121.5c-0.1,0-0.1,0-0.1-0.1l1.5-3.7c0-0.1,0-0.1,0.1-0.1c0,0,0.1,0.1,0.1,0.1l1.5,3.7c0,0,0,0.1-0.1,0.1
		H278.3L278.3,121.5z"/>
</g>
</svg>
