<?xml version="1.0" encoding="utf-8"?>
<!-- Generator: Adobe Illustrator 18.1.1, SVG Export Plug-In . SVG Version: 6.00 Build 0)  -->
<svg version="1.1" id="Layer_1" xmlns="http://www.w3.org/2000/svg" xmlns:xlink="http://www.w3.org/1999/xlink" x="0px" y="0px"
	 viewBox="0 0 367 262.7" enable-background="new 0 0 367 262.7" xml:space="preserve">
<g>
	<g>
		<path d="M246.1,19.9c0.1,0.5,0.2,0.9,0.4,1.3v0v0c0.2,0.5,0.4,1,0.7,1.5c0,0.1,0.1,0.1,0.1,0.2c0.2,0.4,0.5,0.9,0.8,1.3
			c0,0.1,0.1,0.1,0.1,0.2c0.3,0.4,0.6,0.8,0.9,1.1c0.1,0.1,0.1,0.1,0.2,0.2c0.3,0.3,0.6,0.7,1,1c0,0,0.1,0.1,0.1,0.1
			c0.4,0.3,0.7,0.6,1.1,0.9c0,0,0,0,0.1,0c0.4,0.3,0.8,0.6,1.2,0.9c0,0,0.1,0,0.1,0.1c0.4,0.3,0.8,0.6,1.2,0.8
			c0.1,0,0.1,0.1,0.2,0.1c0.4,0.3,0.8,0.5,1.2,0.8c0.4,0.3,0.9,0.6,1.3,0.8c0.1,0,0.1,0.1,0.2,0.1c0.4,0.3,0.8,0.6,1.2,0.8
			c0,0,0.1,0,0.1,0.1c0.4,0.3,0.8,0.6,1.2,0.9c0,0,0,0,0,0c0.4,0.3,0.8,0.6,1.1,0.9c0,0,0.1,0.1,0.1,0.1c0.3,0.3,0.7,0.7,1,1
			c0.1,0.1,0.1,0.1,0.2,0.2c0.3,0.4,0.6,0.7,0.9,1.1c0,0.1,0.1,0.1,0.1,0.2c0.3,0.4,0.5,0.8,0.8,1.3c0,0.1,0.1,0.1,0.1,0.2
			c0.2,0.5,0.5,1,0.7,1.5c-1.9,1.4-2.5,3.9-3.3,6.3c0.5,0.6,0.9,1.1,1.4,1.6c0.1,0.1,0.2,0.2,0.2,0.2c0.5,0.5,1,0.9,1.5,1.4
			c0.1,0.1,0.2,0.2,0.3,0.3c0.5,0.4,1,0.9,1.6,1.3c0.1,0.1,0.2,0.1,0.2,0.2c0.5,0.4,1.1,0.8,1.6,1.2c0,0,0.1,0.1,0.1,0.1
			c0.6,0.4,1.2,0.8,1.8,1.2c0.1,0.1,0.2,0.1,0.3,0.2c0.6,0.4,1.2,0.8,1.8,1.1c0.1,0.1,0.2,0.1,0.3,0.2c1.3,0.8,2.6,1.6,4,2.3
			c0,0,0,0,0,0c0,0,0.1,0,0.1,0.1c0,0,0,0,0.1,0c0.7,0.4,1.4,0.8,2.1,1.2c0.1,0,0.1,0.1,0.2,0.1c2.4,1.4,4.7,2.8,6.9,4.4
			c0.1,0.1,0.2,0.1,0.2,0.2c0.7,0.5,1.3,1,1.9,1.5c0.1,0,0.1,0.1,0.2,0.1c1.3,1.1,2.6,2.3,3.8,3.6c0.1,0.1,0.2,0.2,0.3,0.3
			c0.5,0.6,1,1.2,1.4,1.8c0.1,0.1,0.2,0.2,0.2,0.3c0.1,0.2,0.3,0.4,0.4,0.6c0.3,0.5,0.6,1,0.9,1.5c0.3-0.4,0.6-0.7,0.9-1.1
			c0.1-0.1,0.1-0.1,0.2-0.2c0.3-0.3,0.7-0.6,1-0.9c2.7-2.2,6.5-3.4,9.7-5.1c0,0,0.1,0,0.1-0.1c0.3-0.2,0.5-0.3,0.8-0.5
			c0.1-0.1,0.2-0.1,0.3-0.2c0.2-0.1,0.4-0.3,0.6-0.4c0.1-0.1,0.2-0.1,0.3-0.2c0.2-0.1,0.4-0.3,0.6-0.5c0.1-0.1,0.2-0.1,0.3-0.2
			c0.3-0.2,0.5-0.5,0.7-0.7c2.6,1.1,4.7,3.7,7.9,3.2c1.8-0.3,2.6-2.9,5.4-4.4c1.3-0.7,3-0.6,4-1.2c0.5-0.3,0.9-0.6,1.3-0.9
			c0.1-0.1,0.3-0.2,0.4-0.3c0.3-0.2,0.5-0.4,0.7-0.7c0.1-0.1,0.3-0.3,0.4-0.4c0.2-0.2,0.4-0.4,0.6-0.6c0.1-0.2,0.3-0.3,0.4-0.5
			c0.2-0.2,0.3-0.4,0.4-0.6c0.1-0.2,0.2-0.4,0.4-0.5c0.1-0.2,0.2-0.4,0.4-0.6c0.1-0.2,0.2-0.4,0.3-0.6c0.1-0.2,0.2-0.4,0.3-0.6
			c0.1-0.2,0.2-0.4,0.3-0.6c0.1-0.2,0.1-0.4,0.2-0.6c0.1-0.2,0.1-0.4,0.2-0.6v0c0,0,0,0,0-0.1c0.5-1.8,0.7-3.8,0.7-5.8c0,0,0,0,0,0
			c0,0,0,0,0,0c0-0.5,0-1.1-0.1-1.6c0-0.1,0-0.2,0-0.3c0-0.5-0.1-0.9-0.1-1.4c0-0.1,0-0.3-0.1-0.4c-0.1-0.4-0.1-0.9-0.2-1.3
			c0-0.1,0-0.3-0.1-0.4c-0.1-0.6-0.2-1.1-0.3-1.7c-3.4-3.1-11.2-1.3-16.1-2.8c-1.2-3.9-2-8.3-4.2-11.1c-8.3-2.9-19.7-7.5-30-4.6
			c-8.6-4-23.3-1.2-30.7-6.6c0.8,2.7,3.5,3.3,5.9,4.3c-4.5,0.1-9.7,1-12.9-0.4c0.1,0.5,0.2,1,0.3,1.5
			C246,19.7,246.1,19.8,246.1,19.9z"/>
		<path d="M364.8,94.2c1.9-1.9,2.6-4.1,2-6c0,0,0,0,0,0c-0.1-0.2-0.2-0.4-0.3-0.6c0,0,0,0,0,0c-0.2-0.4-0.5-0.7-0.8-1.1
			c0,0-0.1-0.1-0.1-0.1c-0.2-0.1-0.3-0.3-0.5-0.4c0,0,0,0-0.1-0.1c-0.2-0.1-0.4-0.3-0.6-0.4c0,0-0.1,0-0.1-0.1
			c-0.2-0.1-0.4-0.2-0.6-0.3c-0.1,0-0.1-0.1-0.2-0.1c-0.2-0.1-0.5-0.2-0.7-0.2c0,0-0.1,0-0.1,0c-0.3-0.1-0.6-0.1-0.9-0.2
			c-0.1,0-0.2,0-0.3,0c-0.3,0-0.5-0.1-0.8-0.1c-0.1,0-0.2,0-0.3,0c-0.4,0-0.7,0-1.1,0c-3.5,0-7.8,2.4-12.6,3.7
			c-4.6,1.2-9.8,1.7-14.2,2.8c-9.6,2.3-17.2,7.7-24.7,9c5.7-3.5,8.7-9.4,17.5-10.2c2.4-0.9,1.4-4.9,3.8-5.8
			c5.3-1.8,9.2,1.4,12.9,0.4c0.2-0.1,0.4-0.1,0.6-0.2c0,0,0,0,0.1,0c0.1-0.1,0.3-0.2,0.4-0.3c0,0,0,0,0.1-0.1
			c0.1-0.1,0.2-0.2,0.3-0.3c0,0,0-0.1,0.1-0.1c0.1-0.1,0.1-0.2,0.2-0.3c0.3-0.6,0.6-1.3,1.3-2c0.1-0.1,0.3-0.3,0.5-0.4
			c1.5-1.1,5.2-0.5,6-2.9c0.5-2.5-0.4-3.5,1.3-5.2c-5.9,0.8-10-1.9-15-1.8c-0.6,0-1.2,0.1-1.8,0.1c-0.2,0-0.4,0-0.5,0.1
			c-0.5,0.1-0.9,0.1-1.4,0.2c-0.2,0-0.3,0.1-0.5,0.1c-0.6,0.1-1.2,0.2-1.8,0.4c-0.1,0-0.2,0.1-0.3,0.1c-0.5,0.1-1,0.3-1.5,0.5
			c-0.2,0.1-0.4,0.1-0.6,0.2c-0.4,0.1-0.9,0.3-1.3,0.5c-0.2,0.1-0.3,0.1-0.5,0.2c-0.6,0.2-1.1,0.5-1.7,0.7c-0.1,0.1-0.3,0.1-0.4,0.2
			c-0.4,0.2-0.9,0.4-1.3,0.6c-0.2,0.1-0.4,0.2-0.6,0.3c-0.4,0.2-0.8,0.4-1.2,0.6c-0.2,0.1-0.4,0.2-0.5,0.3c-0.5,0.3-1.1,0.6-1.6,0.9
			c-0.2,0.1-0.4,0.2-0.6,0.4c-0.3,0.2-0.7,0.4-1,0.6c-0.2,0.1-0.5,0.3-0.7,0.5c-0.3,0.2-0.6,0.4-1,0.6c-0.3,0.2-0.6,0.4-0.9,0.6
			c-0.4,0.3-0.8,0.5-1.2,0.8c-0.4,0.2-0.7,0.5-1.1,0.7c-0.1,0.1-0.3,0.2-0.4,0.3c-2,1.4-4,2.7-6,4c-1.1,0.7-2.2,1.4-3.3,2.1
			c-0.1,0-0.1,0.1-0.2,0.1c-0.4,0.3-0.9,0.5-1.3,0.8c-0.1,0.1-0.2,0.1-0.4,0.2c-0.4,0.2-0.8,0.5-1.2,0.7c-0.1,0.1-0.2,0.1-0.3,0.2
			c-0.5,0.3-1,0.5-1.5,0.8c-0.1,0-0.2,0.1-0.2,0.1c-0.4,0.2-0.8,0.4-1.2,0.6c-0.2,0.1-0.3,0.1-0.5,0.2c-0.4,0.2-0.7,0.3-1,0.4
			c-0.1,0.1-0.3,0.1-0.4,0.2c-0.5,0.2-1,0.3-1.4,0.5c-0.2-0.2-0.4-0.5-0.6-0.8c-0.1-0.1-0.1-0.2-0.2-0.3c-0.1-0.2-0.2-0.3-0.3-0.5
			c-0.1-0.2-0.1-0.3-0.2-0.5c-0.1-0.1-0.1-0.3-0.2-0.4c-0.1-0.2-0.1-0.4-0.2-0.6c0-0.1-0.1-0.2-0.1-0.4c0-0.2-0.1-0.5-0.1-0.7
			c0-0.1,0-0.2,0-0.3c0-0.3-0.1-0.6-0.1-0.8c0-0.1,0-0.1,0-0.2c0-0.3,0-0.6,0-1c0,0,0-0.1,0-0.1c0-0.4,0-0.7,0-1.1
			c0.2-3.4,1-6.9,1.5-9.2c-0.4,0-0.7-0.1-1-0.2c-0.1,0-0.2,0-0.3-0.1c-0.2,0-0.5-0.1-0.7-0.1c-0.1,0-0.2,0-0.3-0.1
			c-0.2-0.1-0.4-0.1-0.6-0.2c-0.1,0-0.2-0.1-0.3-0.1c-0.2-0.1-0.5-0.1-0.7-0.2c0,0-0.1,0-0.2-0.1c-0.3-0.1-0.5-0.2-0.8-0.3
			c-0.1,0-0.1-0.1-0.2-0.1c-0.2-0.1-0.4-0.2-0.6-0.3c-0.1,0-0.2-0.1-0.2-0.1c-0.2-0.1-0.3-0.2-0.5-0.3c-0.1,0-0.2-0.1-0.2-0.1
			c-0.2-0.1-0.3-0.2-0.5-0.3c-0.1,0-0.1-0.1-0.2-0.1c-0.2-0.1-0.4-0.3-0.6-0.4c0,0-0.1,0-0.1-0.1c-0.2-0.1-0.4-0.3-0.5-0.4
			c-0.1-0.1-0.1-0.1-0.2-0.2c-0.1-0.1-0.3-0.2-0.4-0.3c-0.1-0.1-0.2-0.1-0.2-0.2c-0.1-0.1-0.3-0.2-0.4-0.3c-0.1-0.1-0.1-0.1-0.2-0.2
			c-0.5-0.4-1-0.9-1.5-1.3c-0.1-0.1-0.2-0.1-0.2-0.2c-0.3-0.3-0.7-0.6-1.1-0.9c-0.4-0.3-0.9-0.7-1.3-1c0,0,0,0,0,0
			c-0.1-0.1-0.3-0.2-0.4-0.3c-0.3-0.2-0.6-0.4-0.9-0.6c0,0,0,0-0.1,0c0,0-0.1,0-0.1-0.1c-0.2-0.1-0.3-0.2-0.5-0.4
			c-0.3-0.2-0.7-0.5-1-0.7c-0.2-0.1-0.4-0.2-0.5-0.4c-0.4-0.2-0.7-0.5-1.1-0.7c-0.2-0.1-0.3-0.2-0.5-0.3c-0.4-0.2-0.8-0.5-1.1-0.7
			c-0.1-0.1-0.3-0.2-0.4-0.3c-0.4-0.3-0.8-0.5-1.2-0.8c-0.1-0.1-0.2-0.1-0.4-0.2c-0.5-0.3-0.9-0.6-1.4-0.8c-0.1,0-0.1-0.1-0.2-0.1
			c-0.5-0.3-1-0.6-1.5-0.9c0,0,0,0,0,0c-4.2-2.5-8.3-4.8-11.4-6.7c-0.3-0.2-0.5-0.3-0.8-0.5c-0.1,0.1-0.2,0.3-0.3,0.4
			c-0.2,0.2-0.4,0.3-0.6,0.5c0,0-0.1,0-0.1,0.1c-0.2,0.1-0.4,0.2-0.6,0.3c0,0-0.1,0-0.1,0c-0.3,0.1-0.5,0.2-0.8,0.2c0,0,0,0,0,0
			c0,0-0.1,0-0.1,0c-0.3,0.1-0.5,0.1-0.8,0.1c0,0,0,0-0.1,0c0,0,0,0-0.1,0c-0.3,0-0.6,0.1-1,0.1c-0.2,0-0.4,0.1-0.6,0.1
			c0,0,0,0-0.1,0c-0.1,0-0.2,0-0.3,0c0,0-0.1,0-0.1,0c-0.1,0-0.3,0-0.4,0.1c0,0,0,0,0,0c-0.2,0-0.3,0.1-0.5,0.1c0,0,0,0-0.1,0
			c0,0-0.1,0-0.1,0c-0.1,0-0.1,0-0.2,0c-0.2,0.1-0.4,0.1-0.7,0.2c-4.5,1.9-6.6,7-10.8,9.8c-5.5,3.6-12.8,5.8-19,10.7
			c-0.5,0.4-1.1,0.9-1.6,1.3c-1.9,1.6-3.9,3.3-5.9,4.9c-2.5,2.1-5.1,4-7.6,5.5c-0.6,0.3-1.2,0.7-1.7,1c-0.3,0.1-0.6,0.3-0.9,0.4
			c-5.7,2.6-12.2,3.6-18.5,5.1c0,0,0,0-0.1,0c-0.9,0.2-1.9,0.5-2.8,0.8c-1,0.3-1.9,0.6-2.8,0.9c-0.2,0.1-0.4,0.1-0.6,0.2
			c-0.3,0.1-0.6,0.2-0.9,0.3c-0.4,0.1-0.8,0.3-1.2,0.4c-0.4,0.1-0.9,0.3-1.3,0.4c-0.3,0.1-0.5,0.2-0.8,0.3c-0.2,0.1-0.4,0.1-0.6,0.2
			c-0.5,0.2-0.9,0.3-1.4,0.5c-0.4,0.1-0.8,0.3-1.2,0.4c-0.5,0.2-0.9,0.3-1.4,0.5c-0.4,0.1-0.7,0.3-1.1,0.4c-0.2,0.1-0.5,0.2-0.7,0.3
			c-0.2,0.1-0.3,0.1-0.5,0.2c-0.1,0-0.1,0-0.2,0.1c-0.4,0.1-0.7,0.3-1.1,0.4c-0.5,0.2-0.9,0.4-1.3,0.6c-0.1,0-0.1,0-0.2,0.1
			c-0.1,0-0.2,0.1-0.3,0.1c-0.2,0.1-0.4,0.2-0.6,0.3c-0.4,0.2-0.9,0.4-1.3,0.6c-0.4,0.2-0.7,0.3-1.1,0.5c-0.4,0.2-0.9,0.4-1.3,0.6
			c-0.4,0.2-0.7,0.3-1.1,0.5c-0.4,0.2-0.8,0.4-1.3,0.6c-0.4,0.2-0.7,0.3-1.1,0.5c-0.4,0.2-0.8,0.4-1.3,0.6c-0.4,0.2-0.7,0.3-1.1,0.5
			c-0.4,0.2-0.8,0.4-1.2,0.6c-0.4,0.2-0.8,0.4-1.2,0.6c-0.4,0.2-0.8,0.4-1.2,0.6c-0.4,0.2-0.8,0.4-1.3,0.6c-0.4,0.2-0.7,0.4-1.1,0.5
			c-0.5,0.2-0.9,0.5-1.4,0.7c-0.3,0.2-0.6,0.3-1,0.5c-0.6,0.3-1.1,0.6-1.7,0.8c-0.2,0.1-0.3,0.2-0.5,0.3c-0.4,0.2-0.9,0.4-1.3,0.7
			c-0.3,0.1-0.6,0.3-0.8,0.4c0,0-0.1,0-0.1,0.1c0,0,0,0-0.1,0c-0.3,0.2-0.6,0.3-1,0.5c0,0-0.1,0.1-0.1,0.1c-0.4,0.2-0.7,0.4-1.1,0.6
			c-0.1,0-0.1,0.1-0.2,0.1c-0.1,0-0.1,0.1-0.2,0.1c-1.5,0.8-3.1,1.7-4.7,2.7c0,0,0,0-0.1,0c-0.4,0.2-0.8,0.5-1.2,0.7
			c-0.1,0-0.2,0.1-0.3,0.1c-0.4,0.2-0.7,0.4-1.1,0.6c-0.1,0.1-0.2,0.1-0.3,0.2c-0.4,0.2-0.7,0.4-1.1,0.6c-0.1,0-0.2,0.1-0.2,0.1
			c-0.9,0.4-1.7,0.9-2.5,1.2c-0.1,0-0.2,0.1-0.3,0.1c-0.3,0.1-0.6,0.3-0.9,0.4c-0.1,0.1-0.3,0.1-0.4,0.2c-0.2,0.1-0.5,0.2-0.7,0.3
			c-0.1,0-0.3,0.1-0.4,0.1c-0.2,0.1-0.4,0.1-0.6,0.2c-0.1,0-0.2,0.1-0.4,0.1c-0.2,0.1-0.4,0.1-0.6,0.1c-0.1,0-0.2,0-0.3,0
			c-0.3,0-0.5,0.1-0.8,0c-3.8-0.1-8-5.6-10.8-0.5c0,0.4,0.1,0.8,0.1,1.2v0v0c0.5,3.7,2.1,6,3.8,8.3c0.2,0.2,0.4,0.5,0.5,0.7
			c0,0,0.1,0.1,0.1,0.1c0.2,0.4,0.5,0.7,0.7,1.1c-0.4,0.2-0.7,0.4-1,0.7c-0.1,0.1-0.2,0.2-0.3,0.3c-0.2,0.2-0.4,0.4-0.5,0.6
			c-0.1,0.1-0.2,0.2-0.3,0.4c-0.1,0.2-0.3,0.4-0.4,0.6c-0.1,0.1-0.2,0.3-0.3,0.4c-0.1,0.2-0.2,0.4-0.3,0.6c-0.1,0.2-0.2,0.3-0.3,0.5
			c-0.1,0.2-0.2,0.4-0.3,0.6c-0.1,0.2-0.2,0.4-0.2,0.5c-0.1,0.1-0.1,0.3-0.2,0.4c-0.4,1.1-0.8,2.2-1.2,3.3c0,0,0,0,0,0.1
			c-0.2,0.4-0.3,0.9-0.5,1.3c0,0,0,0.1,0,0.1c-0.6,1.4-1.3,2.7-2.2,3.7c-0.2,0.2-0.4,0.4-0.6,0.6c-0.2,0.2-0.5,0.4-0.7,0.6
			c0,0-0.1,0-0.1,0.1c-4,2.6-8.9,3.4-12.9,5.7c-0.6,0.3-1.2,0.7-1.8,1.1c-0.1,0.1-0.2,0.1-0.3,0.2c-0.1,0.1-0.3,0.2-0.4,0.3
			c-0.1,0.1-0.2,0.1-0.2,0.2c-0.3,0.2-0.5,0.4-0.8,0.5c-0.2,0.1-0.3,0.2-0.5,0.4c-0.1,0.1-0.3,0.2-0.4,0.3c-0.2,0.2-0.5,0.3-0.7,0.5
			c0,0,0,0,0,0c0,0-0.1,0-0.1,0.1c0,0-0.1,0.1-0.1,0.1c-0.1,0.1-0.3,0.2-0.4,0.3c-0.2,0.1-0.3,0.3-0.5,0.4c-0.1,0.1-0.3,0.2-0.4,0.3
			c0,0,0,0,0,0c0,0,0,0,0,0l0,0c-0.5,0.4-0.9,0.7-1.4,1.1c-0.2,0.2-0.4,0.3-0.6,0.5c-0.4,0.3-0.7,0.6-1.1,0.9c0,0-0.1,0.1-0.1,0.1
			c-0.1,0.1-0.2,0.2-0.3,0.2c-0.2,0.2-0.4,0.3-0.5,0.5c-0.5,0.4-0.9,0.8-1.3,1.2c-0.3,0.2-0.5,0.5-0.8,0.7c-0.3,0.3-0.6,0.5-0.9,0.8
			c-4.5,4.1-8.8,8.6-13.4,12.6c-0.2,0.2-0.5,0.4-0.7,0.6c-0.4,0.4-0.8,0.7-1.2,1c-0.1,0.1-0.1,0.1-0.2,0.2c-0.3,0.2-0.5,0.4-0.8,0.7
			c-0.4,0.3-0.8,0.6-1.1,0.9c-0.2,0.2-0.4,0.3-0.6,0.5c-0.3,0.2-0.6,0.4-0.9,0.6c-0.2,0.1-0.4,0.3-0.6,0.5c0,0-0.1,0-0.1,0.1
			c-0.4,0.3-0.7,0.5-1.1,0.8c-0.4,0.2-0.7,0.5-1.1,0.7c-0.2,0.2-0.5,0.3-0.7,0.5c-0.3,0.2-0.6,0.4-0.9,0.6c-0.3,0.2-0.6,0.3-0.9,0.5
			c-0.2,0.1-0.4,0.3-0.7,0.4c-0.4,0.2-0.9,0.5-1.4,0.7c-0.3,0.2-0.7,0.4-1,0.5c-0.1,0-0.2,0.1-0.3,0.1c-0.1,0.1-0.2,0.1-0.3,0.2
			c-0.5,0.2-1,0.4-1.5,0.7c-0.2,0.1-0.4,0.2-0.7,0.3c-0.2,0.1-0.5,0.2-0.7,0.3c-0.9,0.3-1.8,0.7-2.8,1c-1.4,0.4-3.2-0.1-4.6,0.2
			c-0.3,0.1-0.7,0.2-1,0.3c-0.1,0-0.2,0.1-0.2,0.1c-0.3,0.1-0.7,0.3-1,0.4c0,0,0,0,0,0c-0.3,0.2-0.7,0.3-1,0.5
			c-0.1,0.1-0.2,0.1-0.3,0.2c-0.3,0.1-0.5,0.3-0.8,0.4c-0.4,0.2-0.8,0.5-1.2,0.7c0,0-0.1,0-0.1,0.1c-0.7,0.4-1.5,0.7-2.2,1
			c-0.1,0-0.1,0-0.2,0.1c-0.4,0.1-0.8,0.3-1.2,0.4c-0.5,0.1-1.1,0.2-1.7,0.3c0,0,0,0-0.1,0c-0.3,0-0.5,0-0.8,0
			c-0.3,0-0.6-0.1-0.9-0.1C20.9,199,15,205,9.7,211.6c-0.7-0.9-3-1.4-4.1-0.3c-2.1,3.3-5.6,5.3-5.6,10.6c2.6-0.1,5.1-0.3,7.7-0.4
			c10.3-8.1,17.7-18.9,33.8-21.8c-2.4,5.2-4.7,10.4-11.2,11.9c1.1,4.3-2.8,5.6-2.5,10.4c0,2.9,4.5,0.8,3.3,5
			c7.9-2.6,9.6-12.4,14-17.7c0.1-0.1,0.2-0.3,0.4-0.4c0,0,0.1-0.1,0.1-0.1c0.1-0.1,0.2-0.2,0.4-0.4c0,0,0.1-0.1,0.1-0.1
			c0.1-0.1,0.3-0.3,0.4-0.4c0,0,0.1-0.1,0.1-0.1c0.2-0.2,0.4-0.4,0.6-0.6c0.1,0,0.1-0.1,0.2-0.1c0.2-0.1,0.3-0.3,0.5-0.5
			c0.1-0.1,0.2-0.2,0.3-0.3c0.1-0.1,0.2-0.2,0.3-0.3c0.1-0.1,0.3-0.3,0.4-0.4c0.1-0.1,0.1-0.1,0.2-0.2c1.8-1.5,3.8-3,5.5-4.1
			c0.2-0.1,0.4-0.3,0.7-0.4c0,0,0.1,0,0.1-0.1c0.2-0.1,0.4-0.2,0.5-0.3c0.1-0.1,0.2-0.1,0.3-0.2c0.1-0.1,0.2-0.1,0.4-0.2
			c0.2-0.1,0.4-0.2,0.7-0.3c8.5-3,20.4,0.2,29.2-1c12.7-1.7,31.3-9.1,39.8-14.9c0.3-0.2,0.6-0.4,0.9-0.7c0,0,0.1-0.1,0.1-0.1
			c0,0,0.1,0,0.1-0.1c0,0,0,0,0.1-0.1c0.2-0.2,0.4-0.3,0.6-0.5c0.1-0.1,0.2-0.1,0.2-0.2c0.2-0.2,0.4-0.4,0.7-0.6
			c0.1-0.1,0.1-0.1,0.2-0.2c0.3-0.3,0.5-0.5,0.8-0.8c0,0,0,0,0,0c4.2-4.5,7.2-10.9,10.8-16.2c0,0,0,0,0,0c0.3-0.5,0.6-0.9,0.9-1.4
			c0.2-0.2,0.3-0.4,0.5-0.6c0.1-0.2,0.3-0.4,0.4-0.5c0.1-0.1,0.1-0.1,0.2-0.2c0.2-0.3,0.5-0.6,0.7-0.9c0.1-0.2,0.3-0.3,0.4-0.5
			c0.2-0.3,0.5-0.5,0.7-0.8c0.2-0.2,0.3-0.3,0.5-0.5c0.2-0.2,0.5-0.5,0.8-0.7c0.2-0.1,0.3-0.3,0.5-0.4c0.3-0.2,0.6-0.5,0.9-0.7
			c0.1-0.1,0.3-0.2,0.4-0.3c0,0,0.1,0,0.1-0.1c0.4-0.3,0.9-0.6,1.3-0.8c10.2-5.6,24.7-6.5,37.6-8.6c1-0.2,2-0.3,3-0.4
			c0.1,0,0.1,0,0.2,0c0.6-0.1,1.2-0.2,1.8-0.2c0,0,0.1,0,0.1,0c4.4-0.5,9.2-0.9,13.9-1c0.2,0,0.3,0,0.5,0c0.5,0,1,0,1.4,0
			c0.3,0,0.5,0,0.8,0c0.4,0,0.9,0,1.3,0c0.3,0,0.6,0,0.9,0c0.4,0,0.8,0,1.2,0c0.3,0,0.6,0,1,0c0.4,0,0.7,0,1.1,0c0.3,0,0.7,0,1,0
			c0.3,0,0.7,0,1,0c0.4,0,0.7,0,1.1,0.1c0.3,0,0.6,0,0.9,0c0.4,0,0.8,0.1,1.2,0.1c0.2,0,0.5,0,0.7,0.1c0.6,0.1,1.2,0.1,1.9,0.2
			c5,0.5,9.7,2.7,14.5,2.8c0.7,0,1.4,0,2.2,0c0.2,0,0.4,0,0.6,0c0.5,0,1,0,1.4-0.1c0.2,0,0.5,0,0.7,0c0.5,0,0.9-0.1,1.4-0.1
			c0.2,0,0.4,0,0.6-0.1c0.6-0.1,1.1-0.1,1.6-0.2c0.1,0,0.2,0,0.2,0c0.6-0.1,1.2-0.2,1.8-0.3c0.2,0,0.3-0.1,0.5-0.1
			c0.4-0.1,0.8-0.2,1.2-0.3c0.2-0.1,0.4-0.1,0.6-0.2c0.4-0.1,0.7-0.2,1.1-0.3c0.2-0.1,0.4-0.1,0.6-0.2c0.4-0.1,0.8-0.3,1.2-0.4
			c0.1,0,0.3-0.1,0.4-0.1c0.5-0.2,1-0.4,1.5-0.6c0.2-0.1,0.3-0.1,0.5-0.2c0.3-0.1,0.6-0.3,1-0.5c0.2-0.1,0.4-0.2,0.6-0.3
			c0.3-0.1,0.5-0.3,0.8-0.4c0.2-0.1,0.4-0.2,0.6-0.3c0.3-0.2,0.5-0.3,0.8-0.5c0.2-0.1,0.3-0.2,0.5-0.3c0.4-0.3,0.8-0.5,1.1-0.8
			c0,0,0,0,0,0c0.5-0.4,1-0.7,1.5-1.1c0.1-0.1,0.1-0.1,0.2-0.2c0.4-0.3,0.8-0.7,1.2-1c0.1-0.1,0.2-0.2,0.4-0.3
			c0.3-0.3,0.6-0.6,1-0.9c0.1-0.1,0.3-0.3,0.4-0.4c0.3-0.3,0.6-0.6,0.9-1c0.1-0.1,0.2-0.2,0.3-0.4c0.3-0.4,0.7-0.8,1-1.2
			c0.1-0.1,0.1-0.1,0.2-0.2c0.4-0.5,0.8-1,1.2-1.5c0-0.1,0.1-0.1,0.1-0.2c0.3-0.4,0.7-0.9,1-1.3c0.1-0.2,0.2-0.3,0.3-0.5
			c0.3-0.4,0.5-0.7,0.8-1.1c0.1-0.2,0.2-0.4,0.4-0.5c0.2-0.3,0.5-0.7,0.7-1.1c0.1-0.2,0.2-0.4,0.4-0.5c0.2-0.4,0.5-0.8,0.7-1.2
			c0.1-0.2,0.2-0.3,0.3-0.5c0.3-0.5,0.7-1.1,1-1.6c0.1-0.1,0.2-0.3,0.2-0.4c0.2-0.4,0.5-0.8,0.7-1.2c0.1-0.3,0.3-0.5,0.4-0.8
			c0.2-0.3,0.4-0.6,0.5-0.9c0.2-0.3,0.4-0.6,0.5-0.9c0.1-0.2,0.3-0.5,0.4-0.7c0.4-0.7,0.8-1.4,1.2-2.2c0-0.1,0.1-0.1,0.1-0.2
			c0.3-0.6,0.7-1.2,1.1-1.8c7.5-0.6,10.6,6.4,16.7,5.8c1.7-0.2,4.5-2.9,7.5-4.5c2.9-1.6,6.2-2.4,9.1-3.6c0.7-0.3,1.4-0.6,2.1-1
			c0,0,0.1,0,0.1-0.1c0,0,0.1-0.1,0.1-0.1c0.6-0.3,1.2-0.7,1.8-1c0,0,0.1-0.1,0.1-0.1c0,0,0.1,0,0.1-0.1c0.7-0.4,1.3-0.8,1.9-1.2
			c0,0,0.1-0.1,0.1-0.1c0.5-0.4,1.1-0.7,1.6-1.1c0,0,0,0,0,0c0,0,0,0,0.1,0c0,0,0.1-0.1,0.1-0.1c0,0,0,0,0.1,0
			c0.1-0.1,0.2-0.1,0.2-0.2c0.3-0.2,0.5-0.4,0.8-0.5c0.1-0.1,0.2-0.1,0.3-0.2c0.2-0.2,0.5-0.3,0.7-0.5c0.1,0,0.1-0.1,0.2-0.1
			c0.1-0.1,0.3-0.2,0.4-0.3c0.2-0.1,0.3-0.2,0.5-0.3c0.1,0,0.1-0.1,0.2-0.1c0.2-0.1,0.3-0.2,0.5-0.3c0.2-0.1,0.4-0.2,0.5-0.3
			c0.2-0.1,0.4-0.2,0.6-0.4c0.1-0.1,0.3-0.2,0.4-0.3c0.1,0,0.1-0.1,0.2-0.1c0.2-0.1,0.3-0.2,0.5-0.3c0.2-0.1,0.4-0.2,0.5-0.3
			c0.2-0.1,0.4-0.2,0.6-0.3c0.2-0.1,0.3-0.2,0.5-0.2c0.1,0,0.1-0.1,0.2-0.1c0.2-0.1,0.3-0.1,0.5-0.2c0.2-0.1,0.3-0.1,0.5-0.2
			c0.1,0,0.1,0,0.2-0.1c0.2-0.1,0.4-0.1,0.6-0.2c0.2-0.1,0.4-0.1,0.6-0.2c0,0,0.1,0,0.1,0c0.2-0.1,0.4-0.1,0.6-0.2
			c0.2,0,0.3-0.1,0.5-0.1c0.1,0,0.2,0,0.2-0.1c0.2,0,0.4-0.1,0.6-0.1c0.2,0,0.4-0.1,0.6-0.1c0.2,0,0.5-0.1,0.7-0.1
			c0.2,0,0.4,0,0.6-0.1c0.1,0,0.2,0,0.3,0c0.2,0,0.4,0,0.6,0c0.2,0,0.4,0,0.5,0c0.1,0,0.2,0,0.2,0c0.2,0,0.5,0,0.7,0
			c0.2,0,0.4,0,0.7,0c0.1,0,0.2,0,0.2,0c0.3,0,0.5,0.1,0.8,0.1c0.1,0,0.3,0,0.4,0c0.1,0,0.3,0,0.4,0.1c0.5,0.1,1,0.2,1.5,0.3
			c0-0.4,0-0.7,0-1.1c0-0.1,0-0.1,0-0.2c0-0.3,0.1-0.6,0.2-0.9c0-0.1,0-0.1,0.1-0.2c0.1-0.3,0.2-0.5,0.3-0.7c0,0,0,0,0,0
			c0.1-0.2,0.3-0.4,0.5-0.6c0,0,0.1-0.1,0.1-0.1c0.2-0.2,0.4-0.3,0.6-0.5c0,0,0.1-0.1,0.2-0.1c0.2-0.1,0.5-0.2,0.7-0.3
			c0,0,0,0,0.1,0c0.3-0.1,0.5-0.2,0.8-0.3c0.1,0,0.2,0,0.2-0.1c0.3-0.1,0.6-0.1,0.9-0.2c0.1,0,0.2,0,0.3,0c0.3,0,0.5-0.1,0.8-0.1
			c0.1,0,0.3,0,0.4,0c0.3,0,0.5,0,0.8-0.1c0.2,0,0.4,0,0.5,0c0.1,0,0.2,0,0.3,0c2.5-0.1,5.3-0.2,7.9-0.6c0,0,0,0,0,0c0,0,0,0,0,0
			c0.8-0.1,1.5-0.3,2.2-0.4c0,0,0.1,0,0.1,0c0.3-0.1,0.6-0.2,0.9-0.3c0.1,0,0.2-0.1,0.2-0.1c0.3-0.1,0.6-0.2,1-0.4
			c0.3-0.1,0.6-0.3,0.9-0.4c0.1,0,0.2-0.1,0.2-0.1c0.2-0.1,0.4-0.2,0.6-0.3c0.1,0,0.1-0.1,0.2-0.1c0.2-0.1,0.4-0.3,0.6-0.4
			c0,0,0.1,0,0.1-0.1C363.9,95,364.4,94.7,364.8,94.2C364.8,94.3,364.8,94.2,364.8,94.2z"/>
	</g>
	<g>
		<path d="M67.3,120l0.5-5.8l5,0.5l-0.5,5.8l8.2,0.8l-0.3,5.9l-23.9-2.2l1.2-12.4l5.5-0.9l-0.7,8L67.3,120z"/>
		<path d="M84.5,99.9l-22.2-8.1l1.5-5.7l17.7,6.5l2.7-7.3l4.5,3.3L84.5,99.9z"/>
		<path d="M91.3,66.7l-16.2-0.6l1.3-5.8l11.3,0.5l-5.7-8.6l4.6-3.6l13.3,21.3l-4.1,4.6L91.3,66.7z"/>
		<path d="M121.8,17.2l7.4-3.6c6.1-2.9,13.2-0.7,16.1,5.4c2.9,6,0.3,13-5.8,16l-7.4,3.6L121.8,17.2z M135.2,31.5l1.6-0.8
			c3.4-1.7,4.7-5.9,3.1-9.1c-1.6-3.3-5.7-4.8-9.1-3.2l-1.6,0.8L135.2,31.5z"/>
		<path d="M187.2,11c0.8,6.9-4.3,13-11.2,13.7c-6.9,0.8-13.2-4.1-13.9-10.9c-0.8-6.9,4.3-13,11.2-13.7S186.5,4.1,187.2,11z
			 M168,13.1c0.4,3.6,3.8,6.6,7.5,6.2c3.7-0.4,6.3-4.1,5.9-7.7C181,8,177.6,5,173.9,5.4C170.2,5.8,167.5,9.5,168,13.1z"/>
		<path d="M223.9,11.9c-1.2-1.7-2.9-2.9-4.9-3.4c-4-1-7.6,1.2-8.5,5.1c-1,4.3,1.7,7.6,5.7,8.6c0.9,0.2,2.7,0.5,3.5,0l0.8-3.3l-6-1.4
			l2.8-4.5l10,2.4l-2.9,11.9c-2.6,0.8-6.8,0.8-10.3,0c-6.7-1.6-11-8.3-9.4-15c1.6-6.7,8.5-10.7,15.2-9.1c3.4,0.8,6.4,2.8,8.3,5.4
			L223.9,11.9z"/>
	</g>
	<g>
		<path d="M116.3,225.7l4.6,3.5l-3,4l-4.6-3.5l-5,6.5l-4.8-3.3l14.5-19.1l10,7.5l-2.1,5.1l-6.4-4.9L116.3,225.7z"/>
		<path d="M152.1,232.7l-8.6,22.4l-5.7-1.6l8.6-22.4L152.1,232.7z"/>
		<path d="M170.5,243.7l1.9-5.3l16.1,1.2l-0.4,5.4l-5.7-0.4l-1.4,18l-5.9,0.1l1.4-18.5L170.5,243.7z"/>
		<path d="M237.3,254.5l-18.8-8.3l3.8,12.1l-5.4,2.3l-7.3-23.4l0.1,0l18.7,8.1l-3.8-12.1l5.4-2.3L237.3,254.5L237.3,254.5z"/>
		<path d="M265,238.3l-14.8-18.5l10.5-8.4l3.9,3.3l-6.7,5.4l2.6,3.2l4.8-3.8l3.1,3.9l-4.8,3.8l2.8,3.6l7.2-5.8l2,4.8L265,238.3z"/>
		<path d="M287.8,186.9c-1.7,0.5-2.8,1.1-3.7,2.7c-0.5,0.9-0.8,2.5,0.2,3.2c3.2,2,6.7-8.4,14.1-3.8c4.5,2.8,4.6,7.7,2,11.9
			c-1.5,2.5-3.9,4.6-6.7,5.6l-2-5.3c1.7-0.3,3-1.3,3.9-2.8c0.6-1,1.1-3-0.2-3.8c-3.2-1.9-6.8,8.3-14,3.8c-4-2.4-4-7.5-1.7-11.2
			c1.4-2.3,3.7-4.2,6.3-5.1L287.8,186.9z"/>
		<path d="M300.9,148.8c-1.4,1.1-2.2,2-2.6,3.8c-0.2,1,0.1,2.7,1.3,2.9c3.7,0.7,3.4-10.1,11.9-8.4c5.2,1,6.9,5.6,6,10.4
			c-0.6,2.9-2,5.7-4.3,7.5l-3.7-4.3c1.5-0.8,2.4-2.3,2.7-4c0.2-1.2,0-3.2-1.5-3.5c-3.6-0.7-3.5,10.1-11.8,8.5
			c-4.6-0.9-6.3-5.7-5.5-9.9c0.5-2.7,2.1-5.2,4.2-6.9L300.9,148.8z"/>
	</g>
</g>
</svg>
