<?xml version="1.0" encoding="utf-8"?>
<!-- Generator: Adobe Illustrator 18.1.1, SVG Export Plug-In . SVG Version: 6.00 Build 0)  -->
<svg version="1.1" id="Layer_1" xmlns="http://www.w3.org/2000/svg" xmlns:xlink="http://www.w3.org/1999/xlink" x="0px" y="0px"
	 viewBox="0 0 370 120.2" enable-background="new 0 0 370 120.2" xml:space="preserve">
<path fill="#F26522" d="M106.9,84.9c0.1,0.1,0.2,0.1,0.3,0.2c2.3,1.7,2.5,4.1,2.5,6.6v9.9c0,2.5-0.1,4.5-2.1,6.3h210.8v-23H106.9z"
	/>
<g>
	<path fill="#00AEEF" d="M136.1,54.5c0.7,0.3,1.4,0.7,2.2,1.2c0.8,0.5,1.6,1,2.3,1.6c0.7,0.6,1.3,1.3,1.8,2c0.5,0.7,0.8,1.5,0.8,2.4
		c0,0.5-0.2,1.1-0.6,1.8c-0.4,0.7-0.8,1-1.4,1c-0.4,0-0.7-0.1-0.9-0.4c-0.3-0.3-0.4-0.6-0.4-0.9c0-0.4,0.1-0.6,0.3-0.8
		c0.2-0.2,0.3-0.5,0.3-0.8c0-0.5-0.2-1-0.7-1.5c-0.4-0.5-1-0.9-1.5-1.4c-0.6-0.4-1.2-0.8-1.8-1.2c-0.6-0.3-1.1-0.6-1.5-0.7
		c-0.6,1.3-1.2,2.9-1.9,4.7c-0.7,1.8-1.3,3.6-1.9,5.5c-0.6,1.9-1.1,3.7-1.5,5.5c-0.4,1.8-0.6,3.5-0.6,4.9c0,0.8,0.1,1.7,0.4,2.6
		c0.3,0.9,0.9,1.4,1.9,1.4c0.4,0,0.9-0.1,1.4-0.4c0.5-0.3,0.9-0.5,1.4-0.9c0.4-0.3,0.8-0.6,1.2-0.9c0.3-0.3,0.6-0.4,0.8-0.4
		c0.7,0,1,0.3,1,1c0,0.4-0.2,0.9-0.7,1.3c-0.5,0.4-1,0.8-1.7,1.2c-0.7,0.4-1.3,0.7-2,0.9c-0.7,0.2-1.2,0.3-1.5,0.3c-2,0-3.3-0.7-4-2
		c-0.7-1.4-1-2.9-1-4.7c0-1.5,0.2-3.2,0.5-5.1c0.4-1.9,0.8-3.8,1.4-5.7c0.6-1.9,1.2-3.8,1.9-5.6c0.7-1.8,1.3-3.4,1.9-4.9
		c-2.5-0.8-5-1.4-7.6-1.8c-2.6-0.4-5.1-0.8-7.7-1c-2.1,3.9-4.8,7.9-8.2,12.1c-3.4,4.2-7.2,8-11.4,11.5c-4.2,3.5-8.7,6.3-13.4,8.6
		c-4.7,2.3-9.4,3.4-14.1,3.4c-2.3,0-4.5-0.3-6.8-0.9c-2.3-0.6-4.3-1.5-6.1-2.7c-1.8-1.2-3.3-2.8-4.4-4.7c-1.1-1.9-1.7-4.1-1.7-6.7
		c0-3.4,1-6.4,3.1-8.9c2-2.5,4.7-4.7,8.1-6.5c3.3-1.8,7.1-3.2,11.2-4.3c4.1-1.1,8.3-2,12.4-2.6c4.1-0.6,8-1,11.7-1.3
		c3.7-0.2,6.8-0.3,9.2-0.3c1.2,0,2.3,0,3.5,0c1.1,0,2.3,0.1,3.5,0.2c0.6-1.4,1.2-3,1.9-4.8c0.7-1.8,1.3-3.7,1.8-5.6
		c0.5-1.9,1-3.8,1.4-5.6c0.4-1.8,0.6-3.5,0.6-4.9c0-0.9-0.2-1.9-0.5-2.9c-0.3-1-1.1-1.4-2.3-1.4c-0.7,0-1.3,0.1-1.9,0.4
		c-0.6,0.3-1.2,0.5-1.8,0.8c-0.5,0.3-1,0.6-1.4,0.8c-0.4,0.3-0.7,0.4-0.9,0.4c-0.2,0-0.4-0.1-0.5-0.3c-0.1-0.2-0.2-0.4-0.2-0.7
		c0-0.5,0.4-1,1.1-1.5c0.7-0.5,1.6-1,2.6-1.3c1-0.4,2-0.7,3-0.9c1-0.3,1.7-0.4,2.3-0.4c1,0,1.9,0.2,2.5,0.7c0.7,0.4,1.2,1,1.5,1.6
		c0.4,0.7,0.6,1.4,0.8,2.2c0.1,0.8,0.2,1.7,0.2,2.6c0,1.6-0.2,3.3-0.5,5.2c-0.3,1.9-0.8,3.7-1.3,5.6c-0.5,1.9-1.1,3.7-1.7,5.5
		c-0.6,1.8-1.2,3.5-1.8,4.9c2.6,0.4,5.1,0.8,7.6,1.2c2.5,0.4,4.9,1.1,7.4,1.9c0.6-1.3,1.2-2.6,1.8-4c0.6-1.3,1.2-2.6,1.8-4
		c0.7-1.6,1.7-3.5,2.8-5.8c1.1-2.3,2.3-4.6,3.6-6.9c1.3-2.3,2.6-4.5,3.9-6.6c1.3-2.1,2.5-3.8,3.6-5.2c0.4-0.6,1.2-1,2.4-1.3
		c1.2-0.3,2.1-0.4,2.9-0.4c0.1,0,0.4,0,0.8,0.1c0.4,0,0.6,0.2,0.6,0.5c0,0.2-0.1,0.4-0.2,0.5c-4.1,5.5-7.9,11-11.4,16.6
		C142,42.4,138.9,48.3,136.1,54.5z M111.6,52.5c-1-0.1-1.9-0.1-2.8-0.2c-0.9,0-1.9-0.1-2.9-0.1c-2.2,0-5,0.1-8.4,0.3
		c-3.4,0.2-7,0.6-10.8,1.2c-3.8,0.6-7.7,1.4-11.5,2.4c-3.9,1-7.4,2.3-10.4,4c-3.1,1.6-5.6,3.6-7.5,5.9c-1.9,2.3-2.9,5-2.9,8.1
		c0,2.1,0.5,3.8,1.4,5.3c1,1.5,2.2,2.7,3.6,3.6c1.5,0.9,3.1,1.6,4.9,2.1c1.8,0.4,3.6,0.7,5.3,0.7c4.3,0,8.6-1.1,12.8-3.2
		c4.2-2.1,8.2-4.8,12-8.1c3.7-3.3,7.1-6.8,10-10.8C107.4,59.8,109.8,56.1,111.6,52.5z"/>
	<path fill="#00AEEF" d="M166.2,78.1c-1.3,0-2.4-0.3-3.2-0.9c-0.8-0.6-1.5-1.3-2-2.2c-0.5-0.9-0.9-1.9-1.1-3
		c-0.2-1.1-0.3-2.3-0.3-3.3c0-0.6,0-1.1,0-1.6c0-0.5,0.1-1.1,0.2-1.6c-0.6,1-1.4,2.3-2.3,3.8c-1,1.5-2,2.9-3.2,4.3
		c-1.2,1.4-2.4,2.5-3.7,3.5c-1.3,1-2.6,1.5-3.8,1.5c-1.2,0-2.1-0.3-2.6-1c-0.5-0.7-0.8-1.6-0.8-2.7c0-1.9,0.5-4.1,1.5-6.5
		c1-2.5,2.3-4.8,4-7.2c1.6-2.3,3.3-4.4,5.2-6.3c1.9-1.8,3.7-3,5.4-3.6c1.4-0.5,2.6-0.8,3.6-0.8c1,0,2.1,0.2,3.2,0.7
		c1.1,0.4,1.9,1.1,2.5,2.1c0.1,0.2,0.1,0.3,0.2,0.4c0.1,0.1,0.1,0.2,0.1,0.4c0,0.2-0.2,0.3-0.7,0.3c-0.4,0-0.8,0.3-1.2,0.8
		c-0.4,0.7-0.8,1.6-1.2,2.7c-0.3,1.1-0.6,2.3-0.8,3.5c-0.2,1.2-0.4,2.5-0.5,3.6c-0.1,1.2-0.2,2.2-0.2,3c0,0.5,0,1.2,0.1,2.1
		c0.1,0.9,0.2,1.8,0.4,2.6c0.2,0.8,0.6,1.6,1,2.2c0.5,0.6,1.1,0.9,1.8,0.9c1,0,2.1-0.5,3.3-1.6c1.2-1.1,2.4-2.3,3.5-3.7
		c1.1-1.4,2.1-2.6,3-3.7c0.9-1.1,1.5-1.6,1.9-1.6c0.2,0,0.3,0.2,0.3,0.5c0,0.4-0.2,1-0.7,1.5c-0.4,0.7-1,1.6-1.8,2.6
		c-0.7,1-1.5,2-2.3,2.9c-0.8,1-1.6,1.8-2.5,2.6c-0.9,0.8-1.7,1.4-2.5,1.9c-0.6,0.3-1.2,0.5-1.9,0.7C167.6,78,166.9,78.1,166.2,78.1z
		 M163.7,54c-0.2-0.1-0.5-0.1-1-0.1c-1.8,0-3.5,0.6-5.1,1.8c-1.6,1.2-2.9,2.5-4,3.8c-0.7,0.7-1.4,1.6-2.1,2.7
		c-0.8,1.1-1.5,2.2-2.1,3.5c-0.7,1.2-1.2,2.4-1.7,3.7c-0.5,1.2-0.7,2.4-0.7,3.4c0,0.6,0.1,1.1,0.3,1.6c0.2,0.5,0.6,0.7,1.2,0.7
		c0.6,0,1.2-0.2,1.8-0.5c0.6-0.4,1.2-0.8,1.8-1.4c0.6-0.5,1.1-1.1,1.6-1.7c0.5-0.6,0.9-1.1,1.2-1.4c1.9-2.5,3.6-5.1,5.1-7.7
		C161.3,59.7,162.6,56.9,163.7,54z"/>
	<path fill="#00AEEF" d="M216.3,72.2c-1.5,0-2.7-0.6-3.7-1.8c-1-1.2-1.8-2.4-2.4-3.6c-0.3,1-0.7,2.2-1.3,3.6
		c-0.6,1.4-1.3,2.6-2.1,3.8c-0.8,1.2-1.8,2.2-2.9,3c-1.1,0.8-2.2,1.2-3.5,1.2c-1.2,0-2.2-0.3-3-0.9c-0.8-0.6-1.5-1.3-2-2.2
		c-0.5-0.9-0.8-1.9-1-3c-0.1-1.1-0.2-2.1-0.1-3.1c-0.7,0.9-1.6,2-2.9,3.4c-1.3,1.4-2.7,2.8-4.2,4.1c-1.5,1.4-3,2.5-4.5,3.5
		c-1.5,1-2.8,1.5-3.9,1.5c-1.1,0-1.9-0.4-2.3-1.1c-0.4-0.7-0.6-1.6-0.6-2.6c0-1.3,0.4-3.3,1.3-5.9c0.8-2.6,1.9-5.2,3.3-7.8
		c1.4-2.6,2.9-4.8,4.5-6.8c1.6-1.9,3.3-2.9,4.9-2.9c0.2,0,0.5,0.1,0.8,0.2c0.3,0.1,0.4,0.3,0.4,0.6c0,0.2-0.1,0.4-0.3,0.5
		c-0.8,0.9-1.9,2.3-3.3,4.4c-1.4,2-2.8,4.2-4.1,6.5c-1.4,2.3-2.5,4.5-3.5,6.6c-1,2.1-1.5,3.8-1.5,4.9c0,0.7,0.3,1.1,0.9,1.1
		c1.3,0,2.8-0.6,4.4-1.9c1.6-1.2,3.2-2.7,4.7-4.4c1.5-1.7,2.9-3.5,4.2-5.3c1.3-1.8,2.3-3.2,2.9-4.2c0.5-0.8,1-1.6,1.4-2.4
		c0.4-0.8,1-1.6,1.5-2.3c0.1-0.3,0.4-0.5,0.8-0.5c0.4-0.1,0.8-0.1,1-0.1c0.4,0,0.8,0.1,1.2,0.3c0.4,0.2,0.6,0.6,0.6,1.2
		c-0.4,0.7-0.9,1.6-1.4,2.6c-0.5,1-0.9,2-1.3,3.1c-0.4,1.1-0.7,2.2-0.9,3.2c-0.2,1.1-0.3,2-0.3,2.9c0,1,0.2,1.9,0.7,2.6
		c0.4,0.7,1.3,1.1,2.5,1.1c0.9,0,1.8-0.5,2.7-1.4c0.9-0.9,1.7-2.1,2.5-3.3c0.7-1.3,1.4-2.6,1.9-3.8c0.5-1.3,0.9-2.3,1.2-3
		c-0.4-1.1-0.8-2.5-1.4-4.2c-0.6-1.7-0.9-3.1-0.9-4.2c0-1.1,0.5-1.6,1.4-1.6c0.7,0,1.2,0.2,1.8,0.6c0.5,0.4,0.9,0.9,1.3,1.5
		c0.3,0.6,0.6,1.3,0.7,1.9c0.1,0.7,0.2,1.2,0.2,1.8c0,1.5-0.3,2.9-1,4.2c0.1,0.6,0.3,1.2,0.6,2c0.3,0.7,0.6,1.4,1,2.1
		c0.4,0.7,0.9,1.2,1.5,1.6c0.5,0.4,1.2,0.7,1.9,0.7c0.9,0,1.7-0.3,2.5-0.9c0.8-0.6,1.5-1.2,2.1-2c0.6-0.7,1.2-1.4,1.6-2
		c0.4-0.6,0.8-0.9,1.1-0.9c0.4,0,0.7,0.3,0.7,0.8c0,0.2-0.1,0.4-0.2,0.5c-0.4,0.6-1,1.3-1.5,2c-0.6,0.8-1.2,1.5-1.9,2.1
		c-0.7,0.7-1.4,1.2-2.3,1.6C217.9,71.9,217.1,72.2,216.3,72.2z"/>
	<path fill="#00AEEF" d="M241.9,78.1c-1.3,0-2.4-0.3-3.2-0.9c-0.8-0.6-1.5-1.3-2-2.2c-0.5-0.9-0.9-1.9-1.1-3
		c-0.2-1.1-0.3-2.3-0.3-3.3c0-0.6,0-1.1,0-1.6c0-0.5,0.1-1.1,0.2-1.6c-0.6,1-1.4,2.3-2.3,3.8c-1,1.5-2,2.9-3.2,4.3
		c-1.2,1.4-2.4,2.5-3.7,3.5c-1.3,1-2.6,1.5-3.8,1.5c-1.2,0-2.1-0.3-2.6-1c-0.5-0.7-0.8-1.6-0.8-2.7c0-1.9,0.5-4.1,1.5-6.5
		c1-2.5,2.3-4.8,4-7.2c1.6-2.3,3.3-4.4,5.2-6.3c1.9-1.8,3.7-3,5.4-3.6c1.4-0.5,2.6-0.8,3.6-0.8c1,0,2.1,0.2,3.2,0.7
		c1.1,0.4,1.9,1.1,2.5,2.1c0.1,0.2,0.1,0.3,0.2,0.4c0.1,0.1,0.1,0.2,0.1,0.4c0,0.2-0.2,0.3-0.7,0.3c-0.4,0-0.8,0.3-1.2,0.8
		c-0.4,0.7-0.8,1.6-1.2,2.7c-0.3,1.1-0.6,2.3-0.8,3.5c-0.2,1.2-0.4,2.5-0.5,3.6c-0.1,1.2-0.2,2.2-0.2,3c0,0.5,0,1.2,0.1,2.1
		c0.1,0.9,0.2,1.8,0.4,2.6c0.2,0.8,0.6,1.6,1,2.2c0.5,0.6,1.1,0.9,1.8,0.9c1,0,2.1-0.5,3.3-1.6c1.2-1.1,2.4-2.3,3.5-3.7
		c1.1-1.4,2.1-2.6,3-3.7c0.9-1.1,1.5-1.6,1.9-1.6c0.2,0,0.3,0.2,0.3,0.5c0,0.4-0.2,1-0.7,1.5c-0.4,0.7-1,1.6-1.8,2.6
		c-0.7,1-1.5,2-2.3,2.9c-0.8,1-1.6,1.8-2.5,2.6c-0.9,0.8-1.7,1.4-2.5,1.9c-0.6,0.3-1.2,0.5-1.9,0.7C243.3,78,242.6,78.1,241.9,78.1z
		 M239.5,54c-0.2-0.1-0.6-0.1-1-0.1c-1.8,0-3.5,0.6-5.1,1.8c-1.6,1.2-2.9,2.5-4,3.8c-0.7,0.7-1.4,1.6-2.1,2.7
		c-0.8,1.1-1.5,2.2-2.1,3.5c-0.7,1.2-1.2,2.4-1.7,3.7c-0.5,1.2-0.7,2.4-0.7,3.4c0,0.6,0.1,1.1,0.3,1.6c0.2,0.5,0.6,0.7,1.2,0.7
		c0.6,0,1.2-0.2,1.8-0.5c0.6-0.4,1.2-0.8,1.8-1.4c0.6-0.5,1.1-1.1,1.6-1.7c0.5-0.6,0.9-1.1,1.2-1.4c1.9-2.5,3.6-5.1,5-7.7
		C237,59.7,238.3,56.9,239.5,54z"/>
	<path fill="#00AEEF" d="M257.7,80.3c-2,0-3.5-0.6-4.5-1.9c-1-1.2-1.5-2.8-1.5-4.7c0-1.2,0.2-2.5,0.6-4.1c0.4-1.6,0.9-3.2,1.6-4.8
		c0.7-1.6,1.4-3.2,2.1-4.7c0.7-1.5,1.4-2.7,2.1-3.6c0.4-0.7,0.9-1,1.5-1c0.7,0,1.3,0.3,1.8,0.9c0.5,0.6,0.8,1.2,0.8,1.9
		c0,0.2,0,0.4-0.1,0.6c-0.1,0.2-0.2,0.4-0.3,0.6c-1.3,2.1-2.6,4.4-3.7,6.8c-1.2,2.4-1.8,4.9-1.8,7.5c0,1,0.2,1.9,0.6,2.7
		c0.4,0.8,1.2,1.3,2.3,1.3c1.8,0,3.5-0.7,5.4-2.1c1.8-1.4,3.5-2.9,4.9-4.6c1.5-1.7,2.7-3.2,3.7-4.6c1-1.4,1.6-2.1,1.8-2.1
		c0.2,0,0.4,0.1,0.4,0.3c0.1,0.2,0.1,0.4,0.1,0.5c0,0.5-0.3,1.1-0.8,1.8c-1,1.2-2.1,2.6-3.3,4.2c-1.2,1.5-2.6,3-4.1,4.3
		c-1.5,1.4-3,2.5-4.6,3.4C261.2,79.8,259.5,80.3,257.7,80.3z M264.6,48.8c-0.7,0-1.4-0.2-1.9-0.7c-0.5-0.5-0.8-1.1-0.8-1.9
		c0-0.9,0.3-1.7,1-2.4c0.7-0.7,1.5-1,2.5-1c0.7,0,1.4,0.2,1.9,0.7c0.5,0.5,0.8,1.1,0.8,1.9c0,0.9-0.3,1.7-1,2.4
		C266.4,48.4,265.6,48.8,264.6,48.8z"/>
	<path fill="#00AEEF" d="M277.4,80.3c-2,0-3.5-0.6-4.5-1.9c-1-1.2-1.5-2.8-1.5-4.7c0-1.2,0.2-2.5,0.6-4.1c0.4-1.6,0.9-3.2,1.6-4.8
		c0.7-1.6,1.4-3.2,2.1-4.7c0.7-1.5,1.4-2.7,2.1-3.6c0.4-0.7,0.9-1,1.5-1c0.7,0,1.3,0.3,1.8,0.9c0.5,0.6,0.8,1.2,0.8,1.9
		c0,0.2,0,0.4-0.1,0.6c-0.1,0.2-0.2,0.4-0.3,0.6c-1.3,2.1-2.6,4.4-3.7,6.8c-1.2,2.4-1.8,4.9-1.8,7.5c0,1,0.2,1.9,0.6,2.7
		c0.4,0.8,1.2,1.3,2.3,1.3c1.8,0,3.5-0.7,5.4-2.1c1.8-1.4,3.5-2.9,4.9-4.6c1.5-1.7,2.7-3.2,3.7-4.6c1-1.4,1.6-2.1,1.8-2.1
		c0.2,0,0.4,0.1,0.4,0.3c0.1,0.2,0.1,0.4,0.1,0.5c0,0.5-0.3,1.1-0.8,1.8c-1,1.2-2,2.6-3.3,4.2c-1.2,1.5-2.6,3-4.1,4.3
		c-1.5,1.4-3,2.5-4.6,3.4C280.8,79.8,279.1,80.3,277.4,80.3z M284.3,48.8c-0.7,0-1.4-0.2-1.9-0.7c-0.5-0.5-0.8-1.1-0.8-1.9
		c0-0.9,0.3-1.7,1-2.4c0.7-0.7,1.5-1,2.5-1c0.7,0,1.4,0.2,1.9,0.7c0.5,0.5,0.8,1.1,0.8,1.9c0,0.9-0.3,1.7-1,2.4
		C286.1,48.4,285.2,48.8,284.3,48.8z"/>
	<path fill="#00AEEF" d="M136.1,54.5c0.7,0.3,1.4,0.7,2.2,1.2c0.8,0.5,1.6,1,2.3,1.6c0.7,0.6,1.3,1.3,1.8,2c0.5,0.7,0.8,1.5,0.8,2.4
		c0,0.5-0.2,1.1-0.6,1.8c-0.4,0.7-0.8,1-1.4,1c-0.4,0-0.7-0.1-0.9-0.4c-0.3-0.3-0.4-0.6-0.4-0.9c0-0.4,0.1-0.6,0.3-0.8
		c0.2-0.2,0.3-0.5,0.3-0.8c0-0.5-0.2-1-0.7-1.5c-0.4-0.5-1-0.9-1.5-1.4c-0.6-0.4-1.2-0.8-1.8-1.2c-0.6-0.3-1.1-0.6-1.5-0.7
		c-0.6,1.3-1.2,2.9-1.9,4.7c-0.7,1.8-1.3,3.6-1.9,5.5c-0.6,1.9-1.1,3.7-1.5,5.5c-0.4,1.8-0.6,3.5-0.6,4.9c0,0.8,0.1,1.7,0.4,2.6
		c0.3,0.9,0.9,1.4,1.9,1.4c0.4,0,0.9-0.1,1.4-0.4c0.5-0.3,0.9-0.5,1.4-0.9c0.4-0.3,0.8-0.6,1.2-0.9c0.3-0.3,0.6-0.4,0.8-0.4
		c0.7,0,1,0.3,1,1c0,0.4-0.2,0.9-0.7,1.3c-0.5,0.4-1,0.8-1.7,1.2c-0.7,0.4-1.3,0.7-2,0.9c-0.7,0.2-1.2,0.3-1.5,0.3c-2,0-3.3-0.7-4-2
		c-0.7-1.4-1-2.9-1-4.7c0-1.5,0.2-3.2,0.5-5.1c0.4-1.9,0.8-3.8,1.4-5.7c0.6-1.9,1.2-3.8,1.9-5.6c0.7-1.8,1.3-3.4,1.9-4.9
		c-2.5-0.8-5-1.4-7.6-1.8c-2.6-0.4-5.1-0.8-7.7-1c-2.1,3.9-4.8,7.9-8.2,12.1c-3.4,4.2-7.2,8-11.4,11.5c-4.2,3.5-8.7,6.3-13.4,8.6
		c-4.7,2.3-9.4,3.4-14.1,3.4c-2.3,0-4.5-0.3-6.8-0.9c-2.3-0.6-4.3-1.5-6.1-2.7c-1.8-1.2-3.3-2.8-4.4-4.7c-1.1-1.9-1.7-4.1-1.7-6.7
		c0-3.4,1-6.4,3.1-8.9c2-2.5,4.7-4.7,8.1-6.5c3.3-1.8,7.1-3.2,11.2-4.3c4.1-1.1,8.3-2,12.4-2.6c4.1-0.6,8-1,11.7-1.3
		c3.7-0.2,6.8-0.3,9.2-0.3c1.2,0,2.3,0,3.5,0c1.1,0,2.3,0.1,3.5,0.2c0.6-1.4,1.2-3,1.9-4.8c0.7-1.8,1.3-3.7,1.8-5.6
		c0.5-1.9,1-3.8,1.4-5.6c0.4-1.8,0.6-3.5,0.6-4.9c0-0.9-0.2-1.9-0.5-2.9c-0.3-1-1.1-1.4-2.3-1.4c-0.7,0-1.3,0.1-1.9,0.4
		c-0.6,0.3-1.2,0.5-1.8,0.8c-0.5,0.3-1,0.6-1.4,0.8c-0.4,0.3-0.7,0.4-0.9,0.4c-0.2,0-0.4-0.1-0.5-0.3c-0.1-0.2-0.2-0.4-0.2-0.7
		c0-0.5,0.4-1,1.1-1.5c0.7-0.5,1.6-1,2.6-1.3c1-0.4,2-0.7,3-0.9c1-0.3,1.7-0.4,2.3-0.4c1,0,1.9,0.2,2.5,0.7c0.7,0.4,1.2,1,1.5,1.6
		c0.4,0.7,0.6,1.4,0.8,2.2c0.1,0.8,0.2,1.7,0.2,2.6c0,1.6-0.2,3.3-0.5,5.2c-0.3,1.9-0.8,3.7-1.3,5.6c-0.5,1.9-1.1,3.7-1.7,5.5
		c-0.6,1.8-1.2,3.5-1.8,4.9c2.6,0.4,5.1,0.8,7.6,1.2c2.5,0.4,4.9,1.1,7.4,1.9c0.6-1.3,1.2-2.6,1.8-4c0.6-1.3,1.2-2.6,1.8-4
		c0.7-1.6,1.7-3.5,2.8-5.8c1.1-2.3,2.3-4.6,3.6-6.9c1.3-2.3,2.6-4.5,3.9-6.6c1.3-2.1,2.5-3.8,3.6-5.2c0.4-0.6,1.2-1,2.4-1.3
		c1.2-0.3,2.1-0.4,2.9-0.4c0.1,0,0.4,0,0.8,0.1c0.4,0,0.6,0.2,0.6,0.5c0,0.2-0.1,0.4-0.2,0.5c-4.1,5.5-7.9,11-11.4,16.6
		C142,42.4,138.9,48.3,136.1,54.5z M111.6,52.5c-1-0.1-1.9-0.1-2.8-0.2c-0.9,0-1.9-0.1-2.9-0.1c-2.2,0-5,0.1-8.4,0.3
		c-3.4,0.2-7,0.6-10.8,1.2c-3.8,0.6-7.7,1.4-11.5,2.4c-3.9,1-7.4,2.3-10.4,4c-3.1,1.6-5.6,3.6-7.5,5.9c-1.9,2.3-2.9,5-2.9,8.1
		c0,2.1,0.5,3.8,1.4,5.3c1,1.5,2.2,2.7,3.6,3.6c1.5,0.9,3.1,1.6,4.9,2.1c1.8,0.4,3.6,0.7,5.3,0.7c4.3,0,8.6-1.1,12.8-3.2
		c4.2-2.1,8.2-4.8,12-8.1c3.7-3.3,7.1-6.8,10-10.8C107.4,59.8,109.8,56.1,111.6,52.5z"/>
</g>
<g>
	<g>
		<g>
			<path fill="#21409A" d="M0.9,91.6c0-0.9,0.1-1.7-0.8-2.3v-4.1h8.8v4.1c-0.9,0.5-0.8,1.4-0.8,2.3V102c0,0.9-0.1,1.7,0.8,2.3v4.1
				H0.1v-4.1c0.9-0.5,0.8-1.4,0.8-2.3V91.6z"/>
			<path fill="#21409A" d="M21,92.2c0-1,0-2.5-1.4-2.5c-0.9,0-1.4,0.7-1.4,1.5c0,0.5,0.1,0.9,0.4,1.3c0.4,0.4,1.4,0.8,2,0.9
				c1.7,0.5,4.1,1.1,5.5,2.1c0.8,0.6,1.5,1.2,1.8,2.2c0.4,1,0.5,2.1,0.5,3.2v0.1c0,4.5-2,7.8-8.9,7.8c-3,0-6.1-0.6-8.4-2.4v-6.2h7.1
				c0,1.4,0,2.4,0.2,2.9c0.2,0.5,0.8,0.8,1.3,0.8c1,0,1.4-1,1.4-1.8c0-2.4-1.5-2.6-3.5-3.1c-4.4-1.1-6.9-2.1-6.9-7.2v-0.5
				c0.1-2.5,0.5-3.7,2.4-5.2c1.5-1.2,3.8-1.4,6-1.4c3.1,0,5.9,0.6,8.6,2.4v5.5H21V92.2z"/>
			<path fill="#21409A" d="M30.1,108.4v-4.1c0.9-0.5,0.8-1.4,0.8-2.3V91.6c0-0.9,0.1-1.7-0.8-2.3v-4.1h8.8v4.1
				c-0.9,0.5-0.8,1.4-0.8,2.3v11.9h0.7c1.8,0,1.8-1.1,1.8-2.6v-3.8H47v11.3H30.1z"/>
			<path fill="#21409A" d="M56.1,108.4h-8v-4.1c0.8-0.5,0.9-1.7,1.1-2.6l3.1-16.5h10.3L66,102c0.1,0.7,0.4,2,1.2,2.3v4.1h-9.1v-4.1
				c0.6-0.2,0.8-0.7,0.8-1.3c0-0.2-0.1-0.5-0.1-0.7h-3.5c-0.1,0.2-0.1,0.5-0.1,0.7c0,0.6,0.3,1.1,1,1.3V108.4z M58.1,97.8l-1.2-6.9
				h-0.1l-1.1,6.9H58.1z"/>
			<path fill="#21409A" d="M80.6,95.6L80.6,95.6l0.1-4.1c0-0.9,0.1-1.7-0.8-2.3v-4.1h7.4v4.1c-0.9,0.5-0.8,1.4-0.8,2.3v16.8h-7
				L75.2,98h-0.1v4c0,0.9-0.1,1.7,0.8,2.3v4.1h-7.2v-4.1c0.9-0.5,0.8-1.4,0.8-2.3V91.6c0-0.9,0.1-1.7-0.8-2.3v-4.1h7.9L80.6,95.6z"
				/>
			<path fill="#21409A" d="M99.6,85.2c2,0,4.3,0,5.9,1.3c1.9,1.5,2.1,3.6,2.1,5.8v8.7c0,2.3-0.1,4-1.9,5.7c-1.7,1.6-3.7,1.7-5.9,1.7
				H89.6v-4.1c0.8-0.4,0.9-1.1,0.9-1.8V91.1c0-0.8-0.1-1.5-0.9-1.8v-4.1H99.6z M97.8,103.5h0.6c1.6,0,2.1-0.6,2.1-2.3v-8.8
				c0-1.7-0.5-2.3-2.1-2.3h-0.6V103.5z"/>
		</g>
	</g>
	<path fill="#21409A" d="M17.6,83.6v-7.6c1.5-0.6,1.6-1.9,1.7-3.4V51.9c-0.1-1.4-0.2-2.7-1.7-3.4V41h19.3c3.3,0,7.1,0,10,1.7
		c3.2,1.9,4.2,5.5,4.2,9.1c0,4.9-1.9,8.2-6.7,9.6v0.1c5.5,0.7,7.4,5.1,7.4,10.1c0,3.5-0.8,7.4-3.6,9.6c-3,2.5-6.9,2.5-10.7,2.5H17.6
		z M32.6,57.5h0.9c2.9,0,4.4-0.6,4.4-3.8c0-3.1-1.6-3.8-4.4-3.8h-0.9V57.5z M32.6,74.8h1.1c3.2,0,4.4-1.3,4.4-4.7
		c0-3.3-1.1-4.6-4.4-4.6h-1.1V74.8z"/>
	<path fill="#21409A" d="M56.9,52.7c0-1.6,0.1-3.2-1.4-4.2V41h16.2v7.6c-1.6,1-1.4,2.6-1.4,4.2v19.2c0,1.6-0.1,3.2,1.4,4.2v7.6H55.5
		v-7.6c1.6-1,1.4-2.6,1.4-4.2V52.7z"/>
	<path fill="#21409A" d="M106.6,55.8H93.8v-0.9c0-1.9,0.4-5.5-2.5-5.5c-2.5,0-2.7,2.3-2.7,4.2v19c0,0.4,0.2,2.8,2.7,2.8
		c2.9,0,2.5-3.6,2.5-5.6v-1.9h-2.3v-8.3h15.1v20.4c-4.2,3.8-10.5,4.6-15.9,4.6c-3.8,0-8.2-0.3-11.2-2.8c-3.9-3.3-4.1-7.2-4.1-11.9
		V53.5c0-3.8,0.4-7.5,3.5-10.1c3.1-2.6,7.3-3.3,11.2-3.3c5.8,0,11.8,1.3,16.5,4.9V55.8z"/>
	<g>
		<path fill="#21409A" d="M0,83.7V69.4h7.5V73H4.7c-0.8,0-1.2,0.2-1.2,0.9H12c0.6,0,1.2,0.1,1.6-0.6h2.9v6.3h-2.9
			c-0.4-0.6-1-0.6-1.6-0.6H3.5c0,0.7,0.4,0.9,1.2,0.9h2.8v3.7H0z"/>
		<path fill="#21409A" d="M16.6,54.9v6.3h-2.9c-0.4-0.6-1-0.6-1.6-0.6H9.6v2H12c0.6,0,1.2,0.1,1.6-0.6h2.9v6.3h-2.9
			c-0.4-0.6-1-0.6-1.6-0.6H4.6c-0.6,0-1.2-0.1-1.6,0.6H0V62h2.9c0.4,0.6,1,0.6,1.6,0.6h1.8v-2H4.6c-0.6,0-1.2-0.1-1.6,0.6H0v-6.3
			h2.9c0.4,0.6,1,0.6,1.6,0.6H12c0.6,0,1.2,0.1,1.6-0.6H16.6z"/>
		<path fill="#21409A" d="M10.6,40.9h6v12.4h-2.9c-0.4-0.6-1-0.6-1.6-0.6H4.6c-0.6,0-1.2-0.1-1.6,0.6H0V40.9h5.6v4.8H5.1
			c-1.1,0-1.6,0.2-1.6,1.5v0.3h3v-3.3h3.2v3.3h3.4v-0.3c0-1.5-0.6-1.5-1.9-1.5h-0.5V40.9z"/>
	</g>
</g>
<path fill="#00AEEF" d="M71.5,57.3c1.2-0.4,2.4-0.8,3.7-1.1c3.9-1,7.7-1.8,11.5-2.4c1.3-0.2,2.6-0.4,3.9-0.5v-3
	c-1.8,0.2-3.6,0.4-5.5,0.7c-4.1,0.6-8.2,1.5-12.4,2.6c-0.4,0.1-0.9,0.3-1.3,0.4V57.3z"/>
<path fill="#00AEEF" d="M156.5,19.2c-0.4,0-0.7-0.1-0.8-0.1c-0.7,0-1.7,0.1-2.9,0.4c-1.2,0.3-2,0.7-2.4,1.3c-1.1,1.3-2.3,3-3.6,5.2
	c-1.3,2.1-2.6,4.3-3.9,6.6c-1.3,2.3-2.5,4.6-3.6,6.9c-1.1,2.3-2.1,4.2-2.8,5.8c-0.6,1.3-1.2,2.6-1.8,4c-0.6,1.3-1.2,2.6-1.8,4
	c-2.4-0.8-4.9-1.4-7.4-1.9c-2.5-0.4-5-0.8-7.6-1.2c0.6-1.5,1.2-3.1,1.8-4.9c0.6-1.8,1.2-3.7,1.7-5.5c0.5-1.9,0.9-3.7,1.3-5.6
	c0.3-1.9,0.5-3.6,0.5-5.2c0-0.9-0.1-1.7-0.2-2.6c-0.1-0.8-0.4-1.6-0.8-2.2c-0.4-0.7-0.9-1.2-1.5-1.6c-0.7-0.4-1.5-0.7-2.5-0.7
	c-0.5,0-1.3,0.1-2.3,0.4c-1,0.3-2,0.6-3,0.9c-1,0.4-1.8,0.8-2.6,1.3c-0.7,0.5-1.1,1-1.1,1.5c0,0.2,0.1,0.4,0.2,0.7
	c0.1,0.2,0.3,0.3,0.5,0.3c0.2,0,0.5-0.1,0.9-0.4c0.4-0.3,0.9-0.5,1.4-0.8c0.5-0.3,1.1-0.6,1.8-0.8c0.6-0.3,1.3-0.4,1.9-0.4
	c1.2,0,1.9,0.5,2.3,1.4c0.3,1,0.5,1.9,0.5,2.9c0,1.5-0.2,3.1-0.6,4.9c-0.4,1.8-0.9,3.7-1.4,5.6c-0.5,1.9-1.2,3.8-1.8,5.6
	c-0.7,1.8-1.3,3.4-1.9,4.8c-1.2-0.1-2.3-0.2-3.5-0.2c-0.5,0-1,0-1.5,0v2.9c0.2,0,0.5,0,0.7,0c0.9,0,1.8,0.1,2.8,0.2
	c-1.3,2.5-2.9,5.2-4.7,7.8v6.4c0.5-0.6,1.1-1.2,1.6-1.9c3.4-4.2,6.1-8.2,8.2-12.1c2.6,0.3,5.1,0.6,7.7,1c2.6,0.4,5.1,1,7.6,1.8
	c-0.6,1.5-1.2,3.1-1.9,4.9c-0.7,1.8-1.3,3.7-1.9,5.6c-0.6,1.9-1.1,3.8-1.4,5.7c-0.4,1.9-0.5,3.6-0.5,5.1c0,1.8,0.3,3.3,1,4.7
	c0.7,1.4,2,2,4,2c0.4,0,0.9-0.1,1.5-0.3c0.7-0.2,1.3-0.5,2-0.9c0.7-0.4,1.2-0.8,1.7-1.2c0.5-0.4,0.7-0.9,0.7-1.3c0-0.7-0.3-1-1-1
	c-0.2,0-0.5,0.1-0.8,0.4c-0.3,0.3-0.7,0.5-1.2,0.9c-0.4,0.3-0.9,0.6-1.4,0.9c-0.5,0.3-0.9,0.4-1.4,0.4c-1,0-1.7-0.5-1.9-1.4
	c-0.3-0.9-0.4-1.8-0.4-2.6c0-1.5,0.2-3.1,0.6-4.9c0.4-1.8,0.9-3.7,1.5-5.5c0.6-1.9,1.2-3.7,1.9-5.5c0.7-1.8,1.3-3.3,1.9-4.7
	c0.4,0.1,0.9,0.4,1.5,0.7c0.6,0.3,1.2,0.7,1.8,1.2c0.6,0.4,1.1,0.9,1.5,1.4c0.4,0.5,0.7,1,0.7,1.5c0,0.4-0.1,0.6-0.3,0.8
	c-0.2,0.2-0.3,0.5-0.3,0.8c0,0.4,0.1,0.7,0.4,0.9c0.3,0.3,0.6,0.4,0.9,0.4c0.6,0,1.1-0.3,1.4-1c0.4-0.7,0.6-1.3,0.6-1.8
	c0-0.9-0.3-1.7-0.8-2.4c-0.5-0.7-1.1-1.4-1.8-2c-0.7-0.6-1.4-1.2-2.3-1.6c-0.8-0.5-1.5-0.9-2.2-1.2c2.8-6.2,5.9-12.1,9.4-17.7
	c3.5-5.6,7.3-11.1,11.4-16.6c0.1-0.1,0.2-0.3,0.2-0.5C157.1,19.4,156.9,19.2,156.5,19.2z"/>
<path fill="#00AEEF" d="M69.6,85.7c-1.8,0-3.5-0.2-5.3-0.7c-1.8-0.4-3.4-1.1-4.9-2.1c-1.5-1-2.7-2.2-3.6-3.6c-1-1.5-1.4-3.2-1.4-5.3
	c0-2.1,0.4-4,1.3-5.7V66h-0.1v-3.7c-0.7,0.7-1.4,1.4-2,2.1c-2,2.5-3.1,5.5-3.1,8.9c0,2.6,0.6,4.8,1.7,6.7c1.1,1.9,2.6,3.5,4.4,4.7
	c1.8,1.2,3.9,2.2,6.1,2.7c2.3,0.6,4.5,0.9,6.8,0.9c2.8,0,5.7-0.4,8.6-1.3v-2.8C75.3,85.3,72.5,85.7,69.6,85.7z"/>
<g>
	<g>
		<path fill="#FFFFFF" d="M121,98.1l0.6-2.1h7.7l-0.6,2.1h-2.3l-2.1,7.5h-3.1l2.1-7.5H121z"/>
		<path fill="#FFFFFF" d="M137.1,96l-0.6,2h-4l-0.5,1.7h3.7l-0.5,2h-3.7l-0.5,1.9h4.1l-0.6,2h-7.2l2.6-9.6H137.1z"/>
		<path fill="#FFFFFF" d="M141.9,96l0.4,5.9h0l1.6-5.9h2.9l-2.7,9.6h-3.4l-0.4-5.9h0l-1.6,5.9h-2.9l2.7-9.6H141.9z"/>
		<path fill="#FFFFFF" d="M151.7,96l0.4,5.9h0l1.6-5.9h2.9l-2.6,9.6h-3.4l-0.4-5.9h0l-1.6,5.9h-2.9l2.7-9.6H151.7z"/>
		<path fill="#FFFFFF" d="M165.2,96l-0.6,2h-4l-0.5,1.7h3.7l-0.5,2h-3.7l-0.5,1.9h4.1l-0.6,2h-7.2l2.7-9.6H165.2z"/>
		<path fill="#FFFFFF" d="M170.5,97.8c-0.1-0.2-0.3-0.3-0.6-0.3c-0.2,0-0.4,0-0.6,0.1c-0.2,0.1-0.3,0.3-0.5,0.5
			c-0.1,0.2-0.3,0.6-0.4,1c-0.1,0.4-0.3,1-0.5,1.6c-0.2,0.6-0.3,1.2-0.4,1.6c-0.1,0.4-0.1,0.8-0.1,1c0,0.3,0.1,0.4,0.2,0.5
			c0.1,0.1,0.3,0.1,0.5,0.1c0.2,0,0.4,0,0.5-0.1c0.1-0.1,0.3-0.2,0.4-0.4c0.1-0.2,0.2-0.4,0.3-0.7c0.1-0.3,0.2-0.7,0.4-1.1h3
			l-0.2,0.7c-0.2,0.7-0.4,1.2-0.8,1.7c-0.3,0.4-0.7,0.8-1.2,1c-0.4,0.2-0.9,0.4-1.4,0.5c-0.5,0.1-1,0.1-1.5,0.1
			c-0.9,0-1.6-0.1-2.1-0.3c-0.5-0.2-0.9-0.5-1.1-0.9c-0.2-0.4-0.3-0.9-0.2-1.5c0.1-0.6,0.2-1.4,0.5-2.3c0.3-0.9,0.5-1.7,0.9-2.3
			c0.3-0.6,0.7-1.2,1.1-1.5c0.4-0.4,1-0.7,1.6-0.9c0.6-0.2,1.3-0.3,2.1-0.3c0.7,0,1.3,0.1,1.7,0.2c0.5,0.1,0.8,0.3,1,0.6
			c0.2,0.3,0.4,0.6,0.4,1c0,0.4,0,0.8-0.1,1.3l-0.2,0.6h-3l0.2-0.5C170.6,98.3,170.6,98,170.5,97.8z"/>
		<path fill="#FFFFFF" d="M174.6,98.5c0.3-0.6,0.7-1.2,1.1-1.5c0.4-0.4,1-0.7,1.6-0.9c0.6-0.2,1.3-0.3,2.1-0.3
			c0.8,0,1.4,0.1,1.9,0.3c0.5,0.2,0.9,0.5,1.1,0.9c0.2,0.4,0.3,0.9,0.3,1.5c0,0.6-0.2,1.4-0.4,2.3c-0.2,0.9-0.5,1.7-0.9,2.3
			c-0.3,0.6-0.7,1.2-1.1,1.5c-0.4,0.4-1,0.7-1.6,0.9c-0.6,0.2-1.3,0.3-2.1,0.3c-0.8,0-1.4-0.1-1.9-0.3c-0.5-0.2-0.9-0.5-1.1-0.9
			c-0.2-0.4-0.3-0.9-0.3-1.5c0-0.6,0.2-1.4,0.4-2.3C174,99.9,174.3,99.1,174.6,98.5z M176.6,102.4c-0.1,0.4-0.1,0.8-0.1,1
			c0,0.3,0.1,0.4,0.2,0.5c0.1,0.1,0.3,0.1,0.5,0.1c0.2,0,0.4,0,0.6-0.1c0.2-0.1,0.3-0.3,0.5-0.5c0.1-0.3,0.3-0.6,0.4-1
			c0.1-0.4,0.3-1,0.5-1.6c0.2-0.6,0.3-1.2,0.4-1.6c0.1-0.4,0.1-0.8,0.1-1c0-0.3-0.1-0.4-0.2-0.5c-0.1-0.1-0.3-0.1-0.5-0.1
			c-0.2,0-0.4,0-0.6,0.1c-0.2,0.1-0.3,0.3-0.5,0.5c-0.1,0.2-0.3,0.6-0.4,1c-0.1,0.4-0.3,1-0.5,1.6
			C176.8,101.4,176.7,102,176.6,102.4z"/>
	</g>
	<path fill="#FFFFFF" d="M114.5,94.9c2.5-1.1,12.5-4.6,20.7-6.1c8.2-1.5,19.5-2.3,27.3-1.1c7.8,1.2,15.2,3.1,18.9,4.5
		c3.7,1.5,7.1,3.4,8,3.9c0.8,0.5,0.9,1-0.9,0.4c-1.8-0.6-12.3-5.3-24.7-6.5c-12.4-1.2-19.2-0.9-26.4,0.2c-7.2,1.1-16.6,3.4-19.1,4.3
		c-2.5,0.8-3.2,1-4.1,1.4C113.3,96.3,110.8,96.4,114.5,94.9z"/>
</g>
<g>
	<path fill="#27AAE1" d="M177.5,9.5c0,0-3.4,0.6-4.3,3.1c-0.9,2.6-3.4,3.7-3.4,5.7c0,2,0,6.9,2,4.9c2-2,2-4,2.6-5.1
		c0.6-1.1,1.1-1.1,3.4-2.6c2.3-1.4,2,0,2.6-2.9c0.6-2.9,0.3-3.7,1.4-4.9C182.9,6.7,181.5,4.1,177.5,9.5z"/>
	<path fill="#27AAE1" d="M193.2,2.4c0,0-3.1,1.4-3.1,4.9c0,3.4-2,4.6,2,5.1c4,0.6,3.4,2,6,2c2.6,0,5.1,2,6.9,0.3
		c1.7-1.7,2.3-2.6,2.3-5.1c0-2.6,1.1-3.1,1.4-5.1c0.3-2,3.1-3.1-1.4-3.4c-4.6-0.3-6.3-0.3-8-0.3C197.5,0.6,197.5-1.6,193.2,2.4z"/>
	<path fill="#27AAE1" d="M239.5,5.5c0,0-0.9,4-3.7,4.6c-2.9,0.6-4.9-0.3-6,1.1c-1.1,1.4-0.3,3.4,2,5.1c2.3,1.7,3.1,3.4,4.3,4.9
		c1.1,1.4,2.9,4,4.3,2c1.4-2,0.3-6,2.3-4.6c2,1.4,0.9,3.4,3.7,4.6c2.9,1.1,2.9,2,5.1,1.4c2.3-0.6,3.4-0.3,5.4-0.6
		c2-0.3-1.7-6.3-4.9-6.9c-3.1-0.6-2.9,2-4.3-1.4c-1.4-3.4-1.4-2.3-2-5.1c-0.6-2.9-1.1-3.1-2-4C243,5.8,241.2,2.1,239.5,5.5z"/>
	<path fill="#27AAE1" d="M267.8,23.5c-1,0.6,0.3,2-0.9,3.1c-1.1,1.1-0.3,3.7,2.6,3.1c2.9-0.6,0.9-1.4,5.1-1.4c4.3,0,4.3,0.6,7.1,0.9
		c2.9,0.3,4.9,3.7,7.1,3.1c2.3-0.6,2-1.1,4.6-2.9c2.6-1.7,4.9-1.4,3.7-2.9c-1.1-1.4-3.1-1.4-6.9-1.1c-3.7,0.3,0,1.7-5.1,0.3
		c-5.1-1.4-4.3-1.4-6-1.1c-1.7,0.3-1.4,0.9-3.4,1.1c-2,0.3-2.9,0.6-4-0.3C270.7,24.7,269.8,22.4,267.8,23.5z"/>
	<path fill="#27AAE1" d="M283.5,38.1c-3.1-0.4-5.1-0.6-6.9-0.6c-1.7,0-2,2.6-0.3,3.4c1.7,0.9,3.4-0.6,4,2.6c0.6,3.1-0.3,6.3,2,6.6
		c2.3,0.3,4.3,1.1,6.3-0.9c2-2,3.7-1.1,3.4-3.4C291.8,43.5,288.1,38.7,283.5,38.1z"/>
	<path fill="#27AAE1" d="M296.1,53.8c-1.4,0.8-2.6,0.9-4,2.3c-1.4,1.4-0.6,2.3,1.7,2.6c2.3,0.3,3.1,0,5.1,0s3.1,2.3,3.4-0.9
		C302.7,54.7,300.1,51.5,296.1,53.8z"/>
	<g>
		<path fill="#27AAE1" d="M329.6,115.7c-2.6,0-4.4-1.6-5.4-2.6c-0.2-0.2-0.4-0.3-0.5-0.5c-0.1-0.1-0.3-0.1-0.7-0.3
			c-1.6-0.6-3.3-1.3-5.2-3.8c-3-3.9-1.6-9.1-0.6-12.6c0.1-0.4,0.2-0.8,0.3-1.1c-0.2-0.9-1.4-3-2-4.1c-0.8-1.3-1.5-2.6-2-3.8
			c-0.2-0.5-0.4-1-0.6-1.4c-1.1-2.4-2.5-5.6-0.8-9.5c1.3-3,3.9-5.4,6.3-7.1c-1.8-2.1-3.6-5.4-2.4-8.9c0.5-1.5,2.2-6,6.5-6
			c3.7,0,5.5,3.4,6.7,5.6c0.2,0.4,0.6,1.1,0.8,1.3c0,0,0,0,0,0c0.3,0.1,1,0.1,1.6,0.2c1,0.1,2.2,0.2,3.7,0.5c3.9,0.7,8,2.6,11.3,4.2
			c1.4,0.7,2.9,1.4,3.6,1.6c1.7,0.5,5.6,2.3,4.6,7.5c0,0.1,0,0.1,0,0.2c0.2,0.6,0.3,1.2,0.3,1.6c1.8,1.3,2.4,2.5,2.9,3.7l0,0.1
			c0,0,0.1,0.1,0.1,0.1c0.4,0.4,0.5,0.4,1.2,0.6c0.8,0.3,1.9,0.6,3.4,1.6c2.2,1.3,2.8,3.1,3,4.3c0.4,2.7-1.3,4.6-2.4,5.8
			c-0.4,0.5-0.9,0.9-1.2,1.4c-2.5,3.7-6.8,6.2-11.7,6.6c0,0-1.5,0.1-1.6,0.1c0,0,0,0-0.1,0c-0.4,0.2-1,0.5-2.1,0.9
			c-2.3,1-3.7,1.1-4.8,1.1l-0.1,0c-0.1,0-0.3,0.1-0.5,0.2c-1.5,0.7-2.8,3.1-4.8,7.3C334.2,114.8,331.5,115.7,329.6,115.7
			C329.6,115.7,329.6,115.7,329.6,115.7z"/>
		<path fill="#FFFFFF" d="M322.4,58.5c1.5,0,2.9,3.9,4,5.3c1.7,2,2.9,1.4,8,2.3c5.1,0.9,11.4,4.9,14.3,5.7c2.9,0.9,0.9,2.3,1.4,4.3
			c0.6,2,0,2.9,2,4.3c2,1.4,0.9,2,2.9,3.7c2,1.7,2.9,1.1,5.1,2.6c2.3,1.4-0.3,2.6-2,5.1c-1.7,2.6-4.9,4.3-8.3,4.6
			c-3.4,0.3-1.7,0-5.1,1.4c-3.4,1.4-2.9,0-5.7,1.4c-2.9,1.4-4.6,4.6-6.9,9.4c-0.9,1.9-1.7,2.5-2.5,2.5c-1.3,0-2.4-1.5-3.5-2.2
			c-1.7-1.1-2.9-0.6-4.9-3.1c-2-2.6,0-7.7,0.6-10.3c0.6-2.6-3.1-7.4-4.3-10.3c-1.1-2.9-2.6-4.9-1.4-7.4c1.1-2.6,4-4.9,6.3-6.3
			c2.3-1.4,1.1-3.7,1.1-3.7s-4.4-3.5-3.4-6.3C320.9,59.3,321.7,58.5,322.4,58.5 M322.4,49.5c-2.8,0-7.9,1.2-10.7,9
			c-1.2,3.4-0.7,6.6,0.7,9.5c-1.8,1.7-3.4,3.8-4.4,6.2c-2.6,5.7-0.4,10.6,0.8,13.2c0.2,0.4,0.4,0.8,0.5,1.2c0.6,1.5,1.4,2.9,2.2,4.4
			c0.4,0.6,0.9,1.5,1.2,2.2c-1.1,3.9-2.7,10.7,1.5,16.2c2.5,3.2,4.9,4.4,7.1,5.2c1.4,1.2,4.1,3.6,8.4,3.6c2.6,0,7.5-1,10.7-7.7
			c0.5-1,1.8-3.9,2.7-5c1.4-0.1,3-0.4,5.2-1.4c0.7-0.3,1.2-0.5,1.6-0.7c0.2,0,0.5,0,0.8-0.1c6.2-0.5,11.8-3.7,15-8.5
			c0.1-0.2,0.5-0.6,0.8-0.9c1.3-1.4,4.2-4.6,3.6-9.4c-0.2-1.8-1.2-5.1-5-7.5c-1.5-1-2.8-1.5-3.7-1.8c-0.5-0.8-1.1-1.7-2-2.6
			c0.7-6.4-3.7-10.2-7.9-11.4c-0.4-0.2-1.9-0.8-2.9-1.3c-3.5-1.7-7.9-3.9-12.5-4.6c-1.3-0.2-2.4-0.4-3.2-0.5
			C331.1,54,328.2,49.5,322.4,49.5L322.4,49.5z"/>
	</g>
	<path fill="#27AAE1" d="M293.8,35.8c0,0,0.3,5.4,3.4,6.6c3.1,1.1,4.3-0.6,6,1.4c1.7,2,1.7,2,2,3.7c0.3,1.7-0.9,5.4,3.4,4.6
		c4.3-0.9,4.3-2,7.4-2.3c3.1-0.3,2.6,0.6,5.1-0.3c2.6-0.9,5.1-1.4,4.9-2.9c-0.3-1.4-4.9-4.3-6.6-5.1c-1.7-0.9-4.6-3.7-6.3-4.3
		c-1.7-0.6-2.9-0.6-6,0.9c-3.1,1.4-3.7,3.1-5.1,1.4c-1.4-1.7-0.6-3.4-1.7-4.9C299.3,33.2,295,32.7,293.8,35.8z"/>
</g>
</svg>
