<?xml version="1.0" encoding="utf-8"?>
<!-- Generator: Adobe Illustrator 18.1.1, SVG Export Plug-In . SVG Version: 6.00 Build 0)  -->
<svg version="1.1" id="Layer_1" xmlns="http://www.w3.org/2000/svg" xmlns:xlink="http://www.w3.org/1999/xlink" x="0px" y="0px"
	 viewBox="0 0 354.9 81.5" enable-background="new 0 0 354.9 81.5" xml:space="preserve">
<g>
	<polygon fill="#2D577F" points="35.8,0 35.8,1.3 37.9,2.5 37.9,71 92.5,71 92.5,32.8 95.3,34.3 95.3,33 	"/>
	<g>
		<polygon fill="#BBC25B" points="37.9,74.3 34.6,74.3 34.6,71 34.6,29.9 0,48 0,49.3 3.3,47.7 3.3,79.6 47.5,79.6 47.5,74.3 		"/>
	</g>
	<rect x="68.5" y="50" fill="#FFFFFF" width="16.2" height="24.8"/>
</g>
<g>
	<path fill="#4A484D" d="M114.8,49.2c-1.4,0-2.6,0.3-3.7,1c-1.1,0.7-1.9,1.6-2.6,2.8V40.3l-7-3.9v44.2h7V61.2c0-2.2,0.3-3.7,0.8-4.6
		c0.5-0.9,1.5-1.3,2.8-1.3c1,0,1.7,0.3,2.2,1c0.4,0.6,0.6,1.9,0.6,3.8v20.5h6.8v-24c0-2.4-0.6-4.2-1.8-5.5
		C118.7,49.9,117,49.2,114.8,49.2z"/>
	<path fill="#4A484D" d="M137.5,49.2c-4,0-6.8,1.1-8.4,3.4c-1.6,2.3-2.4,6.5-2.4,12.7c0,6.2,0.8,10.4,2.4,12.7
		c1.6,2.3,4.4,3.4,8.4,3.4c4,0,6.8-1.1,8.4-3.4c1.6-2.3,2.4-6.5,2.4-12.7c0-6.2-0.8-10.4-2.4-12.7C144.4,50.4,141.6,49.2,137.5,49.2
		z M141.1,65.6v1.2c0,4.2-0.2,6.8-0.7,7.8c-0.5,1-1.4,1.5-2.9,1.5c-1.4,0-2.3-0.5-2.8-1.6c-0.5-1.1-0.7-4-0.7-8.7v-0.7v-2.1
		c0-3.6,0.3-5.9,0.8-6.8c0.5-0.9,1.4-1.4,2.8-1.4c1.4,0,2.3,0.5,2.8,1.5c0.5,1,0.8,3.5,0.8,7.6V65.6z"/>
	<path fill="#4A484D" d="M180.9,49.2c-1.6,0-2.9,0.3-4,0.9c-1.1,0.6-2.1,1.6-3,3c-0.5-1.2-1.3-2.2-2.4-2.8c-1.1-0.7-2.4-1-3.9-1
		c-1.9,0-3.4,0.3-4.5,1c-1.1,0.6-2.1,1.8-2.9,3.4v-3.5h-6.6v30.6h7v-20c0-1.9,0.3-3.3,0.8-4.1c0.6-0.8,1.5-1.2,2.7-1.2
		c1.2,0,2,0.4,2.5,1.1c0.5,0.8,0.7,2.2,0.7,4.3v19.9h7V61c0-2.1,0.3-3.6,0.8-4.4c0.5-0.8,1.4-1.2,2.6-1.2c1.3,0,2.2,0.4,2.7,1.1
		c0.5,0.7,0.7,2.3,0.7,4.7v19.5h6.9V57.1c0-2.6-0.6-4.6-1.8-5.9C185.2,49.9,183.4,49.2,180.9,49.2z"/>
	<path fill="#4A484D" d="M212.5,52.7c-0.9-1.2-2-2-3.4-2.6s-3-0.9-4.9-0.9c-2,0-3.6,0.3-5.1,0.8c-1.4,0.5-2.6,1.3-3.5,2.4
		c-0.8,1-1.4,2.3-1.8,3.9c-0.4,1.6-0.5,4.3-0.5,8c0,4.7,0.2,7.9,0.6,9.7c0.4,1.8,1.1,3.3,2.1,4.5c0.8,1,1.9,1.7,3.2,2.2
		c1.3,0.5,2.9,0.7,4.8,0.7c3.6,0,6.3-0.8,7.9-2.4c1.7-1.6,2.5-4.2,2.5-7.7c0-0.1,0-0.3,0-0.6c0-0.3,0-0.5,0-0.6h-6.7
		c0,2.1-0.3,3.6-0.8,4.6c-0.6,0.9-1.5,1.4-2.7,1.4c-1.3,0-2.2-0.6-2.7-1.7c-0.5-1.2-0.8-3.2-0.8-6.1c0-0.6,0-1,0-1.2
		c0-0.3,0-0.5,0.1-0.7h13.9V64c0-3.4-0.2-5.9-0.5-7.5C213.8,55,213.3,53.7,212.5,52.7z M207.5,61.5h-6.9c0-0.3,0-0.7-0.1-1.3
		c0-2,0.3-3.5,0.8-4.3c0.5-0.8,1.4-1.2,2.7-1.2c1.3,0,2.2,0.4,2.7,1.2c0.5,0.8,0.8,2.2,0.8,4.3V61.5z"/>
	<path fill="#4A484D" d="M231.1,62.8c-0.7-0.5-1.2-0.8-1.6-1.1c-1.6-1.1-2.7-1.9-3.1-2.5s-0.7-1.3-0.7-2c0-0.8,0.3-1.4,0.8-1.9
		c0.5-0.5,1.2-0.7,2.1-0.7c1.2,0,2.1,0.3,2.7,1c0.6,0.7,0.8,1.8,0.8,3.3v0.6h6.2v-0.6c0-3.2-0.8-5.6-2.3-7.2c-1.6-1.6-3.9-2.4-7-2.4
		c-3.2,0-5.7,0.7-7.3,2.1c-1.7,1.4-2.5,3.5-2.5,6.2c0,3.4,2.6,6.9,7.8,10.5c0.2,0.1,0.3,0.2,0.3,0.2c0.3,0.2,0.8,0.5,1.3,0.9
		c2.3,1.5,3.4,2.9,3.4,4c0,0.9-0.3,1.7-0.8,2.2c-0.6,0.5-1.3,0.8-2.3,0.8c-1.3,0-2.1-0.4-2.7-1.1c-0.5-0.7-0.8-2-0.8-3.8v-0.9H219
		c0,0.1,0,0.3,0,0.6c0,0.3,0,0.5,0,0.6c0,3.4,0.8,5.8,2.4,7.4c1.6,1.6,4.1,2.4,7.4,2.4c3.2,0,5.7-0.7,7.4-2.2
		c1.7-1.5,2.6-3.6,2.6-6.3C238.8,69.6,236.2,66.2,231.1,62.8z"/>
	<path fill="#4A484D" d="M259.1,53.4c-0.3-1.1-1.1-2.1-2.3-2.8c-1.2-0.7-2.6-1.1-4.2-1.1c-3,0-5.3,1.3-6.9,3.9
		c-1.7,2.6-2.5,6.3-2.5,11c0,5.5,0.8,9.6,2.5,12.5c1.6,2.9,4,4.3,7.2,4.3c1.6,0,3-0.4,4.2-1.2c1.2-0.8,2-1.9,2.4-3.2v3.8h4V40
		l-4.3,2.2V53.4z M258,74.7c-0.9,1.9-2.4,2.8-4.5,2.8c-2,0-3.4-1-4.3-3c-0.9-2-1.4-5.2-1.4-9.6c0-4,0.5-6.9,1.4-8.8
		c1-1.9,2.4-2.8,4.4-2.8c2.1,0,3.6,0.9,4.5,2.6c0.9,1.7,1.3,4.8,1.3,9.3C259.4,69.6,259,72.8,258,74.7z"/>
	<rect x="269.8" y="50.2" fill="#4A484D" width="4.4" height="30.4"/>
	<rect x="269.8" y="39.9" fill="#4A484D" width="4.4" height="5.5"/>
	<path fill="#4A484D" d="M291.6,49.5c-1.6,0-3,0.5-4.3,1.5c-1.2,1-2.2,2.4-2.8,4.2v-5h-3.9v30.4h4.2V62c0-2.6,0.6-4.6,1.8-6.1
		c1.2-1.4,2.9-2.2,5.1-2.2c0.3,0,0.6,0,0.9,0.1c0.3,0.1,0.5,0.2,0.8,0.3v-4.5c-0.2,0-0.5-0.1-0.7-0.1
		C292.5,49.5,292.1,49.5,291.6,49.5z"/>
	<path fill="#4A484D" d="M305.2,49.3c-3.3,0-5.8,1.3-7.4,4c-1.6,2.6-2.3,6.8-2.3,12.5c0,5.4,0.8,9.3,2.3,11.9c1.6,2.6,4,3.8,7.3,3.8
		c3,0,5.3-1,6.9-2.9c1.6-1.9,2.4-4.7,2.5-8.3h-4.2v0.2c0,2.3-0.4,4-1.3,5.4c-0.9,1.3-2.1,2-3.6,2c-1.9,0-3.3-0.9-4.2-2.6
		c-0.9-1.7-1.3-4.5-1.3-8.3v-1.3l14.6,0c0-0.3,0-0.6,0-1c0-0.4,0-0.9,0-1.6c0-4.6-0.8-8-2.3-10.2C310.7,50.5,308.4,49.3,305.2,49.3z
		 M310.2,62.1h-10.3c0-3.1,0.4-5.5,1.3-7c0.9-1.5,2.3-2.3,4.1-2.3c1.6,0,2.9,0.7,3.7,2.1c0.8,1.4,1.2,3.5,1.2,6.3V62.1z"/>
	<path fill="#4A484D" d="M333.6,75.7c-0.9,1.3-2.1,2-3.7,2c-2.1,0-3.6-0.9-4.5-2.8c-0.9-1.9-1.4-5-1.4-9.5c0-4.4,0.4-7.6,1.3-9.4
		c0.9-1.8,2.4-2.8,4.5-2.8c1.5,0,2.7,0.6,3.5,1.7c0.8,1.1,1.3,2.7,1.4,4.9h4.2v-0.6c0-3-0.8-5.4-2.5-7.1c-1.6-1.7-3.9-2.6-6.7-2.6
		c-3.4,0-6,1.3-7.7,3.9c-1.7,2.6-2.5,6.6-2.5,11.9c0,5.5,0.8,9.6,2.4,12.3c1.6,2.7,4.1,4,7.5,4c3.1,0,5.5-1,7.2-3
		c1.7-2,2.5-4.9,2.5-8.5h-4.2C334.9,72.4,334.4,74.4,333.6,75.7z"/>
	<path fill="#4A484D" d="M350,42.1l-4.2,2.2v5.9h-4.2v3.5h4.2v22.7c0,1.6,0.5,2.8,1.5,3.6c1,0.8,2.5,1.2,4.5,1.2c0.3,0,1,0,2.1-0.1
		c0.4,0,0.8,0,1.1-0.1l0-3.7c-0.1,0-0.2,0-0.4,0c-0.1,0-0.3,0-0.6,0c-1.7,0-2.8-0.2-3.3-0.6c-0.5-0.4-0.7-1.2-0.7-2.5V53.7h4.9v-3.5
		H350V42.1z"/>
</g>
</svg>
