<?xml version="1.0" encoding="utf-8"?>
<!-- Generator: Adobe Illustrator 18.1.1, SVG Export Plug-In . SVG Version: 6.00 Build 0)  -->
<svg version="1.1" id="Layer_1" xmlns="http://www.w3.org/2000/svg" xmlns:xlink="http://www.w3.org/1999/xlink" x="0px" y="0px"
	 viewBox="113.9 112.8 61.2 61.6" enable-background="new 113.9 112.8 61.2 61.6" xml:space="preserve">
<path fill="#FFFFFF" d="M142.4,165.3"/>
<g>
	<path fill="#FFFFFF" d="M148.3,170.6c-0.1,0-0.1,0-0.2,0c-0.2-0.1-0.3-0.3-0.2-0.5c0,0,1.2-2.7,0.1-4.4c-0.6-1-1.9-1.5-3.7-1.6
		c-0.2,0-0.4-0.2-0.4-0.4s0.2-0.4,0.4-0.4c2.1,0.1,3.6,0.7,4.3,2c1.3,2.1,0,5.1,0,5.2C148.6,170.5,148.5,170.6,148.3,170.6z"/>
	<path fill="#FFFFFF" d="M145,171.5c-0.1,0-0.2-0.1-0.3-0.2c-0.1-0.1-0.1-0.3,0-0.5l0,0c0,0,1.7-2.4,1.1-4.4
		c-0.4-1.1-1.4-1.9-3.1-2.3c-0.2-0.1-0.3-0.3-0.3-0.5s0.3-0.3,0.5-0.3c3.1,0.9,3.8,2.6,3.9,4c0,1.5-0.8,3.2-1.3,3.8
		c0,0,0,0.1-0.1,0.1l0,0l0,0l0,0l0,0c-0.1,0.1-0.1,0.1-0.2,0.2C145,171.5,145,171.5,145,171.5z"/>
	<path fill="#FFFFFF" d="M151,170.8c-0.1,0-0.1,0-0.2,0c-0.2-0.1-0.3-0.3-0.2-0.5c0,0,1.3-2.6,0.3-4.4c-0.5-1-1.7-1.6-3.5-1.8
		c-1.6-0.1-4.6,0.2-4.7,0.2c-0.2,0-0.4-0.1-0.4-0.4c0-0.2,0.1-0.4,0.4-0.4c0.1,0,3.2-0.3,4.8-0.2h0.1c2,0.2,3.4,0.9,4.1,2.2
		c1.2,2.2-0.3,5-0.3,5.2C151.3,170.7,151.1,170.8,151,170.8z"/>
	<path fill="#FFFFFF" d="M143.4,164.1L143.4,164.1c-0.3,0-0.4-0.2-0.4-0.5c0.4-3.5,0.1-6.9,0.1-6.9c0-0.2,0.1-0.4,0.4-0.4
		c0.2,0,0.4,0.1,0.4,0.4c0,0.1,0.4,3.5-0.1,7.1C143.8,163.9,143.6,164.1,143.4,164.1z"/>
</g>
<g>
	<path fill="#FFFFFF" d="M160,170.8h-0.1c-0.2-0.1-0.3-0.3-0.2-0.5c0,0,1-2.8-0.2-4.4c-0.7-0.9-2-1.4-3.8-1.3
		c-0.2,0-0.4-0.2-0.4-0.4s0.2-0.4,0.4-0.4c2.1-0.1,3.6,0.5,4.5,1.6c1.5,2,0.4,5,0.3,5.2C160.3,170.7,160.2,170.8,160,170.8z"/>
	<path fill="#FFFFFF" d="M156.7,171.9c-0.1,0-0.2,0-0.3-0.1s-0.1-0.3,0-0.5l0,0c0,0,1.6-2.5,0.7-4.5c-0.5-1.1-1.6-1.8-3.3-2.1
		c-0.2,0-0.4-0.3-0.3-0.5c0-0.2,0.3-0.4,0.5-0.3c3.2,0.6,4,2.4,4.2,3.7c0.2,1.5-0.5,3.2-1,3.9v0.1l0,0l0,0l0,0l0,0
		c-0.1,0.1-0.1,0.2-0.2,0.2C156.8,171.9,156.8,171.9,156.7,171.9z"/>
	<path fill="#FFFFFF" d="M162.7,170.8c-0.1,0-0.1,0-0.2,0c-0.2-0.1-0.3-0.3-0.2-0.5c0,0,1.1-2.7,0-4.4c-0.6-1-1.9-1.5-3.7-1.5
		c-1.6,0-4.6,0.5-4.7,0.5c-0.2,0-0.4-0.1-0.5-0.3c0-0.2,0.1-0.4,0.3-0.5c0.1,0,3.1-0.5,4.7-0.6l0,0h0.1c2,0,3.5,0.7,4.3,1.9
		c1.3,2.1,0.1,5,0,5.2C163,170.7,162.8,170.8,162.7,170.8z"/>
	<path fill="#FFFFFF" d="M154.7,164.6C154.7,164.6,154.6,164.6,154.7,164.6c-0.2,0-0.4-0.2-0.4-0.4c0.2-3.6-0.4-6.9-0.4-6.9
		c0-0.2,0.1-0.4,0.3-0.5c0.2,0,0.4,0.1,0.5,0.3c0,0.1,0.6,3.4,0.4,7.1C155,164.4,154.9,164.6,154.7,164.6z"/>
</g>
<g>
	<path fill="#FFFFFF" d="M167.1,130.7c0.2,1.9,1.1,3.5,2.4,4.6c0.9-0.4,2.4-1.5,5.1-3.9L167.1,130.7z"/>
</g>
<g>
	<path fill="#FFFFFF" d="M169.9,125.2c-0.4,0.1-0.8,0.2-1.2,0.4c-1,1.2-1.7,2.7-1.7,4.5c0,0.1,0,0.2,0,0.4l8.1-1.3L169.9,125.2z"/>
</g>
<path fill="#FFFFFF" d="M171.4,136.4c-2.7-0.7-4.7-3.3-4.7-6.3c0-2.2,1-4.2,2.6-5.4l-5.4-4.2c-2.5,6.1-1.8,12.1,0.2,15.5
	c1.3,2.3,3.2,4.2,4.2,5.2c-1.4-1-3.8-2.9-5.2-5.2c-1.9-3.3-2.5-9.7-0.2-15.6c0-0.3,0.1-0.5,0.1-0.5s-2.1-1.9-6.8-4.2
	c-4.7-2.3-14.9-2.9-14.9-2.9l4.2,6.2l-2.9-0.3l3,2.2c-0.9,1.9-2.8,6.1-5.2,10.3c-3.1,5.3-10.7,22.7-11.5,24.6c1-0.1,1.9-0.2,2.8-0.3
	l0,0l8.4-18.1c0.1-0.2,0.3-0.3,0.5-0.2s0.3,0.3,0.2,0.5l-8.2,17.7c1.7-0.3,3.2-0.6,4.6-1l5.5-16.3c0.1-0.2,0.3-0.3,0.5-0.2
	s0.3,0.3,0.2,0.5L138,154c1.5-0.5,2.9-1.1,4.2-1.8c0,0,0,0,0-0.1l3-14.2c0-0.2,0.2-0.3,0.4-0.3s0.3,0.2,0.3,0.4l-2.9,13.6
	c0.8-0.4,1.5-0.9,2.2-1.4c7.3-5.2,3.4-14.8,3.3-14.9c-0.1-0.2,0-0.4,0.2-0.5s0.4,0,0.5,0.2c0,0.1,4.2,10.3-3.6,15.8
	c-3.4,2.4-6.9,3.9-11.5,4.8L114,167.1c0,0-0.6,1.8,2,4.9c2.6,3,7.5,2.4,7.5,2.4l15.7-18c0,0,1.2,0.8,10.9,2.4
	c9.7,1.6,12.3-0.2,17.1-2.3c0.3-0.1,0.5-0.3,0.8-0.4l0,0l0,0c0.7-0.4,1.2-0.9,1.7-1.3c1.7-1.5,4.1-3.9,4.6-6.3
	c0.8-3.8-1.7-9.2-2.6-11.2C171.8,136.9,171.6,136.7,171.4,136.4z M159.1,125.8c-0.2-1.6-1.2-2.8-2.5-2.8c-0.8,0-1.5,0.4-1.9,1.1
	c0.1,0,0.2-0.1,0.3-0.1c0.6,0,1.1,0.5,1.1,1.1s-0.5,1.1-1.1,1.1c-0.4,0-0.7-0.2-0.9-0.5c0,0.1,0,0.3,0,0.4c0,1.1,0.4,2,1.1,2.6
	c-1.7-0.4-3-2.3-3-4.5c0-2.6,1.6-4.6,3.6-4.6s3.6,2.1,3.6,4.6C159.4,124.8,159.3,125.3,159.1,125.8z"/>
</svg>
