<?xml version="1.0" encoding="utf-8"?>
<!-- Generator: Adobe Illustrator 18.1.1, SVG Export Plug-In . SVG Version: 6.00 Build 0)  -->
<svg version="1.1" id="Layer_1" xmlns="http://www.w3.org/2000/svg" xmlns:xlink="http://www.w3.org/1999/xlink" x="0px" y="0px"
	 viewBox="0 0 342.8 96.9" enable-background="new 0 0 342.8 96.9" xml:space="preserve">
<g>
	<path fill="#FFFFFF" d="M134.9,75.7h6.7c6.3,0,10.5,3.8,10.5,10.4c0,6.6-4.2,10.4-10.5,10.4h-6.7V75.7z M141.4,94.7
		c5.1,0,8.5-3,8.5-8.6c0-5.5-3.4-8.6-8.5-8.6H137v17.2H141.4z"/>
	<path fill="#FFFFFF" d="M171.6,75.7h11.7v1.8h-9.7v7.6h7.9V87h-7.9v7.7h10.2v1.8h-12.3V75.7z"/>
	<path fill="#FFFFFF" d="M203,92.7c0,0,2.2,2.3,5.4,2.3c2.3,0,4.1-1.4,4.1-3.6c0-5.2-10.4-3.9-10.4-10.4c0-3,2.6-5.6,6.5-5.6
		c3.6,0,5.6,2,5.6,2l-1,1.7c0,0-1.8-1.8-4.6-1.8c-2.7,0-4.4,1.7-4.4,3.6c0,4.9,10.4,3.5,10.4,10.4c0,3.1-2.4,5.6-6.3,5.6
		c-4.3,0-6.6-2.7-6.6-2.7L203,92.7z"/>
	<path fill="#FFFFFF" d="M234.1,75.7h2v20.8h-2V75.7z"/>
	<path fill="#FFFFFF" d="M266.1,75.4c4.8,0,7.4,2.4,7.4,2.4l-1.1,1.5c0,0-2.4-2.1-6.2-2.1c-5,0-8.4,3.9-8.4,8.8
		c0,5.1,3.5,8.9,8.3,8.9c4.1,0,6.5-3.1,6.5-3.1v-3.5H269v-1.8h5.5v10h-1.9V95c0-0.4,0-0.9,0-0.9h-0.1c0,0-2.4,2.8-6.8,2.8
		c-5.7,0-10.2-4.6-10.2-10.8C255.6,80.1,260.1,75.4,266.1,75.4z"/>
	<path fill="#FFFFFF" d="M294.3,75.7h2l10.6,15c0.7,1,1.7,2.8,1.7,2.8h0.1c0,0-0.2-1.7-0.2-2.8v-15h2v20.8h-2l-10.6-15
		c-0.7-1-1.7-2.8-1.7-2.8h-0.1c0,0,0.2,1.7,0.2,2.8v15h-2V75.7z"/>
	<path fill="#FFFFFF" d="M331.1,92.7c0,0,2.2,2.3,5.4,2.3c2.3,0,4.1-1.4,4.1-3.6c0-5.2-10.4-3.9-10.4-10.4c0-3,2.6-5.6,6.5-5.6
		c3.6,0,5.6,2,5.6,2l-1,1.7c0,0-1.8-1.8-4.6-1.8c-2.7,0-4.4,1.7-4.4,3.6c0,4.9,10.4,3.5,10.4,10.4c0,3.1-2.4,5.6-6.3,5.6
		c-4.3,0-6.6-2.7-6.6-2.7L331.1,92.7z"/>
</g>
<polygon fill="#FFFFFF" points="342.1,0 342.1,0 339.8,2.3 "/>
<polygon fill="#FFFFFF" points="342.1,0 339.8,2.3 339.9,2.3 339.9,67.7 342.2,70 342.2,0 "/>
<g>
	<path fill="#FFFFFF" d="M47.8,15.4c9.8,0,14.7,5.8,14.7,5.8L60.4,24c0,0-4.7-5.2-12.5-5.2c-9.6,0-17.6,7.1-17.6,18.2
		c0,10.9,8,18,17.6,18c9,0,13.7-5.9,13.7-5.9l1.8,2.9c0,0-5.3,6.4-15.5,6.4C36.3,58.4,26.7,50,26.7,37S36.4,15.4,47.8,15.4z"/>
</g>
<g>
	<path fill="#FFFFFF" d="M74.7,0h3.4v21.3c0,1.9-0.3,3.4-0.3,3.4H78c0,0,3.5-9.3,14.8-9.3c11,0,17.7,8.8,17.7,21.5
		c0,13-7.6,21.5-18.4,21.5c-10.3,0-14.2-9.3-14.2-9.3h-0.2c0,0,0.3,1.5,0.3,3.6v4.7h-3.4V0z M92.4,55c8,0,14.6-6.6,14.6-18.1
		c0-11.1-5.9-18.1-14.3-18.1c-7.5,0-14.6,5.3-14.6,18.2C78.1,46.1,82.8,55,92.4,55z"/>
</g>
<g>
	<path fill="#FFFFFF" d="M122.2,16.4h3.4v7.8c0,1.9-0.3,3.4-0.3,3.4h0.2c2.1-6.3,6.6-11.5,13.1-11.5c1.2,0,2.4,0.2,2.4,0.2v3.4
		c0,0-1-0.2-1.9-0.2c-6.4,0-10.4,5.4-12.2,11.5c-0.9,2.9-1.2,5.9-1.2,8.6v17.7h-3.4V16.4z"/>
</g>
<g>
	<path fill="#FFFFFF" d="M166,15.4c11.2,0,16.7,8.8,16.7,18.7c0,0.9-0.2,2.2-0.2,2.2h-32.9c0,11.9,8,18.7,17.6,18.7
		c7.9,0,12.7-5.2,12.7-5.2l1.9,2.9c0,0-5.7,5.7-14.6,5.7c-11.6,0-21.2-8.4-21.2-21.4C146.1,23.1,155.5,15.4,166,15.4z M179.1,33.1
		c-0.4-10-6.4-14.5-13.2-14.5c-7.5,0-14.5,4.9-16,14.5H179.1z"/>
</g>
<g>
	<path fill="#FFFFFF" d="M194.3,16.4h3.4v7.2c0,1.9-0.3,3.4-0.3,3.4h0.2c2.1-6.2,9.4-11.6,15.7-11.6c8.2,0,12.1,3.9,13,11.2h0.2
		c2.3-5.7,8.5-11.2,15.6-11.2c10.6,0,13.7,6.2,13.7,16v26h-3.4V32.6c0-7.7-1.6-14-10.3-14c-6.8,0-12.6,6.1-14.4,12.5
		c-0.6,1.9-0.8,3.9-0.8,6.3v20h-3.4V32.6c0-7.1-1-14-10-14c-7.3,0-13,6.4-14.9,13.2c-0.5,1.7-0.7,3.6-0.7,5.6v20h-3.4V16.4z"/>
</g>
<g>
	<path fill="#FFFFFF" d="M286.7,15.4c11.2,0,16.7,8.8,16.7,18.7c0,0.9-0.2,2.2-0.2,2.2h-32.9c0,11.9,8,18.7,17.6,18.7
		c7.9,0,12.7-5.2,12.7-5.2l1.9,2.9c0,0-5.7,5.7-14.6,5.7c-11.6,0-21.2-8.4-21.2-21.4C266.8,23.1,276.2,15.4,286.7,15.4z M299.8,33.1
		c-0.4-10-6.4-14.5-13.2-14.5c-7.5,0-14.5,4.9-16,14.5H299.8z"/>
</g>
<g>
	<path fill="#FFFFFF" d="M315,16.4h3.4v7.8c0,1.9-0.3,3.4-0.3,3.4h0.2c2.1-6.3,6.6-11.5,13.1-11.5c1.2,0,2.4,0.2,2.4,0.2v3.4
		c0,0-1-0.2-1.9-0.2c-6.4,0-10.4,5.4-12.2,11.5c-0.9,2.9-1.2,5.9-1.2,8.6v17.7H315V16.4z"/>
</g>
<g>
	<path fill="#FFFFFF" d="M15.1,0v81.4c0,13.6-8.9,15.2-13,15.2c-1.2,0-2.1-0.2-2.1-0.2v-3.2c0,0,0.7,0.2,1.8,0.2
		c3.3,0,9.8-1.3,9.8-11.9V0H15.1z"/>
</g>
<polygon fill="#FFFFFF" points="82.4,0.2 82.4,2.2 339.8,2.2 342.1,0.2 "/>
<polygon fill="#FFFFFF" points="339.9,67.6 339.9,67.7 21,67.7 21,70 342.2,70 342.2,69.9 "/>
</svg>
