<?xml version="1.0" encoding="utf-8"?>
<!-- Generator: Adobe Illustrator 18.1.1, SVG Export Plug-In . SVG Version: 6.00 Build 0)  -->
<svg version="1.1" id="Layer_1" xmlns="http://www.w3.org/2000/svg" xmlns:xlink="http://www.w3.org/1999/xlink" x="0px" y="0px"
	 viewBox="32.1 516.1 977.2 230.1" enable-background="new 32.1 516.1 977.2 230.1" xml:space="preserve">
<g>
	<path fill="#FFFFFF" d="M484.7,695.8h15.9c14.8,0,24.8,9,24.8,24.7c0,15.7-10,24.8-24.8,24.8h-15.9V695.8z M500.1,741
		c12.2,0,20.3-7.2,20.3-20.4c0-13.2-8.2-20.4-20.3-20.4h-10.6V741H500.1L500.1,741z"/>
	<path fill="#FFFFFF" d="M571.9,695.8h27.8v4.3h-23v18h18.8v4.3h-18.8v18.4H601v4.3h-29.1V695.8z"/>
	<path fill="#FFFFFF" d="M646.4,736.1c0,0,5.1,5.4,13,5.4c5.4,0,9.8-3.2,9.8-8.6c0-12.5-24.7-9.2-24.7-24.6
		c0-7.1,6.3-13.3,15.4-13.3c8.6,0,13.2,4.8,13.2,4.8l-2.4,4c0,0-4.3-4.2-10.8-4.2c-6.3,0-10.4,4.1-10.4,8.6
		c0,11.7,24.7,8.4,24.7,24.6c0,7.4-5.7,13.4-14.9,13.4c-10.1,0-15.6-6.3-15.6-6.3L646.4,736.1z"/>
	<path fill="#FFFFFF" d="M720.1,695.8h4.8v49.5h-4.8V695.8z"/>
	<path fill="#FFFFFF" d="M796,695.1c11.5,0,17.6,5.8,17.6,5.8l-2.6,3.6c0,0-5.8-4.9-14.7-4.9c-12,0-20.1,9.2-20.1,20.9
		c0,12.2,8.4,21.1,19.6,21.1c9.6,0,15.5-7.3,15.5-7.3V726h-8.5v-4.3H816v23.6h-4.5v-3.7c0-1.1,0.1-2.1,0.1-2.1h-0.1
		c0,0-5.7,6.7-16.1,6.7c-13.5,0-24.2-10.9-24.2-25.6C771.2,706.3,781.8,695.1,796,695.1z"/>
	<path fill="#FFFFFF" d="M862.9,695.8h4.7l25.3,35.6c1.7,2.5,4,6.7,4,6.7h0.1c0,0-0.4-4-0.4-6.7v-35.6h4.8v49.5h-4.7l-25.2-35.6
		c-1.7-2.5-4.1-6.7-4.1-6.7h-0.1c0,0,0.4,4,0.4,6.7v35.6h-4.8V695.8z"/>
	<path fill="#FFFFFF" d="M950.2,736.1c0,0,5.1,5.4,13,5.4c5.4,0,9.8-3.2,9.8-8.6c0-12.5-24.7-9.2-24.7-24.6
		c0-7.1,6.3-13.3,15.4-13.3c8.6,0,13.2,4.8,13.2,4.8l-2.4,4c0,0-4.3-4.2-10.8-4.2c-6.3,0-10.4,4.1-10.4,8.6
		c0,11.7,24.7,8.4,24.7,24.6c0,7.4-5.7,13.4-14.9,13.4c-10.1,0-15.6-6.3-15.6-6.3L950.2,736.1z"/>
</g>
<polygon fill="#FFFFFF" points="1009.2,516.2 1009.2,516.2 1003.8,521.6 "/>
<polygon fill="#FFFFFF" points="1009.2,516.2 1003.8,521.6 1003.9,521.6 1003.9,676.9 1009.3,682.3 1009.3,516.2 "/>
<path fill="#FFFFFF" d="M310.7,552.7c23.2,0,34.8,13.9,34.8,13.9l-5,6.6c0,0-11.1-12.5-29.8-12.5c-22.8,0-41.7,16.9-41.7,43.3
	c0,25.9,18.9,42.9,41.7,42.9c21.4,0,32.5-14.1,32.5-14.1l4.3,6.8c0,0-12.7,15.1-36.8,15.1c-27.4,0-50.2-19.9-50.2-50.8
	C260.6,572.8,283.7,552.7,310.7,552.7z"/>
<path fill="#FFFFFF" d="M374.6,516.1h8.2v50.6c0,4.5-0.8,8-0.8,8h0.4c0,0,8.4-22,35.2-22c26.1,0,42.1,20.8,42.1,51
	c0,31-18.1,51-43.6,51c-24.5,0-33.6-22-33.6-22H382c0,0,0.8,3.5,0.8,8.6v11.1h-8.3V516.1z M416.4,646.8c19.1,0,34.6-15.7,34.6-43.1
	c0-26.3-14.1-43.1-33.8-43.1c-17.9,0-34.6,12.7-34.6,43.3C382.5,625.5,393.6,646.8,416.4,646.8z"/>
<path fill="#FFFFFF" d="M487.3,555.1h8.2v18.5c0,4.5-0.8,8-0.8,8h0.4c4.8-14.9,15.7-27.2,31.2-27.2c2.9,0,5.6,0.6,5.6,0.6v8.2
	c0,0-2.4-0.4-4.5-0.4c-15.1,0-24.7,12.9-29,27.2c-2.2,6.8-2.9,14.1-2.9,20.5v42.1h-8.2L487.3,555.1L487.3,555.1z"/>
<path fill="#FFFFFF" d="M591.2,552.7c26.4,0,39.7,20.8,39.7,44.3c0,2.2-0.4,5.2-0.4,5.2h-78.1c0,28.2,19.1,44.3,41.7,44.3
	c18.7,0,30.2-12.3,30.2-12.3l4.5,6.8c0,0-13.7,13.5-34.6,13.5c-27.4,0-50.2-19.9-50.2-50.8C544,571.1,566.4,552.7,591.2,552.7z
	 M622.4,594.8c-1-23.8-15.1-34.4-31.4-34.4c-17.9,0-34.4,11.7-38,34.4H622.4z"/>
<path fill="#FFFFFF" d="M658.4,555.1h8.2v17.1c0,4.5-0.8,8-0.8,8h0.4c4.8-14.6,22.2-27.4,37.4-27.4c19.5,0,28.6,9.1,30.8,26.4h0.4
	c5.4-13.7,20.3-26.4,37-26.4c25.1,0,32.5,14.7,32.5,38v61.7H796v-58.8c0-18.3-3.7-33.2-24.3-33.2c-16.1,0-30,14.4-34.2,29.6
	c-1.4,4.5-2,9.3-2,14.9v47.5h-8.2v-58.8c0-16.7-2.4-33.2-23.8-33.2c-17.3,0-31,15.1-35.4,31.4c-1.2,4.1-1.6,8.6-1.6,13.3v47.5h-8.2
	L658.4,555.1L658.4,555.1z"/>
<path fill="#FFFFFF" d="M877.6,552.7c26.4,0,39.7,20.8,39.7,44.3c0,2.2-0.4,5.2-0.4,5.2h-78.1c0,28.2,19.1,44.3,41.7,44.3
	c18.7,0,30.2-12.3,30.2-12.3l4.5,6.8c0,0-13.7,13.5-34.6,13.5c-27.4,0-50.2-19.9-50.2-50.8C830.4,571.1,852.7,552.7,877.6,552.7z
	 M908.7,594.8c-1-23.8-15.1-34.4-31.4-34.4c-17.9,0-34.4,11.7-38,34.4H908.7z"/>
<path fill="#FFFFFF" d="M944.8,555.1h8.2v18.5c0,4.5-0.8,8-0.8,8h0.4c4.8-14.9,15.7-27.2,31.2-27.2c2.9,0,5.6,0.6,5.6,0.6v8.2
	c0,0-2.4-0.4-4.5-0.4c-15.1,0-24.7,12.9-29,27.2c-2.2,6.8-2.9,14.1-2.9,20.5v42.1h-8.1V555.1z"/>
<g>
	<rect x="224.9" y="676.9" fill="#FFFFFF" width="8.2" height="5.4"/>
	<polygon fill="#FFFFFF" points="1003.9,676.7 1003.9,676.9 243.9,676.9 243.9,682.3 1009.3,682.3 1009.3,682.1 	"/>
	<rect x="32.1" y="676.9" fill="#FFFFFF" width="182" height="5.4"/>
</g>
<polygon fill="#FFFFFF" points="392,516.2 392,521.6 1003.8,521.6 1009.2,516.2 "/>
<path fill="#FFFFFF" d="M233.1,516.2v193.1c0,32.3-21,36-31,36c-2.9,0-4.8-0.4-4.8-0.4v-7.6c0,0,1.8,0.4,4.3,0.4
	c7.8,0,23.4-3.1,23.4-28.2V516.2H233.1z"/>
</svg>
