<?xml version="1.0" encoding="utf-8"?>
<!-- Generator: Adobe Illustrator 18.1.1, SVG Export Plug-In . SVG Version: 6.00 Build 0)  -->
<svg version="1.1" id="Layer_1" xmlns="http://www.w3.org/2000/svg" xmlns:xlink="http://www.w3.org/1999/xlink" x="0px" y="0px"
	 viewBox="37.2 517.3 967.1 227.7" enable-background="new 37.2 517.3 967.1 227.7" xml:space="preserve">
<g>
	<path fill="#1B75BB" d="M485,695.2h15.8c14.7,0,24.5,9,24.5,24.4c0,15.6-9.9,24.5-24.5,24.5H485V695.2z M500.3,739.8
		c12.1,0,20-7.1,20-20.1c0-13-8.1-20.1-20-20.1h-10.5v40.3H500.3L500.3,739.8z"/>
	<path fill="#1B75BB" d="M571.3,695.2h27.5v4.3h-22.8v17.8h18.6v4.3h-18.6v18.2h24v4.3h-28.8V695.2z"/>
	<path fill="#1B75BB" d="M645.1,735c0,0,5.1,5.4,12.8,5.4c5.4,0,9.7-3.2,9.7-8.5c0-12.4-24.4-9.1-24.4-24.3c0-7,6.2-13.1,15.3-13.1
		c8.5,0,13,4.8,13,4.8l-2.3,4c0,0-4.3-4.2-10.7-4.2c-6.2,0-10.3,4.1-10.3,8.5c0,11.6,24.4,8.3,24.4,24.3c0,7.3-5.6,13.2-14.8,13.2
		c-10,0-15.5-6.2-15.5-6.2L645.1,735z"/>
	<path fill="#1B75BB" d="M718.1,695.2h4.8v48.9h-4.8V695.2z"/>
	<path fill="#1B75BB" d="M793.2,694.4c11.4,0,17.4,5.7,17.4,5.7l-2.5,3.6c0,0-5.7-4.9-14.6-4.9c-11.9,0-19.8,9.1-19.8,20.7
		c0,12.1,8.3,20.9,19.4,20.9c9.5,0,15.4-7.2,15.4-7.2V725H800v-4.3h12.9v23.4h-4.5v-3.7c0-1.1,0.1-2,0.1-2h-0.1c0,0-5.6,6.6-16,6.6
		c-13.3,0-23.9-10.8-23.9-25.3C768.6,705.5,779.1,694.4,793.2,694.4z"/>
	<path fill="#1B75BB" d="M859.4,695.2h4.7l25,35.2c1.7,2.4,4,6.6,4,6.6h0.1c0,0-0.4-4-0.4-6.6v-35.2h4.8v48.9h-4.7l-24.9-35.2
		c-1.7-2.4-4.1-6.6-4.1-6.6h-0.1c0,0,0.4,4,0.4,6.6v35.2h-4.8V695.2z"/>
	<path fill="#1B75BB" d="M945.8,735c0,0,5.1,5.4,12.8,5.4c5.4,0,9.7-3.2,9.7-8.5c0-12.4-24.4-9.1-24.4-24.3c0-7,6.2-13.1,15.3-13.1
		c8.5,0,13,4.8,13,4.8l-2.3,4c0,0-4.3-4.2-10.7-4.2c-6.2,0-10.3,4.1-10.3,8.5c0,11.6,24.4,8.3,24.4,24.3c0,7.3-5.6,13.2-14.8,13.2
		c-10,0-15.5-6.2-15.5-6.2L945.8,735z"/>
</g>
<polygon fill="#FFF100" points="1004.1,517.4 1004.1,517.4 998.8,522.8 "/>
<polygon fill="#45598A" points="1004.1,517.4 998.8,522.8 998.9,522.8 998.9,676.4 1004.2,681.7 1004.2,517.4 "/>
<path fill="#231F20" d="M312.9,553.5c23,0,34.4,13.7,34.4,13.7l-5,6.5c0,0-11-12.4-29.5-12.4c-22.6,0-41.3,16.7-41.3,42.8
	c0,25.6,18.7,42.4,41.3,42.4c21.2,0,32.2-13.9,32.2-13.9l4.3,6.7c0,0-12.6,15-36.4,15c-27.1,0-49.7-19.7-49.7-50.3
	S286.2,553.5,312.9,553.5z"/>
<path fill="#231F20" d="M376.1,517.3h8.1v50.1c0,4.5-0.8,7.9-0.8,7.9h0.4c0,0,8.3-21.8,34.8-21.8c25.8,0,41.6,20.6,41.6,50.5
	c0,30.6-17.9,50.5-43.1,50.5c-24.2,0-33.3-21.8-33.3-21.8h-0.4c0,0,0.8,3.5,0.8,8.5v11h-8.2V517.3z M417.5,646.6
	c18.9,0,34.3-15.6,34.3-42.6c0-26-13.9-42.6-33.5-42.6c-17.7,0-34.3,12.6-34.3,42.8C383.9,625.6,394.9,646.6,417.5,646.6z"/>
<path fill="#231F20" d="M487.7,555.8h8.1v18.3c0,4.5-0.8,7.9-0.8,7.9h0.4c4.8-14.8,15.6-27,30.8-27c2.9,0,5.5,0.6,5.5,0.6v8.1
	c0,0-2.3-0.4-4.5-0.4c-15,0-24.4,12.7-28.7,27c-2.1,6.7-2.9,13.9-2.9,20.2v41.6h-8.1L487.7,555.8L487.7,555.8z"/>
<path fill="#231F20" d="M590.5,553.5c26.2,0,39.3,20.6,39.3,43.9c0,2.1-0.4,5.2-0.4,5.2h-77.3c0,27.9,18.9,43.9,41.3,43.9
	c18.5,0,29.9-12.2,29.9-12.2l4.5,6.7c0,0-13.5,13.3-34.3,13.3c-27.1,0-49.7-19.7-49.7-50.3C543.7,571.7,565.9,553.5,590.5,553.5z
	 M621.4,595.2c-1-23.5-15-34.1-31-34.1c-17.7,0-34.1,11.6-37.6,34.1H621.4z"/>
<path fill="#231F20" d="M657,555.8h8.1v16.9c0,4.5-0.8,7.9-0.8,7.9h0.4c4.8-14.4,22-27.1,37-27.1c19.3,0,28.3,9,30.5,26.2h0.4
	c5.4-13.5,20-26.2,36.6-26.2c24.8,0,32.2,14.6,32.2,37.6v61.1h-8.1V594c0-18.1-3.7-32.9-24-32.9c-16,0-29.7,14.2-33.9,29.3
	c-1.4,4.5-1.9,9.2-1.9,14.8v47h-8.1V594c0-16.5-2.3-32.9-23.5-32.9c-17.1,0-30.6,15-35,31c-1.2,4.1-1.6,8.5-1.6,13.1v47h-8.1
	L657,555.8L657,555.8z"/>
<path fill="#231F20" d="M874,553.5c26.2,0,39.3,20.6,39.3,43.9c0,2.1-0.4,5.2-0.4,5.2h-77.3c0,27.9,18.9,43.9,41.3,43.9
	c18.5,0,29.9-12.2,29.9-12.2l4.5,6.7c0,0-13.5,13.3-34.2,13.3c-27.1,0-49.7-19.7-49.7-50.3C827.2,571.7,849.2,553.5,874,553.5z
	 M904.7,595.2c-1-23.5-15-34.1-31-34.1c-17.7,0-34.1,11.6-37.6,34.1H904.7z"/>
<path fill="#231F20" d="M940.4,555.8h8.1v18.3c0,4.5-0.8,7.9-0.8,7.9h0.4c4.8-14.8,15.6-27,30.8-27c2.9,0,5.5,0.6,5.5,0.6v8.1
	c0,0-2.3-0.4-4.5-0.4c-15,0-24.4,12.7-28.7,27c-2.1,6.7-2.9,13.9-2.9,20.2v41.6h-8V555.8z"/>
<g>
	<rect x="228" y="676.4" fill="#1B75BB" width="8.1" height="5.4"/>
	<polygon fill="#1B75BB" points="998.9,676.2 998.9,676.4 246.7,676.4 246.7,681.7 1004.2,681.7 1004.2,681.6 	"/>
	<rect x="37.2" y="676.4" fill="#1B75BB" width="180.1" height="5.4"/>
</g>
<polygon fill="#2A4468" points="393.3,517.4 393.3,522.8 998.8,522.8 1004.1,517.4 "/>
<path fill="#231F20" d="M236,517.4v191.1c0,32-20.8,35.6-30.6,35.6c-2.9,0-4.8-0.4-4.8-0.4v-7.5c0,0,1.8,0.4,4.3,0.4
	c7.7,0,23.2-3.1,23.2-27.9V517.4H236z"/>
</svg>
