<?xml version="1.0" encoding="utf-8"?>
<!-- Generator: Adobe Illustrator 18.1.1, SVG Export Plug-In . SVG Version: 6.00 Build 0)  -->
<svg version="1.1" id="Layer_1" xmlns="http://www.w3.org/2000/svg" xmlns:xlink="http://www.w3.org/1999/xlink" x="0px" y="0px"
	 viewBox="0 239.3 1022.2 289.5" enable-background="new 0 239.3 1022.2 289.5" xml:space="preserve">
<g>
	<path fill="#FFFFFF" d="M377.7,465.4h20c18.8,0,31.4,11.4,31.4,31.1s-12.5,31.1-31.4,31.1h-20V465.4z M397.1,522.2
		c15.2,0,25.4-9,25.4-25.7c0-16.4-10.2-25.7-25.4-25.7H384v51.4H397.1z"/>
	<path fill="#FFFFFF" d="M487.3,465.4h34.9v5.4h-29v22.7h23.6v5.7h-23.6v23h30.5v5.4H487v-62.1H487.3z"/>
	<path fill="#FFFFFF" d="M581.1,516.2c0,0,6.6,6.9,16.1,6.9c6.9,0,12.2-4.2,12.2-10.8c0-15.5-31.1-11.6-31.1-31.1
		c0-9,7.8-16.7,19.4-16.7c10.8,0,16.7,6,16.7,6l-3,5.1c0,0-5.4-5.4-13.7-5.4c-8.1,0-13.1,5.1-13.1,10.8c0,14.6,31.1,10.5,31.1,31.1
		c0,9.3-7.2,16.7-18.8,16.7c-12.8,0-19.7-8.1-19.7-8.1L581.1,516.2z"/>
	<path fill="#FFFFFF" d="M674,465.4h6v62.1h-6V465.4z"/>
	<path fill="#FFFFFF" d="M769.6,464.5c14.3,0,22.1,7.2,22.1,7.2l-3.3,4.5c0,0-7.2-6.3-18.5-6.3c-14.9,0-25.1,11.6-25.1,26.3
		c0,15.2,10.5,26.6,24.8,26.6c12.2,0,19.4-9.3,19.4-9.3V503h-10.8v-5.4h16.4v29.9H789v-4.5c0-1.2,0-2.7,0-2.7h-0.3
		c0,0-7.2,8.4-20.3,8.4c-17,0-30.5-13.7-30.5-32.3C738.3,478.5,751.7,464.5,769.6,464.5z"/>
	<path fill="#FFFFFF" d="M853.9,465.4h6l31.7,44.8c2.1,3,5.1,8.4,5.1,8.4h0.3c0,0-0.6-5.1-0.6-8.4v-44.8h6v62.1h-6l-31.7-44.8
		c-2.1-3-5.1-8.4-5.1-8.4h-0.3c0,0,0.6,5.1,0.6,8.4v44.8h-6V465.4z"/>
	<path fill="#FFFFFF" d="M963.8,516.2c0,0,6.6,6.9,16.1,6.9c6.9,0,12.2-4.2,12.2-10.8c0-15.5-31.1-11.6-31.1-31.1
		c0-9,7.8-16.7,19.4-16.7c10.8,0,16.7,6,16.7,6l-3,5.1c0,0-5.4-5.4-13.7-5.4c-8.1,0-13.1,5.1-13.1,10.8c0,14.6,31.1,10.5,31.1,31.1
		c0,9.3-7.2,16.7-18.8,16.7c-12.8,0-19.7-8.1-19.7-8.1L963.8,516.2z"/>
</g>
<polygon fill="#FFFFFF" points="1021.9,239.3 1021.9,239.3 1015,246.1 "/>
<polygon fill="#FFFFFF" points="1021.9,239.3 1015,246.1 1015.3,246.1 1015.3,441.5 1022.2,448.4 1022.2,239.3 "/>
<g>
	<path fill="#FFFFFF" d="M142.8,285.3c29.3,0,43.9,17.3,43.9,17.3l-6.3,8.4c0,0-14-15.5-37.3-15.5c-28.7,0-52.6,21.2-52.6,54.4
		c0,32.6,23.9,53.8,52.6,53.8c26.9,0,40.9-17.6,40.9-17.6l5.4,8.7c0,0-15.8,19.1-46.3,19.1c-34.7,0-63.3-25.1-63.3-63.9
		S108.7,285.3,142.8,285.3z"/>
</g>
<g>
	<path fill="#FFFFFF" d="M223.1,239.3h10.2v63.6c0,5.7-0.9,10.2-0.9,10.2h0.6c0,0,10.5-27.8,44.2-27.8c32.9,0,52.9,26.3,52.9,64.2
		c0,38.8-22.7,64.2-55,64.2c-30.8,0-42.4-27.8-42.4-27.8h-0.6c0,0,0.9,4.5,0.9,10.8v14h-10.2V239.3H223.1z M276,403.6
		c23.9,0,43.6-19.7,43.6-54.1c0-33.2-17.6-54.1-42.7-54.1c-22.4,0-43.6,15.8-43.6,54.4C233.3,377,247.3,403.6,276,403.6z"/>
</g>
<g>
	<path fill="#FFFFFF" d="M365,288.3h10.2v23.3c0,5.7-0.9,10.2-0.9,10.2h0.6c6.3-18.8,19.7-34.4,39.1-34.4c3.6,0,7.2,0.6,7.2,0.6
		v10.2c0,0-3-0.6-5.7-0.6c-19.1,0-31.1,16.1-36.4,34.4c-2.7,8.7-3.6,17.6-3.6,25.7v52.9h-10.2V288.3H365z"/>
</g>
<g>
	<path fill="#FFFFFF" d="M495.9,285.3c33.5,0,49.9,26.3,49.9,55.9c0,2.7-0.6,6.6-0.6,6.6h-98.3c0,35.5,23.9,55.9,52.6,55.9
		c23.6,0,37.9-15.5,37.9-15.5l5.7,8.7c0,0-17,17-43.6,17c-34.7,0-63.3-25.1-63.3-63.9C436.4,308.3,464.5,285.3,495.9,285.3z
		 M535,338.1c-1.2-29.9-19.1-43.3-39.4-43.3c-22.4,0-43.3,14.6-47.8,43.3H535z"/>
</g>
<g>
	<path fill="#FFFFFF" d="M580.4,288.3h10.2v21.5c0,5.7-0.9,10.2-0.9,10.2h0.6c6.3-18.5,28.1-34.7,46.9-34.7
		c24.5,0,36.1,11.6,38.8,33.5h0.6c6.9-17,25.4-33.5,46.6-33.5c31.7,0,40.9,18.5,40.9,47.8v77.7H754v-74.1c0-23-4.8-41.8-30.8-41.8
		c-20.3,0-37.6,18.2-43,37.3c-1.8,5.7-2.4,11.6-2.4,18.8v59.7h-10.2v-74.1c0-21.2-3-41.8-29.9-41.8c-21.8,0-38.8,19.1-44.5,39.4
		c-1.5,5.1-2.1,10.8-2.1,16.7v59.7H581V288.3H580.4z"/>
</g>
<g>
	<path fill="#FFFFFF" d="M856.4,285.3c33.5,0,49.9,26.3,49.9,55.9c0,2.7-0.6,6.6-0.6,6.6h-98.3c0,35.5,23.9,55.9,52.6,55.9
		c23.6,0,37.9-15.5,37.9-15.5l5.7,8.7c0,0-17,17-43.6,17c-34.7,0-63.3-25.1-63.3-63.9C797,308.3,825.1,285.3,856.4,285.3z
		 M895.6,338.1c-1.2-29.9-19.1-43.3-39.4-43.3c-22.4,0-43.3,14.6-47.8,43.3H895.6z"/>
</g>
<g>
	<path fill="#FFFFFF" d="M941,288.3h10.2v23.3c0,5.7-0.9,10.2-0.9,10.2h0.6c6.3-18.8,19.7-34.4,39.1-34.4c3.6,0,7.2,0.6,7.2,0.6
		v10.2c0,0-3-0.6-5.7-0.6c-19.1,0-31.1,16.1-36.4,34.4c-2.7,8.7-3.6,17.6-3.6,25.7v52.9H941V288.3z"/>
</g>
<g>
	<path fill="#FFFFFF" d="M45.1,239.3v243.2c0,40.6-26.6,45.4-38.8,45.4c-3.6,0-6.3-0.6-6.3-0.6v-9.6c0,0,2.1,0.6,5.4,0.6
		c9.9,0,29.3-3.9,29.3-35.5V239.3H45.1z"/>
</g>
<polygon fill="#FFFFFF" points="246.1,239.9 246.1,245.8 1015,245.8 1021.9,239.9 "/>
<polygon fill="#FFFFFF" points="1015.3,441.2 1015.3,441.5 62.7,441.5 62.7,448.4 1022.2,448.4 1022.2,448.1 "/>
</svg>
