<?xml version="1.0" encoding="utf-8"?>
<!-- Generator: Adobe Illustrator 18.1.1, SVG Export Plug-In . SVG Version: 6.00 Build 0)  -->
<svg version="1.1" id="Layer_1" xmlns="http://www.w3.org/2000/svg" xmlns:xlink="http://www.w3.org/1999/xlink" x="0px" y="0px"
	 viewBox="0 0 375.9 114" enable-background="new 0 0 375.9 114" xml:space="preserve">
<g>
	<path fill-rule="evenodd" clip-rule="evenodd" d="M182.7,81.4l26.9,3.2l-8,4.5c5.1,3.5,11.2,5.4,17.5,5.4c6.7,0,13.1-2.1,18.5-6.1
		c13.7-10.2,16.6-29.6,6.4-43.4c-5.9-7.9-15-12.5-24.9-12.5c-6.7,0-13.1,2.1-18.5,6.1c-3.7,2.7-6.6,6.2-8.8,10.2l-0.6,1.1h-10.4
		l1.6-2.9c2.8-5.3,6.7-9.8,11.5-13.4c7-5.2,15.4-8,24.1-8c8.3,0,16.5,2.6,23.2,7.3c0.5-0.3,0.9-0.7,1.4-1.1
		c2.7-2.5,15-18.9,17.1-22.2c2.3-3.6,4.9-6,7.9-7c1.1-0.4,2.3-0.6,3.5-0.6c4,0,7,2.5,7.7,6.4c1.1,6.5-7.4,13.7-10,15.7
		c-2.2,1.7-10.1,7.9-17.5,14.8c-0.7,0.7-1.2,1.4-1.5,2.2c0.2,0.3,0.4,0.5,0.6,0.8c13.3,17.9,9.6,43.2-8.3,56.5c-7,5.2-15.4,8-24.1,8
		c0,0,0,0,0,0c-8.9,0-17.6-2.9-24.6-8.3l-3.5,9.4L182.7,81.4z M270.4,10.2c-0.5,0.3-1.2,1-1.9,2C269.5,11.4,270.1,10.7,270.4,10.2z"
		/>
	<path fill="#FFFFFF" d="M271.1,4c2.7,0,5.2,1.5,5.7,4.7c0.7,4.4-4.6,10.2-9.2,13.8c-4.6,3.6-11.5,9.2-17.6,14.9
		c-1.3,1.2-2.1,2.6-2.3,4.2c0.4,0.5,0.8,1,1.2,1.5c12.7,17,9.1,41.1-7.9,53.7c-6.9,5.1-14.9,7.6-22.9,7.6c-9.2,0-18.3-3.3-25.5-9.6
		l-2.3,6.3l-4.9-17.4l17.9,2.1l-5.3,3c6,5,13.5,7.6,21.1,7.6c6.8,0,13.7-2.1,19.6-6.5c14.6-10.9,17.6-31.5,6.8-46.1
		c-6.5-8.7-16.4-13.3-26.5-13.3c-6.8,0-13.8,2.1-19.7,6.5c-4,3-7.1,6.7-9.4,10.8h-5.8c2.6-4.9,6.2-9.2,10.9-12.7
		c6.9-5.1,14.9-7.6,22.9-7.6c8.2,0,16.3,2.6,23.1,7.7c1.1-0.5,2-1.2,2.9-2c2.9-2.6,15.3-19.3,17.5-22.6c1-1.5,3.3-4.9,6.9-6.2
		C269.2,4.2,270.2,4,271.1,4 M263.9,17.1c0.6,0,2-0.7,4.7-2.5c5.2-3.5,4.9-6.8,2.8-6.8c-1.3,0-3.3,1.2-5.2,4.3
		C264.9,14.1,262.7,17.1,263.9,17.1 M271.1,0c-1.4,0-2.8,0.2-4.1,0.7c-3.4,1.2-6.4,3.8-8.9,7.8c-2.3,3.6-14.4,19.7-16.8,21.8
		c0,0-0.1,0.1-0.1,0.1c-6.8-4.4-14.9-6.8-23.1-6.8c-9.2,0-17.9,2.9-25.3,8.4c-5.1,3.8-9.1,8.5-12.1,14l-3.1,5.9h6.7h5.8h2.4l1.1-2.1
		c2-3.8,4.8-7,8.2-9.5c5-3.8,11-5.7,17.3-5.7c9.3,0,17.7,4.3,23.3,11.7c9.5,12.8,6.9,31-5.9,40.6c-5,3.7-11,5.7-17.3,5.7
		c-4.8,0-9.4-1.2-13.6-3.4l10.2-5.9l-12-1.4l-17.9-2.1l-6-0.7l1.6,5.8l4.9,17.4l3.3,11.8l4.3-11.5l0.5-1.2
		c6.9,4.6,15.1,7.2,23.6,7.2c9.2,0,17.9-2.9,25.3-8.4c18.7-13.9,22.6-40.4,8.8-59.2c0.1-0.2,0.3-0.4,0.5-0.6
		c7.3-6.8,15.1-12.9,17.3-14.6c2.8-2.2,12-10,10.7-17.6C280,3.2,276.2,0,271.1,0L271.1,0z"/>
</g>
<g>
	<path d="M0,50.6h4v12.6h5l18.6-12.6h6.5l0.1,0.1L13,64.9l23.1,15.3l-0.1,0.1h-7L8.7,66.4H4v13.8H0V50.6z"/>
	<path d="M40.5,50.6h4v29.6h-4V50.6z"/>
	<path d="M64.2,53.9h-15v-3.3h33.9v3.3h-15v26.3h-4V53.9z"/>
	<path d="M87,61.4c0-7.5,2.5-11.1,10.6-11.1h15.3c7.3,0,9.3,3.4,9.3,7.4v2.5h-3.5v-1.3c0-5-3.1-5.3-6.8-5.3H98c-3.8,0-7,1.1-7,6.3
		V71c0,5.2,3.1,6.3,7,6.3h14c5.4,0,7-1.1,7-5.2v-1.8h3.8v2c0,5.4-1.7,8.3-10,8.3H97.6c-8,0-10.6-3.6-10.6-11.1V61.4z"/>
	<path d="M129.2,50.6h4v12.7h26.7V50.6h4v29.6h-4V66.6h-26.7v13.6h-4V50.6z"/>
	<path d="M171.8,50.6h29.1v3.3h-25.1v9.4h24.1v3.3h-24.1V77H201v3.3h-29.2V50.6z"/>
	<path d="M206.9,50.6h6l27.1,26v-26h4v29.6h-6l-27.1-26v26h-4V50.6z"/>
</g>
<g>
	<path d="M259.3,69.7h8.6V71c0,2.5,0.8,3.1,3.9,3.1h10.8c2.8,0,3.1-0.8,3.1-2.8c0-2-0.5-2.9-3.3-2.9h-9.3v-6.1h8.5
		c2.9,0,3.5-0.7,3.5-2.9c0-2.3-1.4-2.9-4.1-2.9h-9c-2.9,0-3.8,0.6-3.8,2.8v1.3h-8.6v-1.6c0-8,3.9-8.8,15-8.8h6.1
		c10.6,0,13,1.6,13,8.2c0,5-0.9,5.6-4.9,6.8v0.1c4.8,0.8,5.6,2.3,5.6,7c0,5.8-2,8.1-10.3,8.1H269c-5.3,0-9.7-1.5-9.7-7.7V69.7z"/>
	<path d="M300.2,61.9c0-9,3.3-11.6,13-11.6h9.4c8.6,0,10.9,3,10.9,6.7v2.3h-7.9c0-2-1.3-2.7-4.5-2.7h-8c-3.1,0-4.4,1.2-4.4,3.6v3.5
		c1.5-1.5,3.2-2.2,6.7-2.2h8.5c8.8,0,10.3,2.9,10.3,8.3v2.6c0,7.3-3.6,8.2-10.6,8.2h-12.9c-7.1,0-10.6-2.7-10.6-10.4V61.9z
		 M321.5,74.2c3.5,0,4.5-0.8,4.5-3.3c0-2.5-0.9-3.2-4.6-3.2h-7.9c-3.7,0-4.6,0.7-4.6,3.2c0,2.5,1,3.3,4.5,3.3H321.5z"/>
	<path d="M339.4,61.9c0-9,3.3-11.6,13-11.6H363c9.7,0,13,2.6,13,11.6v8.3c0,7.7-3.5,10.4-10.6,10.4H350c-7.1,0-10.6-2.7-10.6-10.4
		V61.9z M348.2,68.6c0,3.1,1,4.6,5.2,4.6h8.4c4.3,0,5.2-1.5,5.2-4.6v-6.4c0-3.1-1-4.6-5.2-4.6h-8.4c-4.3,0-5.2,1.5-5.2,4.6V68.6z"/>
</g>
<path fill-rule="evenodd" clip-rule="evenodd" fill="none" stroke="#000000" d="M32.3,44.2"/>
</svg>
