<?xml version="1.0" encoding="utf-8"?>
<!-- Generator: Adobe Illustrator 18.1.1, SVG Export Plug-In . SVG Version: 6.00 Build 0)  -->
<svg version="1.1" id="Layer_1" xmlns="http://www.w3.org/2000/svg" xmlns:xlink="http://www.w3.org/1999/xlink" x="0px" y="0px"
	 viewBox="0 0 209.6 42.3" enable-background="new 0 0 209.6 42.3" xml:space="preserve">
<ellipse fill="#FFFFFF" cx="196.3" cy="13.5" rx="3.3" ry="4.4"/>
<g>
	<path fill="#F7941E" d="M204.2,17.7c0.1,1.3,0.7,2.6,2.2,3.4c0.6-0.3,1.1-1.2,2.9-2.8L204.2,17.7z"/>
</g>
<g>
	<path fill="#F7941E" d="M205.7,14c-0.2,0.2-0.2,0.1-0.4,0.4c-0.7,0.8-1.1,1.8-1.1,3c0,0.1,0,0.1,0,0.3l5.4-0.9L205.7,14z"/>
</g>
<path fill="#0072BC" d="M197,12.9c-0.5,0-0.9,0.2-1.2,0.6c0.4,0,0.7,0.3,0.7,0.7c0,0.4-0.3,0.7-0.7,0.7c-0.2,0-0.4-0.1-0.5-0.2
	c0,0.2-0.1,0.3-0.1,0.5c0,1.3,0.8,2.3,1.9,2.3c1,0,1.9-1,1.9-2.3S198,12.9,197,12.9z"/>
<path fill="#ED1C24" d="M206.6,22c0.1-0.3-0.1-0.4-0.2-0.6c-1.8-0.5-3.1-2.2-3.1-4.2c0-1.5,0.7-2.8,1.7-3.6l-3.4-2.6h0
	c0,0-2.3-1.9-5.4-3.4c-3.1-1.5-10-1.9-10-1.9l2.8,4.2l-1.9-0.2l2,1.5c-0.6,1.3-1.9,4.1-3.5,6.9c-0.5,0.9-1.2,2.3-2,3.9V26l1.8-3.9
	c0.1-0.1,0.2-0.2,0.3-0.1s0.2,0.2,0.1,0.3l-2.3,4.9v5.9l3.6-10.6c0.1-0.1,0.2-0.2,0.3-0.1c0.1,0.1,0.2,0.2,0.1,0.3L184,33.2
	c1-0.3,1.9-0.7,2.8-1.2c0,0,0,0,0-0.1l2-9.5c0-0.1,0.1-0.2,0.3-0.2c0.1,0,0.2,0.1,0.2,0.3l-1.9,9.1c0.5-0.3,1-0.6,1.5-0.9
	c4.9-3.5,2.3-9.9,2.2-10c-0.1-0.1,0-0.3,0.1-0.3c0.1-0.1,0.3,0,0.3,0.1c0,0.1,2.8,6.9-2.4,10.6c-1.7,1.2-3.4,2.1-5.5,2.7v2.7
	l1.2-1.6c0,0,0.8,0.5,7.3,1.6c6.5,1.1,8.2-0.1,11.5-1.5c0.2-0.1,0.3-0.2,0.5-0.3c0.5-0.3,0.8-0.6,1.1-0.9c1.1-1,2.7-2.6,3.1-4.2
	C208.9,27,207.2,23.4,206.6,22z M198.3,13.4c0,0.2,0,0.4-0.1,0.6c-0.3,1.7-1.1,2.3-2.2,2.3c-0.2,0-0.4,0-0.6-0.1c0,0,0,0,0,0
	c-0.1,0-0.1,0-0.2-0.1c0,0-0.1,0-0.1,0c-0.1,0-0.1-0.1-0.2-0.1c-0.1,0-0.2-0.1-0.2-0.1c0,0-0.1,0-0.1-0.1c-0.1-0.1-0.2-0.1-0.2-0.2
	c0,0-0.1-0.1-0.1-0.1c0,0,0,0,0-0.1c-0.5-0.6-0.8-1.3-0.8-2.2c0-1.7,1.1-3.1,2.4-3.1c1.3,0,2.4,1.4,2.4,3.1
	C198.4,13.3,198.4,13.4,198.3,13.4C198.3,13.4,198.3,13.4,198.3,13.4z"/>
<path fill="#FFFFFF" d="M14.5,12.9c6.7,0,10,4,10,4L23,18.8c0,0-3.2-3.6-8.6-3.6c-6.6,0-12,4.9-12,12.4c0,7.5,5.4,12.3,12,12.3
	c6.2,0,9.4-4,9.4-4l1.2,2c0,0-3.6,4.4-10.6,4.4C6.6,42.3,0,36.6,0,27.6S6.7,12.9,14.5,12.9z"/>
<path fill="#FFFFFF" d="M47.9,24.5h1.8v-1c0-6.2-3.2-8.3-7.7-8.3c-4.9,0-8,2.7-8,2.7L32.7,16c0,0,3.4-3.1,9.5-3.1
	c6.4,0,9.9,3.6,9.9,10.6v18.1h-2.4v-3.7c0-1.5,0.2-2.5,0.2-2.5h-0.1c0.1,0-2.5,6.9-9.8,6.9c-4.5,0-9.5-2.5-9.5-8.1
	C30.5,24.6,42.9,24.5,47.9,24.5z M40.2,40.1c6.1,0,9.6-6.3,9.6-11.9v-1.5h-1.8c-4.8,0-15,0-15,7.3C33,36.9,35.4,40.1,40.2,40.1z"/>
<path fill="#FFFFFF" d="M86.8,12.9c7.1,0,9.7,6.3,9.7,6.3h0.1c0,0-0.2-1-0.2-2.3V0.1h2.4v41.5h-2.4v-3.5c0-1.3,0.2-2.1,0.2-2.1h-0.1
	c0,0-2.4,6.3-10.1,6.3c-7.5,0-12.1-6-12.1-14.7C74.3,18.7,79.5,12.9,86.8,12.9z M86.5,40c5.2,0,10-3.6,10-12.4
	c0-6.2-3.2-12.3-9.7-12.3c-5.5,0-10,4.5-10,12.4C76.7,35.2,80.8,40,86.5,40z"/>
<path fill="#FFFFFF" d="M108.6,13.6h2.4v28h-2.4V13.6z"/>
<path fill="#FFFFFF" d="M120.8,13.6h2.4v4.9c0,1.3-0.2,2.3-0.2,2.3h0.1c1-2.6,4.9-7.9,11.9-7.9c7.3,0,9.2,4.3,9.2,10.9v17.8h-2.4
	V24.7c0-4.9-0.6-9.5-6.9-9.5c-5.3,0-9.9,3.7-11.3,8.9c-0.3,1.2-0.4,2.5-0.4,3.8v13.7h-2.4V13.6z"/>
<path fill="#FFFFFF" d="M168.7,24.5h1.8v-1c0-6.2-3.2-8.3-7.7-8.3c-4.9,0-8,2.7-8,2.7l-1.3-1.9c0,0,3.4-3.1,9.5-3.1
	c6.4,0,9.9,3.6,9.9,10.6v18.1h-2.4v-3.7c0-1.5,0.2-2.5,0.2-2.5h-0.1c0.1,0-2.5,6.9-9.8,6.9c-4.5,0-9.5-2.5-9.5-8.1
	C151.3,24.6,163.7,24.5,168.7,24.5z M161,40.1c6.1,0,9.6-6.3,9.6-11.9v-1.5h-1.8c-4.8,0-15,0-15,7.3C153.8,36.9,156.2,40.1,161,40.1
	z"/>
<path fill="#FFFFFF" d="M182.1,0.1h2.4v35.1c0,3.9,2,4.4,3.3,4.4c0.4,0,0.8-0.1,0.8-0.1v2.2c0,0-0.5,0.1-1,0.1
	c-1.6,0-5.5-0.6-5.5-5.9V0.1z"/>
<g>
	<path fill="#FFFFFF" d="M58.9,13.8h2.3v5.3c0,1.3-0.2,2.3-0.2,2.3h0.1c1.4-4.3,4.5-7.8,8.9-7.8c0.8,0,1.6,0.2,1.6,0.2v2.3
		c0,0-0.7-0.1-1.3-0.1c-4.3,0-7.1,3.7-8.3,7.8c-0.6,2-0.8,4-0.8,5.8v12h-2.3V13.8z"/>
</g>
<g>
	<path fill="#FFFFFF" d="M108.4,0.2h3.4c3.2,0,5.3,1.9,5.3,5.3c0,3.4-2.1,5.3-5.3,5.3h-3.4V0.2z M111.7,9.8c2.6,0,4.3-1.5,4.3-4.3
		c0-2.8-1.7-4.3-4.3-4.3h-2.3v8.7H111.7z"/>
	<path fill="#FFFFFF" d="M122.1,0.2h5.9v0.9h-4.9V5h4v0.9h-4v3.9h5.2v0.9h-6.2V0.2z"/>
	<path fill="#FFFFFF" d="M133.2,8.8c0,0,1.1,1.2,2.8,1.2c1.2,0,2.1-0.7,2.1-1.8c0-2.7-5.3-2-5.3-5.2c0-1.5,1.3-2.8,3.3-2.8
		c1.8,0,2.8,1,2.8,1l-0.5,0.9c0,0-0.9-0.9-2.3-0.9c-1.3,0-2.2,0.9-2.2,1.8c0,2.5,5.3,1.8,5.3,5.2c0,1.6-1.2,2.8-3.2,2.8
		c-2.2,0-3.3-1.3-3.3-1.3L133.2,8.8z"/>
	<path fill="#FFFFFF" d="M144.1,0.2h1v10.5h-1V0.2z"/>
	<path fill="#FFFFFF" d="M155.4,0c2.4,0,3.8,1.2,3.8,1.2L158.6,2c0,0-1.2-1-3.1-1c-2.5,0-4.3,2-4.3,4.5c0,2.6,1.8,4.5,4.2,4.5
		c2.1,0,3.3-1.5,3.3-1.5V6.6h-1.8V5.7h2.8v5h-1V9.9c0-0.2,0-0.5,0-0.5h0c0,0-1.2,1.4-3.4,1.4c-2.9,0-5.2-2.3-5.2-5.5
		C150.1,2.4,152.4,0,155.4,0z"/>
	<path fill="#FFFFFF" d="M164.9,0.2h1l5.4,7.6c0.4,0.5,0.9,1.4,0.9,1.4h0c0,0-0.1-0.9-0.1-1.4V0.2h1v10.5h-1l-5.4-7.6
		c-0.4-0.5-0.9-1.4-0.9-1.4h0c0,0,0.1,0.9,0.1,1.4v7.6h-1V0.2z"/>
</g>
</svg>
