<?xml version="1.0" encoding="utf-8"?>
<!-- Generator: Adobe Illustrator 18.1.1, SVG Export Plug-In . SVG Version: 6.00 Build 0)  -->
<svg version="1.1" id="Layer_1" xmlns="http://www.w3.org/2000/svg" xmlns:xlink="http://www.w3.org/1999/xlink" x="0px" y="0px"
	 viewBox="0 0 668.9 233.5" enable-background="new 0 0 668.9 233.5" xml:space="preserve">
<g>
	<path fill="#BE1E2D" d="M110.8,0l-3.3,3.2v8.4l-4.6,37.1l1.1,1.1h-1.1l-2.2,40l1.1,1v1l-1.1,1l-2.2,33.8h-1.1
		c-3.7-2.5-8.1-7.1-13.2-13.7C71.9,78.6,62.7,61.4,56.5,61.4c-5.9,0-13.6,7.4-23.2,22.1c-22.1,37.7-33.2,58.8-33.2,63.2
		c2.5,5.6,4.4,8.4,5.6,8.4l6.5-5.3c0,2.1,0.7,3.2,2.2,3.2h1.1l6.7-14.8v-1l-1.1-1v-1l1.1,1l3.2-3.2v-1l-1-1h-1.1l-1,1v-2.1
		c2.1,0,3.2-1,3.2-3.1c1.8-10,8.8-21.2,21-33.8l-2.2,5.3v1h1.1l7.7-10.5v-1l-3.3-9.6c1.5,0,2.3-1,2.3-3.1c4.3,0,9.4,10.5,15.4,31.6
		c4.6,12.3,15.3,25.6,32.1,40l3.2-3.1v-1c3.7,0.5,5.6,1.5,5.6,3.1c2,0,3.5-3.2,4.4-9.5l-1.1-1l3.3-19l-1-5.2v-6.3
		c-2.2-2.6-3.3-5-3.3-7.4v-3.2l3.3-5.2h-2.3v-1l1.1-1.1v-1c0-6.6-1.5-11.5-4.4-14.8h1l3.3-3.1l-1.1-8.4v-1h2.3l-2.3-2.2
		c0-2.6,1.5-3.9,4.5-4.2v-1c0-1.5-1.1-2.2-3.3-2.2l5.6-43.4C117.2,1.8,114.6,0,110.8,0z"/>
	<path fill="#BE1E2D" d="M234.7,39.4h5.5v-3.1h3.7v1l-0.9,1h0.9l2.8-3.1l6.5,2.1v-1l0.9-1h0.9l0.9,1h0.9l0.9-1v1l2.8-1v-2.1l-3.7,1
		l-3.7-1h-13.1l-0.9,1v-1l-14.9,3.1v-1l-13.1,3.1l-2.8-1l-39.2,9.5l-2.8-1c0,2.1-2.2,3.5-6.5,4.2l-2.8-1
		c-12.7,3.3-21.4,6.8-26.1,10.6v3.1c0,2.6,1.2,5.4,3.7,8.4l0.9-1l3.7,1v2.1c-12.5,18.4-18.7,33.8-18.7,46.2l2.8,12.7
		c5.8,9.8,16.4,14.8,31.7,14.8c29.7-3.5,48.1-8.5,55.1-14.8l0.9,1c1.2,0,1.9-1,1.9-3.1l0.9,1l4.7-1h0.9l-1.9-5.3h0.9
		c-1.5-4.9-2.7-7.4-3.7-7.4h-1.9c-17.3,10.5-36,15.8-56,15.8h-7.5c-11.2,0-16.7-3.5-16.7-10.5v-5.3l2.8-13.6h1.9
		c0,8.4,5,12.6,14.9,12.6c5-0.8,7.5-2.2,7.5-4.2c0-1.5-0.9-2.2-2.8-2.2v-1l1.9-3.1c10.9-4.2,16.9-7,17.8-8.4l0.9,1l28-7.4l0.9,1
		c13.1-1.5,19.6-5.4,19.6-11.5l-1.9-4.3c-41.4,8.3-69.7,16.4-84.9,24.2h-0.9v-2.1l9.2-15.8l12.2-9.5v-3.1l-5.6-7.4
		c9.4-4.2,19.3-7.7,29.9-10.5v-2.2l-0.9-1h1.9L188,51h1.9l1.8-2.2v-1l-0.8-1h3.6v2.1h2.8c1.2,0,1.9-1,1.9-3.1c5.6-1,8.4-2.8,8.4-5.3
		h0.9c0,2.1,0.6,3.2,1.9,3.2h3.7v-2.1h1.9l-1.9,3.1h0.9c1.9-0.6,2.8-2.7,2.8-6.3h2.8l0.9,1v-1l1.9,2.1c1.2,0,1.9-1,1.9-3.1l2.8,2.1
		h0.9l4.7-3.1L234.7,39.4z"/>
	<path fill="#BE1E2D" d="M338.9,94.9c-41.4-10-62.1-17.1-62.1-21.2l4.2-5.9c17.7-13.4,34.8-20.1,51.1-20.1l-1.2-1.8l1.6,0.5l0.4,1.4
		l1,0.4l0.8-2.4l1.1,0.4l-0.9,2.2l4.1,0.4c0-1.3,2.3-2.5,7-3.5c0-5.4-3.7-9.3-11.1-11.7h-5.5c-8,0-15.9,1.6-23.5,4.7
		c-28.4,9.8-44.5,19.6-48.3,29.5c0,7.3,4.6,14.4,13.8,21.2c10.4,4.4,31.1,10.3,62.1,17.7v2.4c-19.5,15.7-43.9,23.6-73.2,23.6h-5.5
		c-5.8-1.8-11.7-5.7-18-11.8c-1.5,0-3.4,2.4-5.5,7.1v2.4c5.6,11,17.6,16.5,35.9,16.5l4.2-1.2l1.5,1.2l19.3-3.5
		c27.7-6.1,49.3-16.7,64.8-31.8v-3.6C352.4,102.6,346.4,98.3,338.9,94.9z"/>
	<path fill="#BE1E2D" d="M531.2,154.4l-1.2-5.6c1.4,0,2.1-0.9,2.1-2.7c2.1-2.1,4.3-7.3,6.4-15.7v-0.9l-1-0.9l3.2-5.6h-1l-1.1-0.9
		l5.4-13.8c8.2-3.3,12.9-5.8,14-7.5l3.2,0.9c3.8-2.4,8.8-4.3,15.1-5.5h1l1,0.9l4.4-3.7h1l1,0.9c0-1.9,2.2-2.8,6.5-2.8
		c1,2.5,2.1,3.7,3.2,3.7c12.9,24.8,19.3,38.4,19.3,40.7c0,1.1-3.2,2.4-9.7,3.7c0.1,1.8,5.2,3.9,15.1,6.4h2.1l5.4-7.4
		c0-5.1-2.2-9.8-6.4-13.9v-0.9l1-0.9c-1.7-3-3.4-4.6-5.3-4.6l1-0.9l-4.4-11.1h-2.1v1.9h-1.1v-1.9l1.1-0.9c-1.3,0-2.4-2.8-3.2-8.3
		h-1.1l-1,0.9h-1v-1.9h1l1,0.9l-2.1-7.5v-0.8c3.5,0,5.3-0.6,5.3-1.9v-0.9l-1-0.9c-3.6,0-6.8-0.9-9.7-2.8c-1.6-6.8-3.4-10.2-5.4-10.2
		l1.1-5.5v-0.9l-1.1-0.9c-6.9-21-15.2-31.5-24.7-31.5c-9.7,0-21.2,22.2-34.4,66.6c-15.5,7.4-25.8,13-31.2,16.7v1.9
		c0,7,7.2,11,21.5,12.1c-1.8,6.7-3.2,12.6-4.1,17.5l-43.3-26c-19.5-10.9-45-21-76.5-30.2v-2.2c4.1-0.5,6.1-1.5,6.1-3.1H402v-1
		c0.6-2.1,3.5-3.8,8.5-5.2v-1l-1.2-1c2.1,0,7.4-2.8,15.8-8.3C448.4,57.9,462.1,52,466.3,52h2.4v1l-3.6,7.3v1l1.2,1
		c4.8-1.2,8.9-3.7,12.2-7.3l3.6,1c8.9-0.4,13.3-5.3,13.3-14.7l-10.9-6.2c-12.7,0-47.5,16-104.3,48v-1l1.1-6.2l-2.4-3.1v-1h3.6
		c0-4.5,2-13.2,6-26.1c-1.1-8.4-5.1-12.6-12.1-12.6c-3.6,0-6.4,7-8.5,20.9l1.1,5.2l-9.7,61.6c0,17.3,6.9,26,20.7,26h7.3l3.6-2
		l-1.2-1l13.3-12.6v-1l-23,9.5h-3.6c-3.3-6.5-4.9-12.4-4.9-17.8v-2.1l1.1-1l-1.1-1v-1l1.1-1h-1.1v-1.1l1.1-1v-4.2
		c0-7.6,1.6-11.4,4.9-11.4l2.5,2.1h1.1l1.2-1c1.6,0,2.4,1,2.4,3.1l4.9-1c32.4,5.1,70,21.4,112.9,49.1c3.2,2.2,9,6,16.6,10.8
		c0.4,3.3,3.3,5.2,8.5,5.6l0.2-0.1c39.6,24.7,107.7,65.5,112.6,67.1l4.9-4.3v-4.2l-3.6-4.2L531.2,154.4z M549.3,84.1
		c1.5,0,2.5-1.8,3.2-5.5v-1.9h-1v1.9h-1.1v-0.9l3.2-10.2h1.1V72l2.1-1.9v-1.8l-1-0.9h1l-1-3.7v-0.9l1,0.9h1.1l1-0.9v-0.9l-1-0.9
		l12.9-16.6h1c11.5,21.9,17.3,35.5,17.3,40.7v0.9l-1.1,0.9l-1-0.9l-1,0.9l-3.2-0.9l-15.1,4.6h-1l-1.1-0.9l-16.1,4.7v-4.7l-1-6.4
		L549.3,84.1z M522.4,122.9v-1.9l5.4-3.6h1l-1,5.5H522.4z M446.9,54l3.6-1h2.4v1l-4.8,1h-1.2V54z M436,60.3l1.2-1h3.6v1l-3.6,1H436
		V60.3z"/>
	<path fill="#BE1E2D" d="M658.9,42.5H657l-0.9,0.9c-12.3,36.5-18.4,61.7-18.4,75.4c0,15.8,1.5,23.7,4.6,23.7h4.7l4.6-4.6l-0.9-4.6
		c0-23.5,6.1-51.4,18.4-83.7V48C665.5,44.3,662.1,42.5,658.9,42.5z"/>
	<path fill="#BE1E2D" d="M646.9,148c-4.6,0-7.7,2.1-9.2,6.3c0,5,3.7,8.3,11,10c3.7,0,6.5-2.4,8.3-7.3v-1.8
		C657,150.4,653.6,148,646.9,148z"/>
</g>
<g>
	<path d="M0,174.3h11.5c4.1,0.1,8.2,0.1,11.8,2.4c3.8,2.4,5.8,6.4,5.8,10.8c0,4-1.7,7.7-5,10.2c-3.4,2.5-7.3,2.9-11.4,2.9H4.4v17.7
		H0V174.3z M12,196.6c3.1,0,6.2-0.1,8.9-1.8c2.5-1.5,3.9-4.5,3.9-7.3c0-3.8-2-6.8-5.5-8.2c-2.9-1.2-6.1-1-9.2-1H4.4v18.3H12z"/>
	<path d="M47.1,174.3h10.5c4.2,0,8.8,0.1,12.5,2.1c4.5,2.6,6.8,7.1,6.8,12.2c0,7.2-5.8,13-13,13.2l12.4,16.4h-5.5l-14.9-19.9h1.3
		c3.1,0,6.7,0.1,9.6-1.2c3.6-1.7,5.7-5,5.7-8.9c0-3-1.6-6.1-4.1-7.9c-2.9-2.1-6.5-2.1-9.9-2.1h-7v40h-4.4V174.3z"/>
	<path d="M139.7,196.2c0,12.8-10.5,22.9-23.3,22.9c-12.3,0-23.2-9.9-23.2-22.5c0-12.8,10.5-22.9,23.2-22.9
		C128.8,173.6,139.7,183.6,139.7,196.2z M116.5,177.8c-10.4,0.1-18.9,8.4-18.9,18.7c0,10.2,8.9,18.3,18.9,18.3
		c10.4,0,18.8-8.3,18.8-18.7C135.3,186,126.5,177.8,116.5,177.8L116.5,177.8z"/>
	<path d="M158.7,174.3h11.8c6.3,0.1,12.2,1.1,17.3,5.1c5,4.1,8,10.4,8,16.8c0,6.3-2.7,12.2-7.2,16.4c-5.2,4.8-11,5.7-17.8,5.7h-12.1
		V174.3z M168.8,214.3c5.8-0.1,11-0.2,15.9-4c4.4-3.4,6.7-8.4,6.8-14c-0.1-5.7-2.3-10.4-6.8-13.9c-4.8-3.7-10-4-15.8-4h-5.7v36
		H168.8z"/>
	<path d="M219.3,174.3V201c0,3.2,0.3,6.5,2,9.2c1.8,2.9,5.1,4.6,8.6,4.6c3.1,0,6.2-1.4,8.1-4c2.1-2.9,2.4-6.4,2.4-9.8v-26.7h4.4V201
		c0,4.5-0.4,8.7-3.3,12.4c-2.7,3.6-7.1,5.6-11.7,5.6c-4.4,0-8.7-1.8-11.5-5.2c-3-3.7-3.5-8.2-3.5-12.8v-26.7H219.3z"/>
	<path d="M301.9,185.6c-3.3-5-9.5-7.8-15.3-7.8c-10,0-18.4,8.7-18.4,18.3c0,10.3,8.7,18.7,18.7,18.7c6,0,11.8-3.2,15.2-8h4.9
		c-3.8,7.3-11.8,12.3-20.1,12.3c-12.9,0-23.1-9.9-23.1-22.9c0-12.5,10.2-22.5,22.7-22.5c4.5,0,8.9,1.2,12.7,3.7
		c2.8,1.8,6.4,5.1,7.6,8.3H301.9z"/>
	<path d="M332,178.3h-10.1v-4h24.5v4h-10v40H332V178.3z"/>
	<path d="M363.2,174.3h4.4v44h-4.4V174.3z"/>
	<path d="M433.1,196.2c0,12.8-10.5,22.9-23.3,22.9c-12.3,0-23.2-9.9-23.2-22.5c0-12.8,10.5-22.9,23.2-22.9
		C422.3,173.6,433.1,183.6,433.1,196.2z M409.9,177.8c-10.3,0.1-18.9,8.4-18.9,18.7c0,10.2,8.9,18.3,18.9,18.3
		c10.4,0,18.8-8.3,18.8-18.7C428.7,186,420,177.8,409.9,177.8L409.9,177.8z"/>
	<path d="M452.1,174.3h5.9l24.6,36.5v-36.5h4.4v44h-4.4l-26.2-38.7v38.7h-4.4V174.3z"/>
	<path d="M509.5,206c0.1,4.8,3.9,8.9,8.8,8.9c5,0,9.1-3.6,9.1-8.7c0-2.4-1.2-4.8-3-6.2c-2-1.7-4.3-2.3-6.8-2.9
		c-2.7-0.7-5.5-1.4-7.7-3.3c-2.4-2.1-3.7-5.1-3.7-8.2c0-7.1,5.6-11.8,12.5-11.8c6.7,0,12.1,5.2,12.1,11.9h-4.6
		c-0.3-4.5-3.5-7.7-8-7.7c-4.3,0-7.6,3.5-7.6,7.7c0,5.3,4.4,6.5,8.7,7.7c3.2,0.9,5.9,1.4,8.4,3.7c2.6,2.3,4.1,5.7,4.1,9.2
		c0,7.3-6.2,12.8-13.4,12.8c-7.5,0-13.7-5.4-13.6-13.1H509.5z"/>
</g>
</svg>
