<?xml version="1.0" encoding="utf-8"?>
<!-- Generator: Adobe Illustrator 18.1.1, SVG Export Plug-In . SVG Version: 6.00 Build 0)  -->
<svg version="1.1" id="Layer_1" xmlns="http://www.w3.org/2000/svg" xmlns:xlink="http://www.w3.org/1999/xlink" x="0px" y="0px"
	 viewBox="0 0 681.5 153.8" enable-background="new 0 0 681.5 153.8" xml:space="preserve">
<path fill="#58595B" d="M0,153.8V82.1c0-7,1.1-13.3,3.2-18.8c2.1-5.5,5.2-10.2,9.1-14c3.9-3.8,8.7-6.7,14.2-8.7c5.5-2,11.6-3,18.3-3
	c6.4,0,12.2,1.2,17.5,3.7c5.2,2.4,9.7,5.8,13.3,10c3.6,4.2,6.4,9.2,8.4,15.1c2,5.8,2.9,12.1,2.9,18.9c0,6.4-1,12.2-2.9,17.4
	c-2,5.2-4.7,9.6-8.3,13.2c-3.6,3.6-7.8,6.4-12.8,8.4c-4.9,2-10.4,2.9-16.5,2.9c-4.3,0-8.4-0.6-12.2-1.9s-7.2-3.2-9.9-6v34.6H0z
	 M42.8,107.9c6.1,0,10.9-2.1,14.5-6.4c3.6-4.3,5.4-10.7,5.4-19.3c0-8.6-1.8-15-5.4-19.3c-3.6-4.3-8.4-6.4-14.5-6.4
	c-6.1,0-10.9,2.1-14.5,6.4C24.8,67.3,23,73.7,23,82.2c0,8.6,1.8,15,5.4,19.3C31.9,105.8,36.8,107.9,42.8,107.9z"/>
<path fill="#58595B" d="M141.3,127c-6.4,0-12.4-1.1-17.8-3.3c-5.5-2.2-10.2-5.3-14.2-9.3c-4-4-7.1-8.7-9.4-14.2
	c-2.3-5.5-3.4-11.5-3.4-18c0-6.5,1.1-12.5,3.4-18c2.3-5.5,5.4-10.2,9.4-14.2c4-4,8.7-7.1,14.2-9.3c5.5-2.2,11.4-3.3,17.8-3.3
	s12.4,1.1,17.8,3.3c5.5,2.2,10.2,5.3,14.2,9.3c4,4,7.1,8.7,9.4,14.2c2.3,5.5,3.4,11.5,3.4,18c0,6.5-1.1,12.6-3.4,18
	c-2.3,5.5-5.4,10.2-9.4,14.2c-4,4-8.7,7.1-14.2,9.3C153.7,125.9,147.7,127,141.3,127z M141.3,107.9c6.3,0,11.3-2.1,15-6.4
	c3.7-4.3,5.5-10.7,5.5-19.3c0-8.6-1.8-15-5.5-19.3c-3.7-4.3-8.7-6.4-15-6.4c-6.3,0-11.3,2.1-15,6.4c-3.7,4.3-5.5,10.7-5.5,19.3
	c0,8.6,1.8,15,5.5,19.3C130,105.8,135,107.9,141.3,107.9z"/>
<path fill="#58595B" d="M209.1,29.6c-4,0-7.3-1.5-9.8-4.4c-2.5-2.9-3.7-6.5-3.7-10.6c0-4.2,1.3-7.6,3.7-10.4c2.5-2.8,5.8-4.2,10-4.2
	c4,0,7.3,1.4,9.8,4.2c2.5,2.8,3.7,6.3,3.7,10.4c0,4.2-1.3,7.7-3.7,10.6C216.6,28.2,213.2,29.6,209.1,29.6z M196.8,124.9V39.6H221
	v85.3H196.8z"/>
<path fill="#58595B" d="M290.7,124.9V71.2c0-5.5-1.2-9.4-3.6-11.7c-2.4-2.3-6.2-3.5-11.6-3.5c-5.4,0-9.2,1.2-11.6,3.5
	c-2.4,2.3-3.6,6.2-3.6,11.7v53.7h-23.9V68.7C236.5,58,240,50.1,247,45c7-5.1,16.6-7.6,28.7-7.6c12.1,0,21.7,2.5,28.7,7.6
	c7,5.1,10.5,12.9,10.5,23.6v56.2H290.7z"/>
<path fill="#58595B" d="M376.6,122.9c-1.4,0.6-3.4,1.1-5.9,1.4c-2.5,0.4-5.2,0.5-8,0.5c-5.1,0-9.8-0.8-14-2.3
	c-4.2-1.5-7.9-3.8-10.9-6.7c-3-2.9-5.4-6.5-7-10.8c-1.7-4.3-2.5-9.2-2.5-14.8V14.1h24.3v25.5h21.4v18.7h-21.4v31.9
	c0,4,1.1,7.4,3.3,10.1c2.2,2.7,5.3,4,9.4,4c2.5,0,4.6-0.2,6.3-0.5c1.7-0.4,3.4-0.8,5.1-1.4V122.9z"/>
<path fill="#58595B" d="M473.6,123.8h-21.4v-8.4c-2.5,2.9-5.8,5.3-9.8,7.4c-4,2.1-9.1,3.1-15.2,3.1c-6.1,0-11.6-1-16.5-2.9
	c-4.9-2-9.2-4.8-12.8-8.4c-3.6-3.6-6.3-8-8.3-13.2c-2-5.2-2.9-11-2.9-17.4c0-6.8,1-13.1,2.9-18.9c2-5.8,4.8-10.9,8.6-15.1
	c3.7-4.2,8.4-7.6,13.8-10c5.5-2.4,11.7-3.7,18.6-3.7c6.5,0,12.5,0.9,17.7,2.8c5.3,1.8,9.8,4.6,13.6,8.3c3.7,3.7,6.6,8.3,8.7,13.9
	c2,5.6,3,12.1,3,19.6V123.8z M416.3,61.9c-3.6,4.3-5.4,10.7-5.4,19.3c0,8.6,1.8,15,5.4,19.3c3.6,4.3,8.4,6.4,14.5,6.4
	s10.9-2.1,14.5-6.4c3.6-4.3,5.4-10.7,5.4-19.3c0-8.6-1.8-15-5.4-19.3c-3.6-4.3-8.4-6.4-14.5-6.4S419.9,57.6,416.3,61.9z"/>
<path fill="#BBC25B" d="M536.2,126.9c-4.2-1.5-7.9-3.8-10.9-6.7c-3-2.9-5.4-6.5-7-10.8c-1.7-4.3-2.5-9.2-2.5-14.8V20.1h-26.6v107.4
	h49C537.5,127.3,536.8,127.1,536.2,126.9z"/>
<rect x="521.5" y="144.5" fill="#BBC25B" width="120.2" height="9.3"/>
<path fill="#BBC25B" d="M540,20.1V44h21.4v18.7H540v31.9c0,4,1.1,7.4,3.3,10.1c1.9,2.3,4.5,3.6,7.8,3.9v0.1h13v18.6
	c-0.2,0.1-0.5,0.2-0.7,0.3h37.9L566.1,44h27.1l19.6,52.8l20-52.8h25.7l-35.3,83.6h50.9V20.1H540z"/>
<path fill="#BBC25B" d="M678.9,15.4v116.9H484.4V15.4H678.9 M681.5,12.7h-2.6H484.4h-2.6v2.6v116.9v2.6h2.6h194.5h2.6v-2.6V15.4
	V12.7L681.5,12.7z"/>
</svg>
