<?xml version="1.0" encoding="utf-8"?>
<!-- Generator: Adobe Illustrator 18.1.1, SVG Export Plug-In . SVG Version: 6.00 Build 0)  -->
<svg version="1.1" id="Layer_1" xmlns="http://www.w3.org/2000/svg" xmlns:xlink="http://www.w3.org/1999/xlink" x="0px" y="0px"
	 viewBox="0 0 419.4 144.2" enable-background="new 0 0 419.4 144.2" xml:space="preserve">
<path fill="#7C6A55" d="M177.7,86c11,0,16.4-5.7,18.6-17.2l6.2-31.8h-12.4l-6.7,34.3c-0.8,4.1-1.6,5.8-4,5.8s-2.5-1.7-1.7-5.8
	l6.7-34.3H172l-6.2,31.8C163.5,80.7,165.6,86,177.7,86z"/>
<polygon fill="#7C6A55" points="208.7,85.1 218.1,37 205.7,37 196.3,85.1 "/>
<path fill="#7C6A55" d="M226.9,86c10.9,0,16.3-6.5,18.5-17.7l0.6-3h-12l-0.7,3.7c-1.2,6-2.4,8.1-4.4,8.1c-3,0-3-2-0.2-16.1
	c2.7-13.7,3.3-16.1,6.5-16.1c2.5,0,1.8,3.8,1.4,5.9l-0.8,3.9h12l0.7-3.5c1.5-7.5,1.4-15.2-11.8-15.2c-15.9,0-17.9,10.1-20.8,25
	C212.9,76.4,211,86,226.9,86z"/>
<polygon fill="#7C6A55" points="257.4,85.1 259.8,72.8 262.3,69.1 265.5,85.1 279.5,85.1 272.5,58.1 287.6,37 274.1,37 263.4,55.3 
	263.2,55.3 266.8,37 254.4,37 245,85.1 "/>
<path fill="#7C6A55" d="M292.1,64.9c2,1.2,4,2.2,5.5,3.2c1.4,1,2.3,1.7,1.7,4.8c-0.4,2.1-1.6,4.2-3.9,4.2c-2.2,0-2.7-1.9-2.3-4.2
	l0.4-2.2h-12l-0.3,1.3c-2.1,10.6,2.5,14.1,11.9,14.1c11.5,0,17.1-4.4,19.3-15.6c3.4-17.2-16.1-12.2-14.2-21.8c0.4-2,1.7-3.6,3.6-3.6
	c2.1,0,2.5,1.9,2.2,3.9l-0.4,2h11.7c1.6-8,0.8-14.7-11.8-14.7c-4.8,0-8.3,1.3-10.7,3c-3.3,2.2-5.9,5.9-7.2,12.5
	C284.4,58.7,286.1,61.3,292.1,64.9z"/>
<polygon fill="#7C6A55" points="325.1,85.1 328.9,65.7 334.9,65.7 331.1,85.1 343.5,85.1 352.9,37 340.5,37 337.1,54.4 331.1,54.4 
	334.5,37 322.1,37 312.7,85.1 "/>
<path fill="#7C6A55" d="M362.3,86c15.9,0,17.8-9.6,20.8-25c2.9-14.9,4.9-25-11-25c-16,0-17.9,10.1-20.8,25
	C348.3,76.4,346.4,86,362.3,86z M364.1,61c2.8-14.1,3.6-16.1,6.3-16.1c2.7,0,2.8,2,0,16.1c-2.8,14.1-3.6,16.1-6.3,16.1
	C361.4,77.1,361.3,75.1,364.1,61z"/>
<g>
	<path fill="#7C6A55" d="M237.2,98.6l-0.7,3.4l1.1,0c0.9,0,1.4-0.9,1.5-1.7C239.5,98.6,238.8,98.5,237.2,98.6z"/>
	<path fill="#7C6A55" d="M184.5,98.9l-1.8,8.9c2.2,0.1,2.4-0.8,2.7-2.6l0.9-4.6C186.6,99,186.1,98.9,184.5,98.9z"/>
	<path fill="#7C6A55" d="M407.4,37H391l-10.9,57.3l-212.4,1.6l-10.1-14.7c3.9-4.3,5.3-11.2,7-20.1c2.9-14.9,4.9-25-11.1-25
		c-8.1,0-12.6,2.6-15.4,7.2C127,17.8,101.7,0,72.1,0C32.3,0,0,32.3,0,72.1c0,39.8,32.3,72.1,72.1,72.1c9.7,0,21.6-2.6,30.1-6.8
		c0.6,0.1,1.1,0.1,1.8,0.1c7,0,14.4-5.6,16.6-12.6c2.2-6.9-1.6-12.6-8.5-12.6c-7,0-14.4,5.6-16.6,12.6c-1.8,5.5,0.2,10.1,4.6,11.9
		c-8,3.3-16,4.2-23.1,4.2c-7.5,0-14.7-1.2-21.4-3.5c-0.5,0-1,0.1-1.5,0.1c-0.8,0-1.6-0.1-2.4-0.2c6.4-0.9,12.7-6.1,14.8-12.4
		c2.2-6.9-1.6-12.6-8.5-12.6c-7,0-14.4,5.6-16.6,12.6c-0.6,2-0.8,3.9-0.5,5.6c-19-12-31.6-33.2-31.6-57.4c0-16.4,5.8-31.4,15.5-43.1
		l0.3,1.1l5.4,0.5L46,80.2c0,0-5.7,3.4-5.7,13.7c0,7.3,4.3,17.7,19.2,17.7c7,0,329.7-2.2,329.7-2.2l8.2-42.5h3.8
		c8.4,0,15.4-4.3,17.5-15C420.9,41.4,416.9,37,407.4,37z M145.5,61c2.8-14.1,3.6-16.1,6.3-16.1c2.7,0,2.8,2,0,16.1
		c-2.8,14.1-3.7,16.1-6.3,16.1C142.9,77.1,142.8,75.1,145.5,61z M135.4,50.6l-0.8,4.2l-6.8,0.7l-2.4-8.2l8.9-0.7L135.4,50.6z
		 M134.2,56.5l-1.5,7.7l-2.3,0.4l-2.1-7.3L134.2,56.5z M78.7,50.8l3,9.7l-12.3,1.3l-3-10.2L78.7,50.8z M65.7,49.1l-2.8-9.5l12.2-0.3
		l2.8,9.1L65.7,49.1z M108.3,48.6l2.7,8.7l-12.2,1.3l-2.7-9.2L108.3,48.6z M108.1,38.5l11.7-0.3l2.4,7.6l-11.8,0.7L108.1,38.5z
		 M95.5,47.4L93,38.9l12.1-0.3l2.5,8.1L95.5,47.4z M93.5,49.7l2.9,9.2l-12.2,1.3l-2.8-9.7L93.5,49.7z M80.6,48.3l-2.7-9l12.2-0.3
		l2.7,8.6L80.6,48.3z M70.6,73.7l-10.9,1.7L56.8,66l11-1.4L70.6,73.7z M70.1,64.4l12.3-1.5l2.7,8.6l-12.4,1.9L70.1,64.4z M84.8,62.6
		l12.2-1.5l2.6,8.2l-12.3,1.9L84.8,62.6z M99.5,60.8l12.1-1.5l2.4,7.8l-12.2,1.9L99.5,60.8z M113.5,57.1l-2.6-8.7l11.7-0.9l2.6,8.3
		L113.5,57.1z M125.8,57.5l2.3,7.4l-11.8,1.8l-2.3-7.7L125.8,57.5z M133.9,45.1l-9,0.5l-2.2-7.5l9.4-0.2L133.9,45.1z M42.8,22
		L32,22.5C44,11.8,59.7,5.4,77,5.4c22.4,0,42.3,10.9,54.6,27.6l-84.5,1.8L42.8,22z M48.6,40l11.3-0.3l3,9.6L51.7,50L48.6,40z
		 M52.6,52.7l11.1-0.8L67,62.2l-11,1.2L52.6,52.7z M61.2,96.2c0,0-4.8-0.3-4.8-4.1c0-2.3,0.2-3.8,4-4.9c3.1-0.9,53-11.3,70.5-15
		c-0.8,8.6,1.3,13.7,12.9,13.7c0.8,0,1.5,0,2.2-0.1c0.7-0.1,1.3-0.1,1.9-0.2l6.5,10.2L61.2,96.2z M186.3,109.7c-1,0.6-2,0.7-3,0.7
		l-4.4,0l2.9-14l3.6,0c1.2,0,2.6,0,3.6,0.6c1.1,0.7,1,2.1,0.8,3.4l-1.3,6.2C188,108,187.4,109.1,186.3,109.7z M197.5,107.5l-0.6,2.8
		l-7.7,0l2.9-14l7.5,0l-0.6,2.8l-4.2,0l-0.5,2.6l4.1,0l-0.6,2.8l-4.1,0l-0.6,3L197.5,107.5z M205.6,110.2l-7.3,0l2.9-14l3.3,0
		l-2.3,11.2l4,0L205.6,110.2z M210.2,110.2l-3.3,0l2.9-14l3.3,0L210.2,110.2z M214.3,110.1l-0.2-14l3.3,0l-0.3,9.8h0l3.7-9.8l3.3,0
		l-5.9,14L214.3,110.1z M230.9,104.2l-4.1,0l-0.6,3l4.4,0l-0.6,2.8l-7.7,0l2.9-14l7.5,0l-0.6,2.8l-4.2,0l-0.5,2.6l4.1,0L230.9,104.2
		z M242.4,99.9c-0.3,1.5-0.9,2.6-2.4,3.2l0,0c0.9,0.2,1.4,0.8,1.2,1.8c-0.1,1.1-0.6,3.5-0.6,4.4c0,0.2,0.1,0.4,0.2,0.5l0,0.2l-3.6,0
		c0-0.3-0.1-0.5,0-0.8c0.2-1.2,0.5-2.4,0.6-3.2s-0.1-1.4-0.8-1.5l-1.1,0l-1.1,5.5l-3.3,0l2.9-14l4.8,0C241.9,96,243,97.1,242.4,99.9
		z M248.8,104.1l-1.2,5.9l-3.3,0l1.2-5.9l-1.6-8.1l3.3,0l0.7,4.6h0l2.6-4.6l3.3,0L248.8,104.1z M406.1,52c-1,4.8-3,5.3-5.3,5.3h-1.4
		l2.1-10.6h1.4C406,46.7,406.7,48.7,406.1,52z"/>
</g>
</svg>
