<?xml version="1.0" encoding="utf-8"?>
<!-- Generator: Adobe Illustrator 18.1.1, SVG Export Plug-In . SVG Version: 6.00 Build 0)  -->
<svg version="1.1" id="Layer_1" xmlns="http://www.w3.org/2000/svg" xmlns:xlink="http://www.w3.org/1999/xlink" x="0px" y="0px"
	 viewBox="0 0 375.5 93.6" enable-background="new 0 0 375.5 93.6" xml:space="preserve">
<path d="M169.8,51.4c0.3-0.4,0.6-0.9,1-1.5c0.4-0.5,0.8-1,1.3-1.4c0-0.4-0.1-0.6-0.4-0.4c-1.5,1.1-3.5,2.1-6,3
	c-2.5,0.9-5.2,1.6-8,2.3c-2.8,0.6-5.5,1.1-8.2,1.4c-2.7,0.3-4.9,0.4-6.8,0.4c-5.2,0-7.8-1.7-7.8-5.2c0-1.3,0.4-2.8,1.1-4.5
	c1-2.3,2.1-4.6,3.4-7c1.3-2.4,2.5-4.7,3.8-6.9c0.2-0.4,0.6-0.7,1.2-0.7c1.4-0.1,2.9-0.1,4.4-0.1h4.9c2.3,0,4.5,0,6.8,0.1
	c2.2,0,4.3,0.1,6.2,0.2c0.5,0,0.8-0.1,0.9-0.4c0.1-0.4,0.3-0.8,0.5-1.2c0.2-0.4,0.4-0.8,0.6-1.1l-0.3-0.3c-2.6,0.6-5.1,1-7.6,1.2
	c-2.5,0.2-5.5,0.3-8.9,0.3h-3.2c-1,0-2.1,0-3.1-0.1c-0.7,0-1-0.3-0.7-1c1.8-3.2,3.6-6.4,5.7-9.7c2-3.3,4-6.3,6-9
	c0.6-0.7,1.5-1.1,2.6-1.1c2.6,0,5.3,0.1,7.9,0.2c2.6,0.1,5.1,0.4,7.4,0.8c0.2,0.1,0.4,0.3,0.6,0.7c0.2,0.4,0.3,0.8,0.3,1.2l0.4,0.1
	c0.4-0.8,0.8-1.6,1.2-2.4c0.4-0.8,0.7-1.3,0.9-1.7c0-0.4-0.2-0.6-0.7-0.6c-1.8,0-3.9,0-6.4,0.1c-2.5,0.1-5,0.1-7.4,0.2
	c-2.5,0.1-4.7,0.1-6.7,0.2c-2,0.1-3.4,0.1-4.2,0.1c-2.3,0-4.7,0-7.2-0.1c-2.5-0.1-4.9-0.2-7.2-0.3c-0.4,0.4-0.7,1.3-0.9,2.5l0.2,0.1
	c1.7-0.4,3.6-0.7,5.8-0.9c2.2-0.1,4.4-0.2,6.6-0.2c0.4,0,0.7,0.1,0.7,0.4c0,0.3-0.4,1.3-1.3,2.9c-0.8,1.7-1.8,3.5-2.9,5.5
	c-1.1,2-2.1,3.9-3.1,5.7c-1,1.8-1.6,2.9-1.9,3.4c-0.8,1.5-2.1,2.4-3.7,2.6c-0.9,0.1-1.3,0.5-1.3,1c0,0.2,0.2,0.3,0.6,0.3
	c0.8,0,1.3,0,1.5,0.1c0.2,0.1,0.3,0.2,0.3,0.4c0,0.1-0.4,0.9-1.3,2.5c-0.9,1.6-1.9,3.3-3,5.3c-1.1,1.9-2.2,3.8-3.2,5.6
	c-1,1.8-1.7,2.9-2,3.4c-0.8,1.5-1.2,2.9-1.2,4.2c0,0.7,0.2,1.4,0.6,1.9c0.4,0.6,1,1,2,1.4c1,0.4,2.4,0.7,4.1,0.9
	c1.8,0.2,4,0.3,6.8,0.3c1.9,0,3.9-0.1,6-0.2c2.1-0.1,4.3-0.4,6.5-0.7c2.2-0.3,4.4-0.6,6.5-0.9c2.1-0.3,4.1-0.7,5.9-1.2
	C168.3,53,169.3,52.4,169.8,51.4z M375.1,24.3c-0.3-0.7-0.5-1-0.8-1c-0.4,0-0.9,0.5-1.4,1.4c-0.7,1.2-1.3,2.3-1.9,3.3
	c-0.6,1-1.2,2.1-1.8,3.1c-0.3-0.1-0.7-0.1-1.2-0.1c-1.8,0-3.5,0.4-5.3,1.3c-2,1-3.9,2.4-5.8,4.4c-1.9,2-3.6,4.1-5.1,6.3
	c-0.9,1.3-1.6,2.5-2.3,3.7c-1.3,1.4-2.7,2.6-4.2,3.8c-1.8,1.4-3.5,2.6-5.2,3.6c-1.7,1-3.2,1.4-4.4,1.4c-0.8,0-1.4-0.2-1.8-0.5
	c-0.4-0.3-0.6-0.9-0.6-1.8c0-1,0.4-2.4,1.1-4.2c0.7-1.8,1.6-3.6,2.7-5.6c1.1-1.9,2.2-3.8,3.4-5.7c1.2-1.8,2.2-3.3,3-4.5
	c0.4-0.6,0.5-1,0.5-1.3c0-0.3-0.1-0.6-0.4-0.9c-0.3-0.3-0.5-0.5-0.8-0.5c-0.4,0-1.2,0.4-2.4,1.2c-1.1,0.8-2.5,1.7-4,2.9
	c-1.5,1.2-3.1,2.5-4.7,3.8c-1.7,1.4-3.2,2.7-4.6,4c1-2.3,2.1-4.3,3.1-6c1.1-1.7,1.6-2.7,1.6-3c0-0.4-0.2-0.8-0.6-1.2
	c-0.4-0.4-0.8-0.6-1.2-0.6c-0.4,0-0.8,0.2-1,0.5c-0.9,2.1-1.9,4.4-3.2,7c-0.4,0.7-0.7,1.4-1,2.2c-0.7,0.9-1.7,2-2.8,3.2
	c-1.5,1.5-3.1,3-4.8,4.4c-1.7,1.4-3.5,2.6-5.2,3.6c-1.8,1-3.4,1.5-4.8,1.5c-0.8,0-1.4-0.2-1.9-0.6c-0.5-0.4-0.7-1-0.7-1.9
	c0-0.8,0.2-1.9,0.7-3.3c0.5-1.4,1.1-2.9,1.9-4.6c0.8-1.7,1.7-3.4,2.7-5.1c1-1.8,2-3.4,2.9-4.8c0.1-0.1,0.3-0.4,0.4-0.7
	c0.1-0.3,0.2-0.5,0.2-0.7c0-0.2-0.2-0.3-0.5-0.3c-0.3,0-0.9,0.2-1.8,0.6c-0.9,0.4-1.6,0.9-1.9,1.5c-0.6,0.8-1.4,2-2.4,3.6
	s-2,3.3-3,5.1c-1,1.8-1.9,3.5-2.6,5.1c-0.6,1.3-0.9,2.3-1,3.2c-0.9,1.2-1.7,2.4-2.7,3.5c-1.6,1.9-3.3,3.4-5.1,4.7
	c-1.8,1.2-3.7,1.9-5.7,1.9c-1.2,0-2.1-0.4-2.7-1.2c-0.6-0.8-0.8-1.8-0.8-3.1c0-1.6,0.6-4.1,1.9-7.5c1.2-3.4,3.1-7.5,5.6-12.4
	c1.4-2.7,2.9-5.5,4.7-8.6l0,0c0,0,0-0.1,0.1-0.1c1.4-2.5,2.9-5,4.6-7.8c1.2-2,2.5-4,3.8-6.1c0.1-0.1,0.2-0.3,0.3-0.4
	c2.1-2.7,4.2-5.1,6.1-6.7c0.9-0.8,2-1.4,3.2-1.9c1.2-0.5,2.4-0.8,3.7-0.9c0.9-0.1,1.6-0.1,2-0.1c0.5,0.1,0.9,0.1,1.2,0.2
	c0.3,0.1,0.6,0.2,0.9,0.3c0.2,0.1,0.5,0.1,0.7,0.1c0.4,0,0.6-0.3,0.7-0.9c0.1-0.8,0.3-1.5,0.7-2c0.4-0.5,0.6-0.9,0.5-1.4
	c0-0.4-0.3-0.6-0.9-0.8c-0.6-0.2-1.3-0.2-2.2-0.1c-1.8,0.2-3.9,1-6.3,2.5c-3.1,1.9-7.1,4.3-9.9,7.7c-1.2,1.5-2.1,2.7-3,4h0
	c-0.1,0.1-0.2,0.3-0.3,0.4c-3.2,4.9-6.6,10.5-10.1,16.6c-4.9,0.9-9,2.7-12.4,5.5c-3.3,2.8-6.4,6.4-9.1,10.8
	c-0.1,0.2-0.2,0.4-0.3,0.6c-0.8,0.7-1.6,1.3-2.5,2c-1.7,1.2-3.4,2.2-5.2,3c-1.8,0.8-3.5,1.2-5.2,1.2c-2.7,0-4.1-1.5-4.1-4.5
	c0-1.5,0.2-2.9,0.7-4.3c0.4-1.4,0.8-2.5,1.2-3.1c2.3,0,4.4-0.3,6-0.9c1.7-0.6,3.1-1.4,4.2-2.3c1.1-0.9,1.9-1.9,2.5-2.9
	c0.5-1,0.8-2,0.8-2.9c0-0.6-0.2-1.1-0.6-1.4c-0.4-0.4-1.1-0.6-2.1-0.6c-1.8,0-3.8,0.7-5.8,2c-2,1.4-3.9,3-5.6,5.1
	c-1.7,2-3.1,4.2-4.1,6.6c-0.1,0.3-0.2,0.6-0.4,0.9c-0.1,0.1-0.1,0.1-0.2,0.2c-1.4,1.4-3,2.8-4.7,4c-1.7,1.2-3.4,2.2-5.2,3
	c-1.8,0.8-3.5,1.2-5.2,1.2c-2.7,0-4.1-1.5-4.1-4.5c0-1.5,0.2-2.9,0.7-4.3c0.4-1.4,0.8-2.5,1.2-3.1c2.3,0,4.4-0.3,6-0.9
	c1.7-0.6,3.1-1.4,4.2-2.3c1.1-0.9,1.9-1.9,2.5-2.9c0.6-1,0.8-2,0.8-2.9c0-0.6-0.2-1.1-0.6-1.4c-0.4-0.4-1.1-0.6-2.1-0.6
	c-1.8,0-3.8,0.7-5.8,2c-2,1.4-3.9,3-5.6,5.1c-1.1,1.3-2,2.7-2.9,4.2c-3.2,3.7-6.3,6.5-9.2,8.5c-3.5,2.4-6.3,3.6-8.3,3.6
	c-1.2,0-2.3-0.4-3.1-1.2c-0.8-0.8-1.3-1.9-1.3-3.5c0-2.1,0.3-4.1,0.9-6c0.6-1.9,1.4-3.7,2.4-5.2c1-1.5,2.1-2.7,3.4-3.6
	c1.3-0.9,2.6-1.4,4-1.4c1.2,0,2,0.3,2.6,1c0.5,0.7,0.8,1.4,0.8,2.1c0,0.7-0.1,1.3-0.3,1.9l0.3,0.1c1-0.8,1.8-1.4,2.2-1.9
	c0.5-0.6,0.8-1.4,0.8-2.5c0-2.1-1.4-3.2-4.1-3.2c-0.6,0-1.3,0.2-2.2,0.5c-2.9,1.2-5.7,3.2-8.2,5.9c-2.5,2.6-4.4,5.6-5.8,9
	c-1.8,1.8-3.3,3.3-4.7,4.4c-1.4,1.1-2.5,2-3.6,2.6c-1,0.6-1.9,1-2.6,1.2c-0.7,0.2-1.3,0.3-1.8,0.3c-1.6,0-2.7-0.3-3.3-1
	c-0.6-0.7-0.9-1.7-0.9-3.2c0-0.7,0.1-1.7,0.2-3.2c0.1-1.5,0.4-3,0.8-4.5c1.5-0.9,3.1-1.8,4.8-2.6c1.7-0.9,3.2-1.8,4.6-2.6
	c1.4-0.9,2.6-1.7,3.5-2.5c0.9-0.8,1.4-1.5,1.4-2.2c0-0.6-0.3-1-1-1.4c-0.7-0.3-1.2-0.5-1.5-0.6l-0.2,0.2c0.1,0.1,0.1,0.4,0.1,0.7
	c0,1.7-1.1,3.3-3.3,4.9c-2.2,1.6-4.9,3.3-8.1,5.2c0.7-2,1.2-3.6,1.6-4.8c0.4-1.2,0.7-2.2,1-2.9c0.3-0.7,0.4-1.2,0.5-1.5
	c0.1-0.3,0.2-0.6,0.2-0.8c0-0.7-0.4-1-1.2-1c-0.3,0-0.8,0.1-1.5,0.3c-0.7,0.2-1.4,0.4-2.3,0.6c-0.8,0.2-1.6,0.5-2.4,0.8
	c-0.8,0.3-1.5,0.5-2.1,0.8c-0.1,0.1-0.1,0.3-0.2,0.4c0,0.1,0,0.3,0.2,0.3c0.6-0.2,1.2-0.4,1.7-0.5s1.1-0.2,1.7-0.2
	c0.8,0,1.2,0.5,1.2,1.5c0,0.3-0.1,0.8-0.2,1.4c-0.1,0.7-0.3,1.4-0.4,2.3c-0.2,0.8-0.4,1.7-0.6,2.6c-0.2,0.9-0.4,1.7-0.7,2.4
	c-6.5,3.7-11.3,7.6-14.7,11.6c-1,1.1-1.8,2.3-2.4,3.5h2c0.5-1.2,1.2-2.3,2-3.4c1.3-1.8,3-3.5,5.1-5.3c2.1-1.8,4.7-3.6,7.8-5.4
	c-0.3,1.2-0.6,2.6-0.9,4.2c-0.3,1.5-0.5,2.7-0.5,3.4c0,1.6,0.3,2.8,0.9,3.6c0.6,0.8,1.7,1.2,3.1,1.2c2.1,0,4.6-0.7,7.5-2.2
	c2.5-1.3,5.4-3.5,8.6-6.8c-0.3,1-0.4,1.9-0.4,2.8c0,3.4,2,5.1,6,5.1c0.8,0,1.7-0.1,2.6-0.3c0.9-0.2,1.9-0.5,3-0.9
	c1.4-0.6,2.9-1.4,4.4-2.4c1.5-1,3-2.2,4.5-3.5c1.4-1.3,2.8-2.6,4.2-4c-1,2.3-1.6,4.5-1.6,6.6c0,3.1,1.7,4.6,5.2,4.6
	c2.1,0,4.3-0.4,6.4-1.3c2.2-0.8,4.3-1.9,6.3-3.3c1.9-1.3,3.7-2.7,5.4-4.3c-0.5,1.5-0.7,2.9-0.7,4.3c0,3.1,1.7,4.6,5.2,4.6
	c2.1,0,4.3-0.4,6.4-1.3c2.2-0.8,4.3-1.9,6.3-3.3c1-0.6,1.9-1.3,2.7-2c-0.1,0.3-0.3,0.6-0.4,0.9c-0.4,1.1-0.5,1.9-0.5,2.6
	c0,0.9,0.2,1.6,0.5,2.1c0.4,0.5,1.1,0.8,2.1,0.8c0.7,0,1.4-0.2,2.3-0.6c0.8-0.4,1.9-1.1,3-2c1.2-1,2.5-2.3,4.1-4
	c1.5-1.7,3.3-3.8,5.4-6.3c-1.5,2.9-2.5,5.4-3.2,7.4s-1,3.9-1,5.7c0,1.7,0.5,3.1,1.4,4.1c1,1.1,2.4,1.6,4.4,1.6
	c1.8,0,3.5-0.5,5.3-1.5c1.8-1,3.5-2.4,5.2-4.2c1.1-1.2,2.1-2.5,3.2-4c0.1,0.5,0.2,1,0.5,1.3c0.3,0.5,0.7,0.9,1.2,1.2
	c0.5,0.3,1,0.5,1.6,0.5c0.6,0.1,1.1,0.1,1.5,0.1c1.2,0,2.6-0.3,4.2-0.8c1.5-0.5,3-1.2,4.5-2.2c1.9-1.2,4-2.9,6.3-5
	c1.4-1.2,2.6-2.5,3.8-3.9c-0.5,1-1,1.9-1.4,2.9c-1.1,1.4-2.1,2.7-3,3.8c-0.9,1.1-1.4,2-1.4,2.7c0,0.2,0.1,0.7,0.4,1.5
	c0.3,0.8,0.6,1.2,0.9,1.2c0.1,0,0.4-0.2,0.7-0.7c1.2-1.9,2.3-3.6,3.1-5.2c0.8-1.5,1.9-3.2,3-5.1c0.7-0.8,1.5-1.7,2.6-2.8
	c1.1-1,2.2-2,3.3-3c1.1-1,2.3-1.9,3.4-2.8c1.1-0.9,2.1-1.6,2.9-2.1c0.4-0.2,0.6-0.2,0.7,0.1c0.1,0.3,0.1,0.6-0.1,0.9
	c-0.7,1.5-1.5,3.2-2.6,5.1c-1.1,1.8-2.1,3.6-3.1,5.4c-1,1.8-1.9,3.4-2.6,5c-0.7,1.6-1.1,2.9-1.1,3.9c0,1,0.4,1.7,1.1,1.9
	c0.7,0.3,1.5,0.4,2.4,0.4c1.9,0,3.9-0.5,5.9-1.4c2-1,4-2.2,5.9-3.6c1.2-0.9,2.4-1.9,3.5-3c-0.1,0.1-0.1,0.3-0.2,0.4
	c-0.9,2-1.4,3.6-1.4,4.7c0,1,0.2,1.6,0.7,2.1c0.4,0.4,1,0.7,1.7,0.7c0.9,0,1.9-0.4,3-1.2c1.1-0.8,2.3-1.8,3.5-3.1
	c1.2-1.3,2.5-2.9,3.9-4.6c1.4-1.8,2.8-3.6,4.3-5.6c-0.7,1.3-1.9,3.4-3.5,6.3c-1.6,2.9-2.5,5.6-4.5,9.3c-1.6,3-8.1,12-9.8,15.2
	c-2.5,4.2-6.1,8.5-9.5,11.3c-3,2.5-6.3,4.1-9.5,5.1c-3.2,1-6.4,1.5-9.5,1.5c-3,0-5.8-0.3-8.5-0.9c-2.6-0.6-4.9-1.5-6.9-2.8
	c-1.9-1.2-3.5-2.8-4.6-4.6c-0.8-1.4-1.3-2.7-1.5-4.4c-0.1-0.8-0.1-1.3,0-1.8c0.1-0.7,0.3-1.3,0.4-1.8c0-0.4-0.1-0.5-0.3-0.5
	c-0.2,0-0.4,0.1-0.4,0.4c-0.2,0.6-0.4,1.4-0.6,2.4c-0.1,0.4-0.1,0.7-0.1,1.1h0v0c0,0,0,0.1,0,0.1l0,0c0,1.8,0.3,3.2,0.8,5
	c0.5,2,1.4,3.7,2.7,5.3c1.3,1.5,3,2.8,5.3,3.7c2.2,0.9,5.1,1.4,8.5,1.4c4.7,0,9-0.7,12.9-2c3.9-1.4,7.6-3.2,10.9-5.6
	c3.3-2.4,6.3-5.3,9.1-8.5c0.8-0.9,1.6-2,2.2-2.9h0c0-0.1,0.1-0.1,0.1-0.2c1.3-1.8,7.5-10.5,8.6-12.4c0.2-0.4,0.5-0.8,0.7-1.2
	c0.1-0.2,0.3-0.4,0.4-0.7c0.1-0.1,0.1-0.2,0.2-0.3c0.8-1.3,1.5-2.6,2.3-4c1.4-2.5,2.9-5.1,4.4-7.7c0.2-0.4,0.4-0.7,0.6-1l-0.1,0
	c0.2-0.3,0.3-0.6,0.5-0.9c2.9-5.2,6.2-11.3,9.9-18.1c0.4-0.7,0.6-1.3,0.6-2C375.5,25.5,375.4,24.9,375.1,24.3z M256.2,38.2
	c0.7-1,1.4-2,2.1-2.9c0.7-0.9,1.5-1.6,2.3-2.1c0.8-0.5,1.5-0.8,2.3-0.8c1,0,1.4,0.5,1.4,1.4c0,2.1-0.8,3.8-2.4,5.3
	c-1.6,1.5-3.5,2.3-5.6,2.3c-0.2,0-0.5,0-0.9-0.1c-0.4,0-0.6-0.1-0.8-0.2C254.9,40.2,255.5,39.3,256.2,38.2z M233.6,38.2
	c0.7-1,1.4-2,2.1-2.9c0.7-0.9,1.5-1.6,2.3-2.1s1.5-0.8,2.3-0.8c1,0,1.4,0.5,1.4,1.4c0,2.1-0.8,3.8-2.4,5.3c-1.6,1.5-3.5,2.3-5.6,2.3
	c-0.2,0-0.5,0-0.9-0.1c-0.4,0-0.6-0.1-0.8-0.2C232.4,40.2,232.9,39.3,233.6,38.2z M280.4,47.3c-1.7,1.9-3.2,3.4-4.5,4.5
	c-1.4,1.1-2.3,1.6-2.8,1.6c-0.1,0-0.4-0.1-0.7-0.2c-0.3-0.1-0.4-0.4-0.4-0.8c0-1.2,0.6-3,1.8-5.4c1.2-2.5,3.2-5.4,5.9-8.9
	c1.2-1.5,2.5-2.7,4-3.7c1.5-1,3.6-1.5,6.4-1.6c-1.3,2.8-2.9,5.4-4.6,7.9C283.8,43.2,282.1,45.4,280.4,47.3z M363.8,40.4
	c-1.8,2.6-3.5,4.9-5.1,6.9c-1.7,2.1-3.1,3.7-4.5,5c-1.3,1.2-2.2,1.9-2.6,1.9c-0.4,0-0.7-0.4-0.7-1.2c0-0.7,0.2-1.7,0.6-3.2
	c0.4-1.5,1-3.2,1.9-5c0.9-1.8,2-3.7,3.3-5.6c1.3-1.9,2.9-3.6,4.7-5.2c0.7-0.6,1.4-1,2.4-1.2c0.9-0.2,1.9-0.3,2.9-0.3h0.8
	c0.4,0,0.7,0,0.9,0.1C367.1,35.3,365.6,37.9,363.8,40.4z M316.9,16.4c-0.7,0.9-1,1.8-1,2.8c0,0.9,0.4,1.3,1.3,1.3
	c1,0,1.8-0.4,2.6-1.3c0.8-0.9,1.2-1.8,1.2-2.6c0-1-0.5-1.4-1.4-1.4C318.5,15.1,317.6,15.6,316.9,16.4z"/>
<g>
	<path d="M83.6,56c-4.7,0.5-11.3,1-11.3-5.4V27.3H69v-5.8h3.2V12h8v9.5h3.4v5.8h-3.4v21.4c0.2,1.5,2.4,1.3,3.4,1.2V56z"/>
	<path d="M96.4,27.6h0.1c1-2.5,2-3.9,3.1-4.9c2.3-1.9,3.8-1.8,4.9-1.8v9.4c-4.4-0.4-7.7,0.7-7.9,5.7v19.9h-7.9V21.5h7.6V27.6z"/>
	<path d="M110,17.3v-7.2h7.9v7.2H110z M110,55.9V21.5h7.9v34.4H110z"/>
</g>
<path fill="#B9E5FB" d="M42,0.1v24l0,0.1h8.4c0,0,10.1,0.2,11.7,1.5c0.5,0.4,0.7,0.8,0.9,1.1V29c-0.2,0.2-0.4,0.7-0.9,1.1
	c-2,1.3-11.7,1.7-11.7,1.7h-8.4l0,0.1v24.1h21V0.1H42z"/>
<path fill="#94C5DC" d="M21,13.3v11.8h5.2L21,13.3z M22.1,0.1l19.9,24v-24H22.1z M21,30.9v11.7l5.2-11.7H21z M42.1,55.9V31.8
	L21.9,55.9H42.1z"/>
<path fill="#0092B0" d="M15.3,0.1H0v16.2l5.9,8.8H21V13.2L15.3,0.1z M0,39.4v16.5h15.2L21,42.6V30.9H5.9L0,39.4z"/>
<g>
	<path d="M0.8,61.9h1.6V73H0.8V61.9z"/>
	<path d="M5.2,64.8h1.6v1.2h0c0.7-1.1,2-1.5,3.2-1.5c2,0,3.4,0.8,3.4,2.9V73h-1.6v-5.2c0-1.2-0.7-1.9-2.4-1.9
		c-1.4,0-2.7,0.8-2.7,2.4V73H5.2V64.8z"/>
	<path d="M23.9,70c-0.7,2.4-2.1,3.3-4.2,3.3c-3.2,0-4.4-2.2-4.4-4.3c0-2.4,1.5-4.4,4.4-4.4c2.2,0,3.9,1,4.2,3h-1.6
		c-0.2-1.1-1-1.7-2.5-1.7c-2,0-2.9,1.3-2.9,3c0,1.7,0.9,3,2.9,3c1.4,0,2.2-0.6,2.5-2H23.9z"/>
	<path d="M27,69.4c0.1,1.7,1.6,2.6,3,2.6c0.9,0,2.1-0.3,2.6-1.4h1.6c-0.8,2-2.6,2.7-4.2,2.7c-3.2,0-4.7-2-4.7-4.3
		c0-2.3,1.5-4.3,4.7-4.3c2.1,0,4.4,1.2,4.4,4.6v0.2H27z M32.9,68.1c-0.2-1.5-1.4-2.3-2.8-2.3c-1.4,0-2.7,0.8-2.9,2.3H32.9z"/>
	<path d="M36.5,64.8H38v1.2h0c0.7-1.1,2-1.5,3.2-1.5c2,0,3.4,0.8,3.4,2.9V73h-1.6v-5.2c0-1.2-0.7-1.9-2.4-1.9
		c-1.4,0-2.7,0.8-2.7,2.4V73h-1.6V64.8z"/>
	<path d="M47.6,62.3h1.6v2.5h2.3V66h-2.3v5c0,0.7,0.5,0.9,1.3,0.9c0.4,0,0.7,0,1.1-0.1v1.3c-0.5,0.1-1.1,0.1-1.7,0.1
		c-1.5,0-2.1-0.7-2.1-1.9V66h-1.7v-1.2h1.7V62.3z"/>
	<path d="M53.1,61.8h1.6v1.7h-1.6V61.8z M53.1,64.8h1.6V73h-1.6V64.8z"/>
	<path d="M63.2,64.8h1.7L61.3,73h-1.7l-3.7-8.1h1.8l2.8,6.4L63.2,64.8z"/>
	<path d="M67.5,69.4c0.1,1.7,1.6,2.6,3,2.6c0.9,0,2.1-0.3,2.6-1.4h1.6c-0.8,2-2.6,2.7-4.2,2.7c-3.2,0-4.7-2-4.7-4.3
		c0-2.3,1.6-4.3,4.7-4.3c2.1,0,4.4,1.2,4.4,4.6v0.2H67.5z M73.3,68.1c-0.2-1.5-1.4-2.3-2.8-2.3c-1.4,0-2.7,0.8-2.9,2.3H73.3z"/>
	<path d="M85.7,63.3h-4.2v-1.4h10v1.4h-4.2V73h-1.6V63.3z"/>
	<path d="M91.7,64.8h1.6v1.5h0c0.7-1.3,1.8-1.8,2.8-1.8c0.4,0,0.6,0,0.9,0.1v1.7c-0.4-0.1-0.7-0.2-1.1-0.2c-1.5,0-2.6,0.9-2.6,2.7
		V73h-1.6V64.8z"/>
	<path d="M98.4,67.4c0.2-2,1.6-2.8,4-2.8c1.7,0,3.7,0.4,3.7,2.3v4.4c0,0.5,0.2,0.7,0.7,0.7c0.2,0,0.4,0,0.5-0.1V73
		c-0.4,0.1-0.8,0.1-1.2,0.1c-0.8,0-1.3-0.2-1.4-1.1c-0.6,0.8-2.1,1.3-3.5,1.3c-2.7,0-3.3-1.4-3.3-2.5c0-1.5,0.9-2.2,3.5-2.5l1.8-0.2
		c0.9-0.1,1.4-0.2,1.4-1c0-1.1-1.1-1.3-2.3-1.3c-1.3,0-2.5,0.4-2.5,1.6H98.4z M104.7,68.7c-0.2,0.3-0.7,0.4-1.5,0.5l-1.8,0.2
		c-1.2,0.2-1.8,0.5-1.8,1.3c0,0.8,0.8,1.3,1.9,1.3c1.8,0,3.2-0.9,3.2-2.3V68.7z"/>
	<path d="M115.2,64.8h1.7l-3.7,8.1h-1.7l-3.7-8.1h1.8l2.8,6.4L115.2,64.8z"/>
	<path d="M119.4,69.4c0.1,1.7,1.6,2.6,3,2.6c0.9,0,2.1-0.3,2.6-1.4h1.6c-0.8,2-2.6,2.7-4.2,2.7c-3.2,0-4.7-2-4.7-4.3
		c0-2.3,1.6-4.3,4.7-4.3c2.1,0,4.4,1.2,4.4,4.6v0.2H119.4z M125.3,68.1c-0.2-1.5-1.4-2.3-2.8-2.3c-1.4,0-2.7,0.8-2.9,2.3H125.3z"/>
	<path d="M128.9,61.8h1.6V73h-1.6V61.8z"/>
	<path d="M133.4,71.2h1.9v1.6c0,1.2-0.5,2.4-1.9,2.6v-0.8c0.6-0.2,0.9-0.6,0.9-1.6h-0.9V71.2z"/>
	<path d="M155.2,61.9h2.3V73h-1.6v-9.2h0l-4.3,9.2h-1.5l-4.3-9h0v9h-1.6V61.9h2.3l4.4,9.2L155.2,61.9z"/>
	<path d="M161.3,69.4c0.1,1.7,1.6,2.6,3,2.6c0.9,0,2.1-0.3,2.6-1.4h1.6c-0.8,2-2.6,2.7-4.2,2.7c-3.2,0-4.7-2-4.7-4.3
		c0-2.3,1.6-4.3,4.7-4.3c2.1,0,4.4,1.2,4.4,4.6v0.2H161.3z M167.1,68.1c-0.2-1.5-1.4-2.3-2.8-2.3c-1.4,0-2.7,0.8-2.9,2.3H167.1z"/>
	<path d="M172,69.4c0.1,1.7,1.6,2.6,3,2.6c0.9,0,2.1-0.3,2.6-1.4h1.6c-0.8,2-2.6,2.7-4.2,2.7c-3.2,0-4.7-2-4.7-4.3
		c0-2.3,1.6-4.3,4.7-4.3c2.1,0,4.4,1.2,4.4,4.6v0.2H172z M177.9,68.1c-0.2-1.5-1.4-2.3-2.8-2.3c-1.4,0-2.7,0.8-2.9,2.3H177.9z"/>
	<path d="M182.2,62.3h1.5v2.5h2.3V66h-2.3v5c0,0.7,0.5,0.9,1.3,0.9c0.4,0,0.7,0,1.1-0.1v1.3c-0.5,0.1-1.1,0.1-1.7,0.1
		c-1.5,0-2.1-0.7-2.1-1.9V66h-1.7v-1.2h1.7V62.3z"/>
	<path d="M187.6,61.8h1.6v1.7h-1.6V61.8z M187.6,64.8h1.6V73h-1.6V64.8z"/>
	<path d="M191.4,64.8h1.6v1.2h0c0.7-1.1,2-1.5,3.2-1.5c2,0,3.4,0.8,3.4,2.9V73H198v-5.2c0-1.2-0.7-1.9-2.4-1.9
		c-1.4,0-2.7,0.8-2.7,2.4V73h-1.6V64.8z"/>
	<path d="M209.1,64.8h1.5v7.4c0,2.9-1.4,4.1-4.7,4.1c-1.8,0-3.8-0.3-4.1-2.5h1.6c0.3,1.1,1.2,1.3,2.7,1.3c2.2,0,3-1.1,3-2.4v-1.2h0
		c-0.9,1.3-2.1,1.5-3.1,1.5c-2.2,0-4.4-1.2-4.4-4.2c0-3,2.3-4.2,4.4-4.2c1.3,0,2.6,0.4,3.2,1.4h0V64.8z M206.1,65.9
		c-1.9,0-3,1.2-3,2.9c0,1.7,1.1,2.9,3,2.9c1.9,0,3-1.2,3-2.9C209.1,67.2,208,65.9,206.1,65.9z"/>
	<path d="M214,70.4c0,0.7,0.6,1.6,2.6,1.6c2,0,2.5-0.7,2.5-1.3c0-0.6-0.3-0.9-1.5-1.1l-2.6-0.3c-1.2-0.2-2.2-0.9-2.2-2.2
		c0-1.6,1.4-2.6,3.7-2.6c2.7,0,3.8,1.1,4,2.7h-1.6c0-0.8-0.8-1.5-2.4-1.5c-1,0-2.1,0.3-2.1,1.2c0,0.5,0.2,0.9,1.3,1l2.2,0.3
		c2,0.3,2.8,1,2.8,2.2c0,1.9-1.6,2.8-4.1,2.8c-1.9,0-4-0.5-4.2-2.8H214z"/>
	<path d="M228,67.4c0.2-2,1.6-2.8,4-2.8c1.7,0,3.7,0.4,3.7,2.3v4.4c0,0.5,0.2,0.7,0.7,0.7c0.2,0,0.4,0,0.5-0.1V73
		c-0.4,0.1-0.8,0.1-1.2,0.1c-0.8,0-1.3-0.2-1.4-1.1c-0.6,0.8-2.1,1.3-3.5,1.3c-2.7,0-3.3-1.4-3.3-2.5c0-1.5,0.9-2.2,3.5-2.5l1.8-0.2
		c0.9-0.1,1.4-0.2,1.4-1c0-1.1-1.1-1.3-2.3-1.3c-1.3,0-2.5,0.4-2.5,1.6H228z M234.3,68.7c-0.2,0.3-0.7,0.4-1.5,0.5l-1.8,0.2
		c-1.2,0.2-1.8,0.5-1.8,1.3c0,0.8,0.8,1.3,1.9,1.3c1.8,0,3.2-0.9,3.2-2.3V68.7z"/>
	<path d="M238.4,64.8h1.6v1.2h0c0.7-1.1,2-1.5,3.2-1.5c2,0,3.4,0.8,3.4,2.9V73h-1.6v-5.2c0-1.2-0.7-1.9-2.4-1.9
		c-1.4,0-2.7,0.8-2.7,2.4V73h-1.6V64.8z"/>
	<path d="M256.1,71.9L256.1,71.9c-0.6,0.9-1.9,1.3-3.1,1.3c-2.4,0-4.4-1.6-4.4-4.3c0-2.7,2-4.3,4.4-4.3c1.2,0,2.5,0.4,3.1,1.3h0
		v-4.2h1.6V73h-1.6V71.9z M253.2,71.9c2.1,0,3-1.5,3-3c0-1.9-1.2-3-3-3c-1.8,0-3,1.1-3,3C250.2,70.5,251.1,71.9,253.2,71.9z"/>
	<path d="M265.8,61.9h6.9c2.2,0,3,1.5,3,2.9c0,1.3-0.7,2.3-1.9,2.7v0c1,0.1,1.6,1.1,1.6,2.4c0.1,2.1,0.2,2.6,0.5,3h-1.7
		c-0.3-0.3-0.3-0.8-0.3-2.1c-0.1-2-0.8-2.6-2.1-2.6h-4.3V73h-1.6V61.9z M272,66.8c1.6,0,2-1,2-1.8c0-1.1-0.6-1.8-2-1.8h-4.6v3.5H272
		z"/>
	<path d="M278.9,69.4c0.1,1.7,1.6,2.6,3,2.6c0.9,0,2.1-0.3,2.6-1.4h1.6c-0.8,2-2.6,2.7-4.2,2.7c-3.2,0-4.7-2-4.7-4.3
		c0-2.3,1.6-4.3,4.7-4.3c2.1,0,4.4,1.2,4.4,4.6v0.2H278.9z M284.7,68.1c-0.2-1.5-1.4-2.3-2.8-2.3c-1.4,0-2.7,0.8-2.9,2.3H284.7z"/>
	<path d="M299.7,64.8h1.6l-3.2,8.1h-1.7l-2-6.2h0l-2,6.2h-1.6l-3.1-8.1h1.7l2.2,6.2h0l2-6.2h1.7l2.1,6.2h0L299.7,64.8z"/>
	<path d="M302.8,67.4c0.2-2,1.6-2.8,4-2.8c1.7,0,3.7,0.4,3.7,2.3v4.4c0,0.5,0.2,0.7,0.7,0.7c0.2,0,0.4,0,0.5-0.1V73
		c-0.4,0.1-0.8,0.1-1.2,0.1c-0.8,0-1.3-0.2-1.4-1.1c-0.6,0.8-2.1,1.3-3.5,1.3c-2.7,0-3.3-1.4-3.3-2.5c0-1.5,0.9-2.2,3.5-2.5l1.8-0.2
		c0.9-0.1,1.4-0.2,1.4-1c0-1.1-1.1-1.3-2.3-1.3c-1.3,0-2.5,0.4-2.5,1.6H302.8z M309.1,68.7c-0.2,0.3-0.7,0.4-1.5,0.5l-1.8,0.2
		c-1.2,0.2-1.8,0.5-1.8,1.3c0,0.8,0.8,1.3,1.9,1.3c1.8,0,3.2-0.9,3.2-2.3V68.7z"/>
	<path d="M313.2,64.8h1.6v1.5h0c0.7-1.3,1.8-1.8,2.8-1.8c0.4,0,0.6,0,0.9,0.1v1.7c-0.4-0.1-0.7-0.2-1.1-0.2c-1.5,0-2.6,0.9-2.6,2.7
		V73h-1.6V64.8z"/>
	<path d="M327.1,71.9L327.1,71.9c-0.6,0.9-1.9,1.3-3.1,1.3c-2.5,0-4.4-1.6-4.4-4.3c0-2.7,2-4.3,4.4-4.3c1.2,0,2.5,0.4,3.1,1.3h0
		v-4.2h1.6V73h-1.6V71.9z M324.2,71.9c2.1,0,3-1.5,3-3c0-1.9-1.2-3-3-3c-1.8,0-3,1.1-3,3C321.2,70.5,322.1,71.9,324.2,71.9z"/>
	<path d="M332,70.4c0,0.7,0.6,1.6,2.6,1.6c2,0,2.5-0.7,2.5-1.3c0-0.6-0.3-0.9-1.5-1.1l-2.6-0.3c-1.2-0.2-2.2-0.9-2.2-2.2
		c0-1.6,1.4-2.6,3.7-2.6c2.7,0,3.8,1.1,4,2.7h-1.6c0-0.8-0.8-1.5-2.4-1.5c-1,0-2.1,0.3-2.1,1.2c0,0.5,0.2,0.9,1.3,1l2.2,0.3
		c2,0.3,2.8,1,2.8,2.2c0,1.9-1.6,2.8-4.1,2.8c-1.9,0-4-0.5-4.2-2.8H332z"/>
</g>
</svg>
